SplineFontDB: 3.0
FontName: Mikhak-Medium
FullName: Mikhak Medium
FamilyName: Mikhak Medium
Weight: Medium
Copyright: 
Version: 1.00
ItalicAngle: 0
UnderlinePosition: 0
UnderlineWidth: 0
Ascent: 1638
Descent: 410
InvalidEm: 0
sfntRevision: 0x00010003
LayerCount: 2
Layer: 0 0 "Back" 1
Layer: 1 0 "Fore" 0
PreferredKerning: 4
XUID: [1021 89 1101065813 17353]
StyleMap: 0x0040
FSType: 0
OS2Version: 4
OS2_WeightWidthSlopeOnly: 0
OS2_UseTypoMetrics: 1
CreationTime: 1497005464
ModificationTime: 1531843256
PfmFamily: 33
TTFWeight: 500
TTFWidth: 5
LineGap: 0
VLineGap: 0
OS2TypoAscent: 600
OS2TypoAOffset: 1
OS2TypoDescent: -550
OS2TypoDOffset: 1
OS2TypoLinegap: 0
OS2WinAscent: -200
OS2WinAOffset: 1
OS2WinDescent: -50
OS2WinDOffset: 1
HheadAscent: -200
HheadAOffset: 1
HheadDescent: 50
HheadDOffset: 1
OS2SubXSize: 1277
OS2SubYSize: 1185
OS2SubXOff: 0
OS2SubYOff: 256
OS2SupXSize: 1277
OS2SupYSize: 1185
OS2SupXOff: 0
OS2SupYOff: 870
OS2StrikeYSize: 91
OS2StrikeYPos: 766
OS2CapHeight: 1400
OS2XHeight: 1012
OS2Vendor: 'AA68'
Lookup: 4 1 0 "'ccmp' Glyph Composition/Decomposition in Arabic lookup 0" { "'ccmp' Glyph Composition/Decomposition in Arabic lookup 0 subtable 0"  } ['ccmp' ('arab' <'FAR ' 'dflt' > ) ]
Lookup: 1 9 0 "Single Substitution 1" { "Single Substitution 1 subtable"  } []
Lookup: 2 9 0 "Multiple Substitution 2" { "Multiple Substitution 2 subtable"  } []
Lookup: 2 9 0 "Multiple Substitution 3" { "Multiple Substitution 3 subtable"  } []
Lookup: 1 9 0 "'fina' Terminal Forms in Arabic lookup 4" { "'fina' Terminal Forms in Arabic lookup 4 subtable"  } ['fina' ('arab' <'FAR ' 'dflt' > ) ]
Lookup: 1 9 0 "'medi' Medial Forms in Arabic lookup 5" { "'medi' Medial Forms in Arabic lookup 5 subtable"  } ['medi' ('arab' <'FAR ' 'dflt' > ) ]
Lookup: 1 9 0 "'init' Initial Forms in Arabic lookup 6" { "'init' Initial Forms in Arabic lookup 6 subtable"  } ['init' ('arab' <'FAR ' 'dflt' > ) ]

StartChar: a
Encoding: 97 97 0
Width: 1229
VWidth: 2426
Flags: HMW
LayerCount: 2
Fore
SplineSet
908 877 m 0
 908 836 874 801 834 801 c 0
 816 801 797 807 783 820 c 0
 736 862 668 888 605 888 c 0
 403 888 235 652 235 419 c 0
 235 232 332 120 480 120 c 0
 694 120 831 306 875 533 c 0
 890 613 921 834 938 965 c 0
 943 1003 976 1030 1012 1030 c 0
 1057 1030 1087 993 1087 955 c 0
 1087 952 1086 949 1086 946 c 2
 1025 456 l 2
 1021 405 1015 349 1015 293 c 0
 1015 154 1047 120 1069 120 c 0
 1110 120 1144 86 1144 45 c 0
 1144 4 1110 -30 1069 -30 c 0
 942 -30 891 82 875 168 c 1
 784 53 650 -30 480 -30 c 0
 232 -30 85 176 85 419 c 0
 85 702 283 1038 605 1038 c 0
 708 1038 808 998 883 932 c 0
 900 918 908 898 908 877 c 0
EndSplineSet
Colour: ffff
EndChar

StartChar: c
Encoding: 99 99 1
Width: 1031
VWidth: 2426
Flags: HMW
LayerCount: 2
Fore
SplineSet
930 877 m 0
 930 835 895 802 855 802 c 0
 838 802 820 808 806 820 c 0
 750 869 688 896 611 896 c 0
 393 896 235 648 235 411 c 0
 235 243 300 120 528 120 c 0
 653 120 744 154 832 207 c 0
 844 214 858 218 871 218 c 0
 909 218 946 187 946 143 c 0
 946 118 933 93 910 79 c 0
 806 16 683 -30 528 -30 c 0
 210 -30 85 187 85 411 c 0
 85 690 269 1046 611 1046 c 0
 728 1046 826 1001 904 934 c 0
 921 919 930 898 930 877 c 0
EndSplineSet
Colour: ffff
EndChar

StartChar: e
Encoding: 101 101 2
Width: 1141
VWidth: 2426
Flags: HMW
LayerCount: 2
Fore
SplineSet
302 450 m 1
 456 478 606 534 740 614 c 0
 814 658 874 712 874 775 c 0
 874 841 810 896 713 896 c 0
 494 896 321 689 302 450 c 1
980 256 m 0
 1020 256 1056 224 1056 182 c 0
 1056 161 1047 140 1031 125 c 0
 921 26 778 -30 630 -30 c 0
 413 -30 230 88 170 283 c 1
 163 283 l 2
 121 283 85 311 85 357 c 0
 85 394 113 426 150 431 c 1
 160 736 381 1046 713 1046 c 0
 858 1046 1024 953 1024 775 c 0
 1024 616 890 530 816 486 c 0
 664 396 496 333 322 302 c 1
 366 193 477 120 630 120 c 0
 740 120 849 162 931 237 c 0
 945 249 962 256 980 256 c 0
EndSplineSet
Colour: ffff
EndChar

StartChar: f
Encoding: 102 102 3
Width: 773
VWidth: 2426
Flags: HMW
LayerCount: 2
Fore
SplineSet
161 474 m 0
 121 474 85 505 85 548 c 0
 85 587 115 621 154 624 c 0
 191 627 227 628 261 628 c 1
 267 763 276 897 288 1034 c 0
 300 1179 350 1403 519 1403 c 0
 579 1403 628 1368 668 1323 c 0
 680 1309 687 1291 687 1273 c 0
 687 1233 654 1198 612 1198 c 0
 591 1198 570 1206 556 1223 c 0
 535 1246 521 1252 519 1253 c 0
 504 1247 449 1158 438 1022 c 0
 426 889 417 757 411 626 c 1
 481 623 551 617 622 609 c 0
 660 604 689 572 689 535 c 0
 689 491 652 460 613 460 c 0
 610 460 607 461 604 461 c 0
 536 469 471 473 405 476 c 1
 400 318 398 159 398 -4 c 0
 398 -45 364 -79 323 -79 c 0
 282 -79 248 -45 248 -4 c 0
 248 159 250 319 255 478 c 1
 223 478 193 474 161 474 c 0
EndSplineSet
Colour: ffff
EndChar

StartChar: g
Encoding: 103 103 4
Width: 1137
VWidth: 2426
Flags: HMW
LayerCount: 2
Fore
SplineSet
849 924 m 0
 849 880 812 849 774 849 c 0
 761 849 747 853 735 860 c 0
 700 882 640 896 593 896 c 0
 387 896 244 666 244 420 c 0
 244 248 366 120 516 120 c 0
 837 120 899 537 899 971 c 0
 899 1012 934 1046 975 1046 c 0
 1018 1046 1048 1008 1049 974 c 0
 1051 925 1052 842 1052 764 c 2
 1052 682 l 2
 1052 204 1038 -440 521 -440 c 0
 318 -440 167 -331 95 -209 c 0
 88 -198 85 -185 85 -172 c 0
 85 -134 115 -96 159 -96 c 0
 185 -96 211 -109 225 -133 c 0
 271 -211 374 -290 521 -290 c 0
 731 -290 825 -134 870 140 c 1
 791 38 671 -30 516 -30 c 0
 274 -30 94 176 94 420 c 0
 94 702 261 1046 593 1046 c 0
 666 1046 746 1028 813 988 c 0
 836 974 849 949 849 924 c 0
EndSplineSet
Colour: ffff
EndChar

StartChar: o
Encoding: 111 111 5
Width: 1109
VWidth: 2426
Flags: HMW
LayerCount: 2
Fore
SplineSet
567 1046 m 0
 864 1046 1024 795 1024 538 c 0
 1024 250 822 -30 520 -30 c 0
 236 -30 85 215 85 486 c 0
 85 769 245 1046 567 1046 c 0
567 896 m 0
 355 896 235 723 235 486 c 0
 235 261 344 120 520 120 c 0
 718 120 874 310 874 538 c 0
 874 741 760 896 567 896 c 0
EndSplineSet
Colour: ffff
EndChar

StartChar: s
Encoding: 115 115 6
Width: 980
VWidth: 2426
Flags: HMW
LayerCount: 2
Fore
SplineSet
863 785 m 0
 863 747 833 710 788 710 c 0
 754 710 723 734 715 769 c 0
 698 848 616 897 501 897 c 0
 367 897 270 829 262 757 c 1
 264 648 392 603 544 565 c 0
 671 534 895 465 895 239 c 0
 895 24 653 -30 488 -30 c 0
 333 -30 168 24 98 129 c 0
 90 141 86 156 86 170 c 0
 86 208 117 246 161 246 c 0
 185 246 209 234 223 213 c 0
 245 180 363 120 488 120 c 0
 657 120 745 178 745 239 c 0
 745 337 647 384 508 419 c 0
 384 450 112 508 112 760 c 2
 112 766 l 1
 128 964 336 1047 501 1047 c 0
 650 1047 822 978 861 801 c 0
 862 796 863 790 863 785 c 0
EndSplineSet
Colour: ffff
EndChar

StartChar: t
Encoding: 116 116 7
Width: 775
VWidth: 2426
Flags: HMW
LayerCount: 2
Fore
SplineSet
402 1292 m 0
 446 1292 478 1255 478 1216 c 0
 478 1213 477 1210 477 1207 c 0
 465 1107 454 1007 445 907 c 1
 506 905 566 901 624 894 c 0
 662 889 690 857 690 820 c 0
 690 776 654 745 615 745 c 0
 612 745 609 746 606 746 c 0
 551 753 493 757 433 758 c 1
 424 625 418 490 418 355 c 0
 418 192 462 120 576 120 c 2
 595 120 l 2
 601 121 606 122 612 122 c 0
 651 122 687 92 687 47 c 0
 687 13 664 -17 630 -26 c 0
 603 -33 583 -30 576 -30 c 0
 342 -30 268 170 268 355 c 0
 268 490 274 623 283 755 c 1
 242 753 200 745 160 745 c 0
 121 745 85 776 85 820 c 0
 85 857 113 889 151 894 c 0
 198 900 246 904 294 906 c 1
 303 1013 315 1119 327 1225 c 0
 332 1263 365 1292 402 1292 c 0
EndSplineSet
Colour: ffff
EndChar

StartChar: v
Encoding: 118 118 8
Width: 1084
VWidth: 2426
Flags: HMW
LayerCount: 2
Fore
SplineSet
85 970 m 0
 85 1008 114 1046 159 1046 c 0
 187 1046 216 1030 228 1003 c 0
 331 783 454 513 531 242 c 1
 660 472 775 729 852 992 c 0
 861 1024 892 1046 925 1046 c 0
 970 1046 999 1008 999 970 c 0
 999 963 998 957 996 950 c 0
 896 608 737 283 566 6 c 0
 551 -17 527 -28 502 -28 c 0
 469 -28 435 -8 428 31 c 0
 367 339 218 672 92 939 c 0
 87 949 85 959 85 970 c 0
EndSplineSet
Colour: ffff
EndChar

StartChar: w
Encoding: 119 119 9
Width: 1501
VWidth: 2426
Flags: HMW
LayerCount: 2
Fore
SplineSet
302 1029 m 0
 346 1029 377 992 377 954 c 0
 377 941 374 929 367 917 c 0
 318 829 235 571 235 374 c 0
 235 204 282 120 406 120 c 0
 567 120 704 471 704 681 c 0
 704 722 739 756 780 756 c 0
 823 756 853 719 854 682 c 0
 859 399 890 120 1038 120 c 0
 1191 120 1266 269 1266 513 c 0
 1266 664 1231 825 1184 918 c 0
 1179 929 1176 940 1176 951 c 0
 1176 989 1206 1026 1251 1026 c 0
 1279 1026 1305 1010 1318 984 c 0
 1379 861 1416 686 1416 513 c 0
 1416 263 1331 -30 1038 -30 c 0
 868 -30 785 108 748 242 c 1
 683 108 574 -30 406 -30 c 0
 160 -30 85 184 85 374 c 0
 85 607 170 873 237 991 c 0
 250 1015 276 1029 302 1029 c 0
EndSplineSet
Colour: ffff
EndChar

StartChar: x
Encoding: 120 120 10
Width: 1137
VWidth: 2426
Flags: HMW
LayerCount: 2
Fore
SplineSet
160 957 m 0
 160 995 190 1032 235 1032 c 0
 263 1032 289 1016 302 990 c 0
 365 864 453 730 552 598 c 1
 897 1019 l 2
 912 1037 933 1046 955 1046 c 0
 997 1046 1030 1011 1030 971 c 0
 1030 954 1024 937 1013 923 c 2
 647 477 l 1
 773 322 909 174 1030 53 c 0
 1044 39 1052 19 1052 0 c 0
 1052 -41 1018 -75 977 -75 c 0
 958 -75 938 -67 924 -53 c 0
 806 65 675 207 550 358 c 1
 218 -48 l 2
 203 -66 182 -75 160 -75 c 0
 118 -75 85 -40 85 -0 c 0
 85 17 91 34 102 48 c 2
 454 478 l 1
 342 624 241 777 168 924 c 0
 163 935 160 946 160 957 c 0
EndSplineSet
Colour: ffff
EndChar

StartChar: y
Encoding: 121 121 11
Width: 1093
VWidth: 2426
Flags: HMW
LayerCount: 2
Fore
SplineSet
225 1047 m 0
 269 1047 302 1011 302 972 c 0
 302 969 301 966 301 963 c 0
 287 840 280 712 280 589 c 0
 280 302 316 120 531 120 c 0
 685 120 770 255 816 489 c 0
 846 639 852 796 858 960 c 0
 859 998 891 1032 932 1032 c 0
 973 1032 1008 998 1008 957 c 0
 1008 799 1001 635 997 474 c 0
 987 59 942 -440 469 -440 c 0
 270 -440 151 -349 93 -232 c 0
 88 -221 85 -210 85 -199 c 0
 85 -161 115 -124 160 -124 c 0
 188 -124 214 -140 227 -166 c 0
 261 -235 318 -290 469 -290 c 0
 689 -290 777 -147 819 108 c 1
 751 25 653 -30 531 -30 c 0
 164 -30 130 324 130 589 c 0
 130 718 137 850 151 979 c 0
 156 1017 188 1047 225 1047 c 0
EndSplineSet
Colour: ffff
EndChar

StartChar: z
Encoding: 122 122 12
Width: 1054
VWidth: 2426
Flags: HMW
LayerCount: 2
Fore
SplineSet
261 59 m 1
 386 82 675 104 895 104 c 0
 936 104 969 70 969 28 c 0
 969 -12 936 -45 896 -46 c 0
 689 -50 405 -70 296 -87 c 0
 280 -90 260 -92 246 -92 c 0
 176 -92 96 -51 96 37 c 0
 96 78 113 114 137 145 c 0
 326 378 489 564 728 783 c 0
 742 796 745 803 746 808 c 1
 725 822 640 839 538 839 c 0
 391 839 253 821 172 808 c 0
 168 807 164 807 160 807 c 0
 122 807 85 838 85 882 c 0
 85 918 112 950 148 956 c 0
 235 971 379 989 538 989 c 0
 544 989 549 989 555 989 c 0
 677 989 838 986 887 865 c 0
 894 849 897 831 897 813 c 0
 897 768 876 714 828 671 c 0
 600 462 443 283 261 59 c 1
EndSplineSet
Colour: ffff
EndChar

StartChar: A
Encoding: 65 65 13
Width: 1416
VWidth: 1823
Flags: HMW
LayerCount: 2
Fore
SplineSet
159 -43 m 0
 114 -43 85 -4 85 33 c 0
 85 43 88 53 92 63 c 2
 278 476 l 1
 268 490 263 505 263 520 c 0
 263 557 292 591 331 595 c 1
 670 1347 l 2
 683 1377 709 1390 736 1390 c 0
 766 1390 796 1373 808 1343 c 2
 1136 509 l 1
 1153 495 1163 474 1163 452 c 0
 1163 449 1162 446 1162 443 c 2
 1326 27 l 2
 1329 18 1331 10 1331 1 c 0
 1331 -36 1302 -75 1257 -75 c 0
 1227 -75 1198 -56 1186 -27 c 2
 1025 382 l 1
 424 437 l 1
 228 1 l 2
 215 -26 187 -43 159 -43 c 0
490 582 m 1
 963 539 l 1
 733 1123 l 1
 490 582 l 1
EndSplineSet
Colour: ffff
EndChar

StartChar: B
Encoding: 66 66 14
Width: 1098
VWidth: 2426
Flags: HMW
LayerCount: 2
Fore
SplineSet
754 762 m 1
 897 706 1013 589 1013 406 c 0
 1013 76 715 -30 461 -30 c 0
 350 -30 237 -14 140 17 c 0
 108 27 88 60 88 91 c 0
 88 289 110 516 110 706 c 0
 110 934 100 1061 85 1244 c 0
 85 1246 85 1248 85 1250 c 0
 85 1281 106 1310 133 1320 c 0
 244 1363 371 1391 493 1391 c 0
 705 1391 932 1292 932 1028 c 0
 932 900 848 813 754 762 c 1
259 806 m 1
 294 809 332 811 367 812 c 0
 420 818 478 827 532 840 c 0
 692 878 782 942 782 1028 c 0
 782 1176 673 1241 493 1241 c 0
 412 1241 323 1226 239 1199 c 1
 249 1071 257 962 259 806 c 1
446 664 m 0
 387 664 309 656 260 653 c 1
 259 492 253 313 242 145 c 1
 309 129 387 120 461 120 c 0
 693 120 863 202 863 406 c 0
 863 558 742 636 547 658 c 0
 514 662 480 664 446 664 c 0
EndSplineSet
Colour: ffff
EndChar

StartChar: C
Encoding: 67 67 15
Width: 1271
VWidth: 2426
Flags: HMW
LayerCount: 2
Fore
SplineSet
1151 1277 m 0
 1151 1232 1113 1203 1075 1203 c 0
 1065 1203 1055 1205 1045 1209 c 0
 972 1241 895 1257 814 1257 c 0
 478 1257 235 1000 235 662 c 0
 235 335 469 120 810 120 c 0
 902 120 994 142 1076 185 c 0
 1087 191 1098 193 1110 193 c 0
 1148 193 1185 164 1185 120 c 0
 1185 93 1171 66 1146 53 c 0
 1042 -2 926 -30 810 -30 c 0
 399 -30 85 247 85 662 c 0
 85 1076 392 1407 814 1407 c 0
 913 1407 1014 1389 1107 1347 c 0
 1134 1334 1151 1306 1151 1277 c 0
EndSplineSet
Colour: ffff
EndChar

StartChar: D
Encoding: 68 68 16
Width: 1239
VWidth: 2426
Flags: HMW
LayerCount: 2
Fore
SplineSet
160 1368 m 0
 227 1383 297 1391 366 1391 c 0
 816 1391 1154 1180 1154 701 c 0
 1154 274 831 -30 412 -30 c 0
 317 -30 222 -12 133 22 c 0
 103 34 85 64 85 93 c 0
 85 96 86 99 86 102 c 0
 115 325 130 566 130 811 c 0
 130 1007 122 1094 102 1287 c 1
 102 1294 l 2
 102 1330 130 1361 160 1368 c 0
259 1234 m 1
 274 1084 280 986 280 811 c 0
 280 582 267 357 242 144 c 1
 297 129 355 120 412 120 c 0
 755 120 1004 358 1004 701 c 0
 1004 1082 770 1241 366 1241 c 0
 330 1241 296 1239 259 1234 c 1
EndSplineSet
Colour: ffff
EndChar

StartChar: E
Encoding: 69 69 17
Width: 1098
VWidth: 2426
Flags: HMW
LayerCount: 2
Fore
SplineSet
937 1434 m 0
 975 1434 1013 1405 1013 1360 c 0
 1013 1326 989 1294 955 1286 c 0
 812 1253 634 1241 472 1241 c 0
 415 1241 357 1242 303 1245 c 1
 313 1152 317 1073 317 960 c 0
 317 915 316 869 315 824 c 1
 376 827 436 829 500 829 c 0
 625 829 747 821 868 807 c 0
 906 802 935 770 935 733 c 0
 935 689 898 658 859 658 c 0
 856 658 853 659 850 659 c 0
 735 673 619 679 500 679 c 0
 433 679 370 677 308 673 c 1
 301 556 290 443 275 337 c 0
 272 321 272 309 272 295 c 0
 272 136 445 120 768 120 c 0
 822 120 873 121 923 121 c 0
 964 121 997 87 997 45 c 0
 997 5 964 -28 924 -29 c 0
 873 -30 821 -30 768 -30 c 0
 750 -30 732 -30 714 -30 c 0
 454 -30 122 -20 122 295 c 0
 122 315 123 335 127 359 c 0
 140 453 150 554 157 660 c 1
 118 662 85 692 85 736 c 0
 85 779 120 805 165 811 c 1
 167 861 167 910 167 960 c 0
 167 1103 161 1183 144 1316 c 0
 144 1318 144 1320 144 1322 c 0
 144 1353 169 1400 218 1400 c 2
 222 1400 l 1
 305 1395 389 1391 472 1391 c 0
 626 1391 796 1403 921 1432 c 0
 927 1433 932 1434 937 1434 c 0
EndSplineSet
Colour: ffff
EndChar

StartChar: F
Encoding: 70 70 18
Width: 1092
VWidth: 2426
Flags: HMW
LayerCount: 2
Fore
SplineSet
931 1413 m 0
 969 1413 1007 1384 1007 1339 c 0
 1007 1305 983 1273 949 1265 c 0
 805 1232 628 1221 466 1221 c 0
 409 1221 353 1223 297 1225 c 1
 311 1085 318 953 321 811 c 1
 377 814 433 816 489 816 c 0
 610 816 732 807 852 793 c 0
 890 788 919 756 919 719 c 0
 919 675 882 644 843 644 c 0
 840 644 837 645 834 645 c 0
 720 659 604 666 489 666 c 0
 434 666 378 665 323 661 c 1
 323 583 l 2
 323 375 312 173 292 -8 c 0
 287 -46 255 -76 218 -76 c 0
 174 -76 142 -40 142 -1 c 0
 142 2 143 5 143 8 c 0
 163 183 173 381 173 583 c 2
 173 647 l 2
 170 647 166 646 163 646 c 0
 122 646 85 675 85 721 c 0
 85 758 113 790 151 795 c 0
 158 796 164 797 171 798 c 1
 168 971 159 1125 139 1295 c 0
 139 1297 139 1299 139 1301 c 0
 139 1332 165 1379 214 1379 c 2
 218 1379 l 1
 300 1374 383 1371 466 1371 c 0
 620 1371 791 1382 915 1411 c 0
 921 1412 926 1413 931 1413 c 0
EndSplineSet
Colour: ffff
EndChar

StartChar: G
Encoding: 71 71 19
Width: 1352
VWidth: 2426
Flags: HMW
LayerCount: 2
Fore
SplineSet
666 686 m 0
 666 730 704 760 742 760 c 0
 746 760 750 760 754 759 c 0
 816 748 906 740 990 740 c 0
 1056 740 1124 745 1171 753 c 0
 1175 754 1179 754 1183 754 c 0
 1224 754 1256 718 1259 685 c 0
 1264 620 1267 558 1267 500 c 0
 1267 167 1098 -30 716 -30 c 0
 363 -30 85 260 85 640 c 0
 85 1039 301 1391 763 1391 c 0
 877 1391 991 1354 1082 1286 c 0
 1102 1272 1112 1249 1112 1226 c 0
 1112 1183 1076 1151 1037 1151 c 0
 1021 1151 1005 1156 992 1166 c 0
 927 1214 845 1241 763 1241 c 0
 401 1241 235 987 235 638 c 0
 235 334 451 120 716 120 c 0
 1030 120 1117 233 1117 500 c 0
 1117 530 1116 561 1114 595 c 1
 1076 592 1032 590 990 590 c 0
 896 590 802 598 728 611 c 0
 692 617 666 650 666 686 c 0
EndSplineSet
Colour: ffff
EndChar

StartChar: H
Encoding: 72 72 20
Width: 1239
VWidth: 2426
Flags: HMW
LayerCount: 2
Fore
SplineSet
168 -75 m 0
 124 -75 93 -39 93 1 c 2
 93 8 l 1
 113 203 127 403 137 605 c 1
 107 615 85 643 85 676 c 0
 85 711 111 741 144 749 c 1
 151 937 155 1128 157 1317 c 0
 157 1358 192 1391 233 1391 c 0
 274 1391 307 1356 307 1315 c 0
 305 1127 301 938 294 750 c 1
 478 748 717 742 918 735 c 1
 892 1313 l 2
 890 1355 925 1391 968 1391 c 0
 1007 1391 1040 1359 1042 1319 c 2
 1068 730 l 1
 1117 728 1154 703 1154 655 c 0
 1154 613 1120 579 1079 579 c 2
 1075 579 l 1
 1101 -18 l 2
 1103 -60 1068 -96 1025 -96 c 0
 986 -96 953 -64 951 -24 c 2
 924 585 l 1
 720 592 474 598 287 600 c 1
 277 395 263 191 243 -8 c 0
 239 -47 206 -75 168 -75 c 0
EndSplineSet
Colour: ffff
EndChar

StartChar: I
Encoding: 73 73 21
Width: 355
VWidth: 2426
Flags: HMW
LayerCount: 2
Fore
SplineSet
160 -75 m 0
 118 -75 84 -39 85 2 c 2
 120 1363 l 2
 121 1403 155 1436 195 1436 c 0
 237 1436 271 1400 270 1359 c 2
 235 -2 l 2
 234 -42 200 -75 160 -75 c 0
EndSplineSet
Colour: ffff
EndChar

StartChar: J
Encoding: 74 74 22
Width: 680
VWidth: 2426
Flags: HMW
LayerCount: 2
Fore
SplineSet
161 123 m 0
 185 123 209 120 233 120 c 0
 368 120 400 170 400 330 c 0
 400 671 391 932 353 1242 c 1
 173 1242 l 2
 132 1242 98 1276 98 1317 c 0
 98 1358 132 1392 173 1392 c 2
 520 1392 l 2
 561 1392 595 1357 595 1316 c 0
 595 1264 553 1242 504 1242 c 1
 541 933 550 667 550 330 c 0
 550 134 466 -30 233 -30 c 0
 207 -30 180 -29 154 -27 c 0
 115 -24 85 10 85 49 c 0
 85 92 121 123 161 123 c 0
EndSplineSet
Colour: ffff
EndChar

StartChar: K
Encoding: 75 75 23
Width: 1177
VWidth: 2426
Flags: HMW
LayerCount: 2
Fore
SplineSet
946 1436 m 0
 989 1436 1021 1400 1021 1361 c 0
 1021 1345 1016 1329 1006 1316 c 0
 812 1055 538 855 278 700 c 1
 486 467 791 242 1058 70 c 0
 1080 56 1092 31 1092 6 c 0
 1092 -38 1055 -68 1016 -68 c 0
 1002 -68 988 -64 976 -56 c 0
 735 100 463 296 248 513 c 1
 235 -2 l 2
 234 -42 200 -75 160 -75 c 0
 118 -75 84 -39 85 2 c 2
 102 676 l 1
 94 688 89 703 89 719 c 0
 89 736 94 753 105 767 c 1
 120 1362 l 2
 121 1402 155 1435 195 1435 c 0
 237 1435 271 1399 270 1358 c 2
 257 863 l 1
 490 1007 724 1187 886 1406 c 0
 900 1426 923 1436 946 1436 c 0
EndSplineSet
Colour: ffff
EndChar

StartChar: L
Encoding: 76 76 24
Width: 1126
VWidth: 2426
Flags: HMW
LayerCount: 2
Fore
SplineSet
103 1316 m 2
 103 1356 135 1391 178 1391 c 0
 217 1391 250 1360 253 1321 c 0
 264 1152 269 990 269 830 c 0
 269 590 258 355 241 118 c 1
 968 97 l 2
 1008 96 1041 62 1041 22 c 0
 1041 -20 1007 -53 966 -53 c 2
 964 -53 l 1
 158 -30 l 2
 120 -29 85 4 85 46 c 2
 85 51 l 1
 105 314 119 569 119 830 c 0
 119 986 114 1146 103 1311 c 1
 103 1316 l 2
EndSplineSet
Colour: ffff
EndChar

StartChar: M
Encoding: 77 77 25
Width: 1539
VWidth: 2426
Flags: HMW
LayerCount: 2
Fore
SplineSet
159 -75 m 0
 115 -75 85 -39 85 1 c 2
 85 8 l 1
 222 1308 l 2
 226 1346 261 1375 298 1375 c 0
 336 1375 362 1344 369 1320 c 0
 431 1093 571 790 673 615 c 0
 713 546 746 511 757 505 c 1
 766 510 795 537 832 599 c 0
 948 794 1090 1151 1126 1331 c 0
 1133 1366 1166 1391 1201 1391 c 0
 1247 1391 1274 1348 1275 1319 c 0
 1293 808 1348 472 1452 29 c 0
 1453 23 1454 18 1454 13 c 0
 1454 -25 1425 -63 1380 -63 c 0
 1346 -63 1314 -39 1306 -5 c 0
 1230 319 1178 592 1149 915 c 1
 1093 775 1026 630 962 523 c 0
 910 434 852 354 757 354 c 0
 654 354 596 448 543 539 c 0
 478 650 403 803 337 962 c 1
 235 -8 l 2
 231 -47 197 -75 159 -75 c 0
EndSplineSet
Colour: ffff
EndChar

StartChar: N
Encoding: 78 78 26
Width: 1227
VWidth: 2426
Flags: HMW
LayerCount: 2
Fore
SplineSet
161 -75 m 0
 119 -75 85 -41 85 -1 c 0
 85 445 124 865 130 1317 c 0
 131 1363 168 1389 206 1389 c 0
 228 1389 250 1380 265 1361 c 0
 527 1017 767 647 980 282 c 1
 992 1362 l 2
 992 1403 1027 1436 1068 1436 c 0
 1109 1436 1142 1401 1142 1360 c 2
 1127 3 l 2
 1126 -41 1088 -70 1049 -70 c 0
 1025 -70 1001 -58 986 -32 c 0
 776 347 539 730 276 1094 c 1
 268 723 252 369 235 -3 c 0
 233 -43 200 -75 161 -75 c 0
EndSplineSet
Colour: ffff
EndChar

StartChar: O
Encoding: 79 79 27
Width: 1485
VWidth: 2426
Flags: HMW
LayerCount: 2
Fore
SplineSet
713 -30 m 0
 354 -30 85 220 85 613 c 0
 85 1032 380 1391 799 1391 c 0
 1179 1391 1400 1053 1400 684 c 0
 1400 258 1103 -30 713 -30 c 0
713 120 m 0
 1021 120 1250 334 1250 684 c 0
 1250 1003 1071 1241 799 1241 c 0
 476 1241 235 966 235 613 c 0
 235 298 432 120 713 120 c 0
EndSplineSet
Colour: ffff
EndChar

StartChar: P
Encoding: 80 80 28
Width: 1269
VWidth: 2426
Flags: HMW
LayerCount: 2
Fore
SplineSet
347 1175 m 1
 350 1175 353 1176 356 1176 c 0
 400 1176 431 1140 431 1101 c 2
 431 1094 l 1
 378 500 l 1
 440 490 519 484 560 484 c 0
 801 484 1034 649 1034 862 c 0
 1034 1088 869 1241 636 1241 c 0
 541 1241 433 1214 347 1175 c 1
160 1063 m 0
 119 1063 86 1098 86 1137 c 0
 86 1154 92 1172 104 1186 c 0
 219 1317 445 1391 636 1391 c 0
 941 1391 1184 1174 1184 862 c 0
 1184 533 851 334 560 334 c 0
 511 334 435 338 364 349 c 1
 333 -7 l 2
 329 -46 296 -75 258 -75 c 0
 215 -75 183 -40 183 -0 c 2
 183 7 l 1
 218 401 l 1
 207 415 202 430 202 446 c 0
 202 468 212 490 227 503 c 1
 281 1108 l 2
 283 1125 291 1141 302 1153 c 1
 266 1133 236 1111 216 1088 c 0
 201 1071 181 1063 160 1063 c 0
EndSplineSet
Colour: ffff
EndChar

StartChar: Q
Encoding: 81 81 29
Width: 1485
VWidth: 1823
Flags: HMW
LayerCount: 2
Fore
SplineSet
808 438 m 0
 808 477 839 514 882 514 c 0
 906 514 929 503 944 483 c 0
 1075 302 1191 167 1358 21 c 0
 1375 7 1383 -14 1383 -34 c 0
 1383 -75 1348 -109 1308 -109 c 0
 1291 -109 1273 -103 1259 -91 c 0
 1084 63 957 208 822 395 c 0
 813 408 808 423 808 438 c 0
EndSplineSet
Refer: 27 79 N 1 0 0 1 0 0 2
Colour: ffff
EndChar

StartChar: R
Encoding: 82 82 30
Width: 1270
VWidth: 1823
Flags: HMW
LayerCount: 2
Fore
SplineSet
342 1176 m 1
 347 1177 352 1177 357 1177 c 0
 400 1177 431 1141 431 1102 c 2
 431 1097 l 1
 391 511 l 1
 448 491 505 482 560 482 c 0
 806 482 1002 659 1002 862 c 0
 1002 1092 852 1241 622 1241 c 0
 527 1241 424 1215 342 1176 c 1
160 1063 m 0
 119 1063 86 1098 86 1137 c 0
 86 1154 92 1172 104 1186 c 0
 217 1315 430 1391 622 1391 c 0
 930 1391 1152 1170 1152 862 c 0
 1152 593 932 386 668 341 c 1
 1147 65 l 2
 1171 51 1184 25 1184 -1 c 0
 1184 -45 1148 -75 1110 -75 c 0
 1097 -75 1084 -72 1073 -65 c 2
 380 333 l 1
 357 -5 l 2
 354 -44 321 -75 282 -75 c 0
 239 -75 207 -40 207 -0 c 2
 207 5 l 1
 235 417 l 1
 209 432 197 457 197 483 c 0
 197 512 213 542 244 553 c 1
 281 1107 l 2
 282 1126 291 1143 304 1156 c 1
 268 1135 237 1112 216 1088 c 0
 201 1071 181 1063 160 1063 c 0
EndSplineSet
Colour: ffff
EndChar

StartChar: S
Encoding: 83 83 31
Width: 1182
VWidth: 2426
Flags: HMW
LayerCount: 2
Fore
SplineSet
1036 1230 m 0
 1036 1186 999 1155 961 1155 c 0
 948 1155 936 1158 924 1165 c 0
 834 1215 728 1241 619 1241 c 0
 406 1241 240 1118 240 960 c 0
 240 867 375 807 604 738 c 0
 804 677 1097 602 1097 343 c 0
 1097 55 809 -30 578 -30 c 0
 411 -30 241 7 124 72 c 0
 99 86 86 112 86 138 c 0
 86 182 124 213 161 213 c 0
 173 213 185 210 196 204 c 0
 281 157 433 120 578 120 c 0
 801 120 947 193 947 343 c 0
 947 458 796 523 560 594 c 0
 369 651 90 721 90 960 c 0
 90 1236 362 1391 619 1391 c 0
 752 1391 884 1359 998 1295 c 0
 1022 1282 1036 1256 1036 1230 c 0
EndSplineSet
Colour: ffff
EndChar

StartChar: T
Encoding: 84 84 32
Width: 1423
VWidth: 2426
Flags: HMW
LayerCount: 2
Fore
SplineSet
783 3 m 2
 783 -38 750 -72 708 -72 c 0
 668 -72 634 -39 633 1 c 0
 627 185 623 367 623 551 c 0
 623 782 628 1006 638 1233 c 1
 159 1241 l 2
 119 1242 85 1275 85 1315 c 0
 85 1357 118 1391 159 1391 c 2
 161 1391 l 1
 1264 1372 l 2
 1304 1371 1338 1338 1338 1298 c 0
 1338 1256 1305 1222 1264 1222 c 2
 1262 1222 l 1
 788 1230 l 1
 778 1004 773 781 773 551 c 0
 773 369 777 187 783 5 c 1
 783 3 l 2
EndSplineSet
Colour: ffff
EndChar

StartChar: U
Encoding: 85 85 33
Width: 1230
VWidth: 2426
Flags: HMW
LayerCount: 2
Fore
SplineSet
234 1409 m 0
 279 1409 309 1372 309 1334 c 0
 309 1329 308 1323 307 1318 c 0
 265 1127 235 944 235 734 c 0
 235 365 304 120 591 120 c 0
 947 120 995 640 995 1095 c 0
 995 1183 987 1274 987 1362 c 0
 987 1402 1021 1436 1063 1436 c 0
 1102 1436 1135 1404 1137 1364 c 0
 1141 1277 1145 1186 1145 1095 c 0
 1145 696 1133 -30 591 -30 c 0
 160 -30 85 375 85 734 c 0
 85 958 119 1155 161 1350 c 0
 169 1385 200 1409 234 1409 c 0
EndSplineSet
Colour: ffff
EndChar

StartChar: V
Encoding: 86 86 34
Width: 1368
VWidth: 2426
Flags: HMW
LayerCount: 2
Fore
SplineSet
85 1315 m 0
 85 1353 113 1391 159 1391 c 0
 189 1391 218 1373 230 1344 c 2
 671 242 l 1
 1139 1345 l 2
 1151 1374 1179 1391 1208 1391 c 0
 1253 1391 1283 1353 1283 1316 c 0
 1283 1306 1281 1296 1277 1287 c 2
 738 16 l 2
 726 -12 697 -29 667 -29 c 0
 639 -29 612 -14 599 17 c 2
 90 1288 l 2
 87 1297 85 1306 85 1315 c 0
EndSplineSet
Colour: ffff
EndChar

StartChar: W
Encoding: 87 87 35
Width: 2006
VWidth: 2426
Flags: HMW
LayerCount: 2
Fore
SplineSet
85 1348 m 0
 85 1386 114 1424 159 1424 c 0
 191 1424 222 1403 232 1371 c 2
 565 266 l 1
 961 1208 l 2
 974 1239 1001 1253 1028 1253 c 0
 1059 1253 1090 1234 1101 1203 c 2
 1415 278 l 1
 1775 1340 l 2
 1785 1371 1815 1391 1846 1391 c 0
 1892 1391 1921 1354 1921 1316 c 0
 1921 1308 1920 1300 1917 1292 c 2
 1486 21 l 2
 1475 -11 1444 -29 1413 -29 c 0
 1384 -29 1356 -13 1344 21 c 2
 1023 968 l 1
 622 16 l 2
 610 -13 580 -29 551 -29 c 0
 521 -29 492 -12 481 23 c 2
 88 1327 l 2
 86 1334 85 1341 85 1348 c 0
EndSplineSet
Colour: ffff
EndChar

StartChar: X
Encoding: 88 88 36
Width: 1267
VWidth: 2426
Flags: HMW
LayerCount: 2
Fore
SplineSet
128 1277 m 0
 128 1315 160 1352 203 1352 c 0
 226 1352 249 1341 264 1320 c 2
 622 813 l 1
 1008 1380 l 2
 1022 1401 1046 1413 1070 1413 c 0
 1113 1413 1145 1376 1145 1338 c 0
 1145 1324 1141 1309 1132 1296 c 2
 715 682 l 1
 1168 39 l 2
 1177 26 1182 11 1182 -4 c 0
 1182 -42 1150 -79 1107 -79 c 0
 1083 -79 1061 -67 1046 -47 c 2
 625 550 l 1
 222 -42 l 2
 208 -63 184 -75 160 -75 c 0
 117 -75 85 -38 85 0 c 0
 85 14 89 29 98 42 c 2
 532 681 l 1
 142 1234 l 2
 133 1247 128 1262 128 1277 c 0
EndSplineSet
Colour: ffff
EndChar

StartChar: Y
Encoding: 89 89 37
Width: 1267
VWidth: 2426
Flags: HMW
LayerCount: 2
Fore
SplineSet
1107 1413 m 0
 1150 1413 1182 1376 1182 1338 c 0
 1182 1324 1178 1309 1169 1296 c 2
 700 610 l 1
 711 1 l 2
 712 -40 677 -75 635 -75 c 0
 595 -75 562 -41 561 -1 c 2
 550 608 l 1
 99 1244 l 2
 90 1257 85 1271 85 1286 c 0
 85 1324 116 1362 159 1362 c 0
 183 1362 206 1350 221 1330 c 2
 624 764 l 1
 1045 1380 l 2
 1059 1401 1083 1413 1107 1413 c 0
EndSplineSet
Colour: ffff
EndChar

StartChar: Z
Encoding: 90 90 38
Width: 1422
VWidth: 2426
Flags: HMW
LayerCount: 2
Fore
SplineSet
160 1165 m 0
 122 1165 85 1195 85 1240 c 0
 85 1274 108 1304 142 1313 c 0
 346 1364 532 1391 745 1391 c 2
 811 1391 l 2
 933 1391 1122 1381 1168 1253 c 0
 1173 1240 1175 1225 1175 1211 c 0
 1175 1163 1150 1122 1118 1088 c 0
 818 758 578 485 352 138 c 1
 626 164 903 179 1197 179 c 2
 1262 179 l 2
 1303 179 1337 145 1337 104 c 0
 1337 63 1303 29 1262 29 c 2
 1197 29 l 2
 854 29 534 8 214 -28 c 0
 211 -28 208 -28 205 -28 c 0
 160 -28 131 9 131 48 c 0
 131 61 135 74 142 86 c 0
 401 512 670 818 1008 1190 c 0
 1014 1196 1016 1199 1020 1204 c 1
 975 1228 838 1241 745 1241 c 0
 544 1241 374 1216 178 1167 c 0
 172 1166 166 1165 160 1165 c 0
EndSplineSet
Colour: ffff
EndChar

StartChar: zero
Encoding: 48 48 39
Width: 1141
VWidth: 2426
Flags: HMW
LayerCount: 2
Fore
SplineSet
85 516 m 0
 85 830 167 1436 600 1436 c 0
 915 1436 1056 1147 1056 873 c 0
 1056 509 953 -30 490 -30 c 0
 167 -30 85 267 85 516 c 0
235 516 m 0
 235 275 301 120 490 120 c 0
 793 120 906 495 906 873 c 0
 906 1111 795 1286 600 1286 c 0
 345 1286 235 860 235 516 c 0
EndSplineSet
Colour: ffff
EndChar

StartChar: one
Encoding: 49 49 40
Width: 616
VWidth: 2426
Flags: HMW
LayerCount: 2
Fore
SplineSet
379 -75 m 0
 335 -75 302 -38 304 4 c 2
 373 1174 l 1
 317 1129 259 1088 198 1053 c 0
 187 1046 174 1043 161 1043 c 0
 123 1043 85 1073 85 1117 c 0
 85 1143 98 1169 122 1183 c 0
 209 1233 298 1302 371 1371 c 0
 382 1381 403 1391 422 1391 c 2
 456 1391 l 2
 496 1391 534 1356 531 1312 c 2
 454 -4 l 2
 452 -44 418 -75 379 -75 c 0
EndSplineSet
Colour: ffff
EndChar

StartChar: two
Encoding: 50 50 41
Width: 1171
VWidth: 2426
Flags: HMW
LayerCount: 2
Fore
SplineSet
161 -30 m 2
 119 -30 85 4 85 45 c 0
 85 65 93 86 109 100 c 2
 486 444 l 2
 721 659 878 822 878 991 c 0
 878 1115 782 1241 609 1241 c 0
 416 1241 283 1076 283 874 c 0
 283 833 249 799 208 799 c 0
 167 799 133 833 133 874 c 0
 133 1138 316 1391 609 1391 c 0
 866 1391 1028 1193 1028 991 c 0
 1028 732 815 541 588 334 c 2
 371 136 l 1
 457 140 540 142 626 142 c 0
 754 142 885 137 1015 131 c 0
 1055 129 1086 96 1086 57 c 0
 1086 15 1052 -19 1012 -19 c 2
 1008 -19 l 1
 878 -13 750 -8 626 -8 c 0
 470 -8 320 -14 168 -30 c 1
 161 -30 l 2
EndSplineSet
Colour: ffff
EndChar

StartChar: three
Encoding: 51 51 42
Width: 1078
VWidth: 2426
Flags: HMW
LayerCount: 2
Fore
SplineSet
225 962 m 0
 180 962 150 999 150 1037 c 0
 150 1042 151 1048 152 1053 c 0
 200 1266 397 1391 581 1391 c 0
 771 1391 945 1252 945 978 c 0
 945 858 881 770 797 716 c 1
 905 671 987 579 993 434 c 1
 993 139 750 -30 484 -30 c 0
 352 -30 217 11 112 98 c 0
 94 113 85 134 85 156 c 0
 85 198 120 231 160 231 c 0
 177 231 194 225 208 214 c 0
 283 153 384 120 484 120 c 0
 691 120 842 240 843 432 c 1
 838 544 769 587 615 608 c 0
 586 612 556 615 525 615 c 0
 470 615 419 604 371 597 c 0
 368 597 364 596 361 596 c 0
 321 596 286 629 286 673 c 0
 286 750 380 753 454 761 c 0
 505 770 555 780 600 793 c 0
 731 832 795 883 795 978 c 0
 795 1180 691 1241 581 1241 c 0
 459 1241 328 1156 298 1021 c 0
 290 986 259 962 225 962 c 0
EndSplineSet
Colour: ffff
EndChar

StartChar: four
Encoding: 52 52 43
Width: 1268
VWidth: 2426
Flags: HMW
LayerCount: 2
Fore
SplineSet
723 1391 m 0
 768 1391 797 1353 797 1315 c 0
 797 1306 795 1297 792 1288 c 0
 641 915 463 673 242 375 c 0
 241 374 239 372 238 369 c 1
 280 359 325 359 368 359 c 0
 476 359 586 367 696 381 c 1
 759 933 l 2
 764 971 797 1000 834 1000 c 0
 878 1000 910 963 910 924 c 0
 910 921 909 918 909 915 c 2
 850 404 l 1
 932 418 1012 435 1090 454 c 0
 1096 455 1102 456 1108 456 c 0
 1146 456 1183 426 1183 381 c 0
 1183 347 1160 317 1126 308 c 0
 1031 285 932 264 832 248 c 1
 803 -9 l 2
 798 -47 765 -76 728 -76 c 0
 684 -76 652 -39 652 0 c 0
 652 3 653 6 653 9 c 2
 679 227 l 1
 576 215 471 209 368 209 c 0
 324 209 281 211 234 218 c 0
 198 222 137 233 103 292 c 0
 91 312 85 336 85 359 c 0
 85 407 103 440 122 465 c 0
 341 761 509 989 652 1344 c 0
 664 1373 693 1391 723 1391 c 0
EndSplineSet
Colour: ffff
EndChar

StartChar: five
Encoding: 53 53 44
Width: 1133
VWidth: 2426
Flags: HMW
LayerCount: 2
Fore
SplineSet
963 1412 m 0
 1001 1412 1037 1382 1037 1338 c 0
 1037 1303 1014 1272 979 1264 c 0
 901 1247 773 1241 637 1241 c 0
 527 1241 412 1245 324 1255 c 1
 305 989 l 1
 382 1025 460 1041 538 1041 c 0
 799 1041 1048 847 1048 510 c 0
 1048 152 774 -42 496 -42 c 0
 362 -42 225 2 113 91 c 0
 95 105 85 127 85 150 c 0
 85 193 121 225 160 225 c 0
 176 225 193 220 207 209 c 0
 291 142 394 108 496 108 c 0
 706 108 898 242 898 510 c 0
 898 763 725 891 538 891 c 0
 445 891 347 858 269 788 c 0
 254 775 237 769 220 769 c 0
 181 769 144 800 144 843 c 0
 144 845 144 847 144 849 c 2
 180 1346 l 2
 183 1383 216 1416 256 1416 c 0
 261 1416 265 1416 270 1415 c 0
 344 1400 495 1391 637 1391 c 0
 767 1391 893 1399 947 1410 c 0
 952 1411 958 1412 963 1412 c 0
EndSplineSet
Colour: ffff
EndChar

StartChar: six
Encoding: 54 54 45
Width: 1130
VWidth: 2426
Flags: HMW
LayerCount: 2
Fore
SplineSet
269 562 m 1
 268 536 267 510 267 483 c 0
 267 261 358 120 564 120 c 0
 744 120 895 299 895 490 c 0
 895 657 824 750 738 791 c 0
 703 808 664 816 622 816 c 0
 523 816 413 768 329 660 c 0
 307 632 286 599 269 562 c 1
612 1404 m 0
 650 1404 687 1374 687 1329 c 0
 687 1302 673 1276 648 1263 c 0
 483 1174 382 1032 325 865 c 1
 415 932 520 966 622 966 c 0
 749 966 871 913 952 802 c 0
 1011 722 1045 616 1045 490 c 0
 1045 231 846 -30 564 -30 c 0
 279 -30 137 180 119 421 c 1
 95 437 86 460 86 485 c 0
 86 524 107 567 121 599 c 1
 125 647 131 696 140 744 c 0
 186 999 312 1253 576 1395 c 0
 587 1401 600 1404 612 1404 c 0
EndSplineSet
Colour: ffff
EndChar

StartChar: eight
Encoding: 56 56 46
Width: 1079
VWidth: 2426
Flags: HMW
LayerCount: 2
Fore
SplineSet
395 603 m 1
 310 522 263 438 263 354 c 0
 263 212 359 120 506 120 c 0
 651 120 756 215 756 350 c 0
 756 428 618 513 438 584 c 0
 424 589 410 596 395 603 c 1
912 1215 m 0
 912 1172 876 1140 837 1140 c 0
 821 1140 805 1145 792 1155 c 0
 721 1208 620 1241 512 1241 c 0
 322 1241 235 1132 235 994 c 0
 235 909 293 838 377 783 c 1
 539 907 741 1000 889 1065 c 0
 898 1069 908 1071 918 1071 c 0
 955 1071 994 1042 994 997 c 0
 994 968 977 939 949 927 c 0
 824 872 664 798 531 709 c 1
 680 648 906 552 906 350 c 0
 906 123 721 -30 506 -30 c 0
 285 -30 113 128 113 354 c 0
 113 482 177 591 262 681 c 1
 172 748 85 852 85 994 c 0
 85 1214 248 1391 512 1391 c 0
 650 1391 781 1350 882 1275 c 0
 902 1261 912 1238 912 1215 c 0
EndSplineSet
Colour: ffff
EndChar

StartChar: period
Encoding: 46 46 47
Width: 399
VWidth: 1823
Flags: HMW
LayerCount: 2
Fore
SplineSet
91 100 m 0
 91 156 146 199 210 199 c 0
 274 199 309 158 309 94 c 0
 309 30 268 -26 204 -26 c 0
 140 -26 91 38 91 100 c 0
EndSplineSet
Colour: ff0000
EndChar

StartChar: comma
Encoding: 44 44 49
Width: 478
VWidth: 1823
Flags: HMW
LayerCount: 2
Fore
SplineSet
111 -282 m 0
 67 -282 37 -244 37 -206 c 0
 37 -193 40 -180 47 -169 c 2
 277 227 l 2
 291 251 317 264 343 264 c 0
 387 264 417 226 417 188 c 0
 417 175 414 162 407 151 c 2
 177 -245 l 2
 163 -269 137 -282 111 -282 c 0
EndSplineSet
Colour: ffff
EndChar

StartChar: bracketleft
Encoding: 91 91 51
Width: 562
VWidth: 2426
Flags: HMW
LayerCount: 2
Fore
SplineSet
448 1396 m 0
 488 1396 524 1365 524 1322 c 0
 524 1283 494 1249 455 1246 c 0
 402 1242 349 1241 295 1241 c 0
 270 1241 246 1241 222 1242 c 1
 230 1151 233 1062 233 972 c 0
 233 734 209 497 209 266 c 0
 209 139 246 129 447 120 c 0
 487 118 519 85 519 46 c 0
 519 4 485 -30 445 -30 c 2
 441 -30 l 1
 244 -21 59 21 59 266 c 0
 59 496 83 739 83 972 c 0
 83 1085 78 1198 64 1312 c 0
 64 1314 64 1316 64 1318 c 0
 64 1350 91 1396 138 1396 c 0
 190 1396 241 1391 295 1391 c 0
 349 1391 399 1396 448 1396 c 0
EndSplineSet
Colour: ffff
EndChar

StartChar: bracketright
Encoding: 93 93 52
Width: 735
VWidth: 2426
Flags: HMW
LayerCount: 2
Fore
SplineSet
25 1344 m 0
 25 1388 62 1418 101 1418 c 0
 105 1418 108 1418 112 1417 c 0
 203 1403 308 1393 411 1391 c 0
 454 1390 485 1351 485 1314 c 0
 485 1309 484 1305 483 1300 c 0
 448 1140 447 1064 447 875 c 0
 447 683 501 481 501 285 c 0
 501 26 295 -30 107 -30 c 0
 66 -30 32 4 32 45 c 0
 32 86 66 120 107 120 c 0
 283 120 351 146 351 285 c 0
 351 476 297 678 297 875 c 0
 297 1028 298 1121 319 1244 c 1
 240 1249 160 1258 88 1269 c 0
 51 1274 25 1308 25 1344 c 0
EndSplineSet
Colour: ffff
EndChar

StartChar: braceleft
Encoding: 123 123 53
Width: 564
VWidth: 1839
Flags: HMW
LayerCount: 2
Fore
SplineSet
336 1186 m 0
 336 1134 342 1088 342 1028 c 0
 342 1012 342 996 342 983 c 0
 342 885 340 796 298 728 c 1
 336 643 347 522 347 413 c 0
 347 364 344 317 338 277 c 0
 334 252 333 233 333 215 c 0
 333 141 340 120 458 120 c 0
 499 120 533 86 533 45 c 0
 533 4 499 -30 458 -30 c 0
 286 -30 183 61 183 215 c 0
 183 282 197 336 197 413 c 0
 197 510 181 623 161 668 c 1
 123 678 88 700 88 747 c 0
 88 774 103 801 129 814 c 0
 152 825 172 824 175 824 c 0
 176 824 176 824 178 824 c 0
 187 854 192 913 192 983 c 0
 192 1060 186 1127 186 1186 c 0
 186 1331 276 1436 455 1436 c 0
 496 1436 530 1402 530 1361 c 0
 530 1320 496 1286 455 1286 c 0
 342 1286 336 1263 336 1186 c 0
EndSplineSet
Colour: ffff
EndChar

StartChar: grave
Encoding: 96 96 55
Width: 525
VWidth: 2426
Flags: HMW
LayerCount: 2
Fore
SplineSet
107 1482 m 0
 107 1521 139 1556 181 1556 c 0
 203 1556 225 1547 240 1528 c 0
 306 1444 380 1307 428 1200 c 0
 432 1190 435 1180 435 1170 c 0
 435 1133 406 1094 361 1094 c 0
 333 1094 305 1111 292 1138 c 0
 248 1235 174 1370 122 1436 c 0
 112 1449 107 1466 107 1482 c 0
EndSplineSet
Colour: ffff
EndChar

StartChar: bar
Encoding: 124 124 56
Width: 356
VWidth: 2426
Flags: HMW
LayerCount: 2
Fore
SplineSet
160 -75 m 0
 118 -75 84 -42 84 -1 c 0
 84 367 101 1040 101 1459 c 0
 101 1500 135 1534 176 1534 c 0
 217 1534 251 1500 251 1459 c 0
 251 1039 241 366 234 -1 c 0
 233 -41 200 -75 160 -75 c 0
EndSplineSet
Colour: ffff
EndChar

StartChar: asciicircum
Encoding: 94 94 57
Width: 703
VWidth: 2426
Flags: HMW
LayerCount: 2
Fore
SplineSet
164 1094 m 0
 120 1094 90 1131 90 1169 c 0
 90 1182 93 1196 101 1208 c 2
 267 1477 l 2
 281 1500 306 1512 331 1512 c 0
 348 1512 365 1506 379 1495 c 0
 475 1414 544 1321 601 1201 c 0
 606 1191 608 1181 608 1170 c 0
 608 1133 579 1094 534 1094 c 0
 506 1094 478 1110 465 1137 c 0
 429 1212 393 1269 346 1320 c 1
 229 1130 l 2
 215 1107 189 1094 164 1094 c 0
EndSplineSet
Colour: ffff
EndChar

StartChar: hyphen
Encoding: 45 45 58
Width: 1037
VWidth: 2226
Flags: HMW
LayerCount: 2
Fore
SplineSet
159 362 m 2
 120 362 85 395 85 438 c 0
 85 476 115 508 154 512 c 0
 410 534 632 536 877 536 c 0
 918 536 952 502 952 461 c 0
 952 420 918 386 877 386 c 0
 632 386 416 384 166 362 c 1
 159 362 l 2
EndSplineSet
Colour: ffff
EndChar

StartChar: plus
Encoding: 43 43 59
Width: 1033
VWidth: 2426
Flags: HMW
LayerCount: 2
Fore
SplineSet
160 566 m 0
 121 566 85 597 85 641 c 0
 85 678 113 710 151 715 c 0
 248 727 342 734 435 738 c 1
 427 843 413 951 394 1037 c 0
 393 1042 392 1048 392 1053 c 0
 392 1091 422 1128 467 1128 c 0
 501 1128 532 1104 540 1069 c 0
 562 971 577 856 585 742 c 1
 596 742 607 742 618 742 c 0
 703 742 790 740 877 736 c 0
 917 734 948 701 948 662 c 0
 948 620 914 586 874 586 c 0
 788 586 702 592 618 592 c 0
 609 592 600 592 591 592 c 1
 591 566 l 2
 591 446 584 342 558 268 c 0
 548 237 518 218 487 218 c 0
 441 218 412 256 412 294 c 0
 412 302 413 310 416 318 c 0
 430 358 441 454 441 566 c 2
 441 588 l 1
 351 584 262 578 169 567 c 0
 166 567 163 566 160 566 c 0
EndSplineSet
Colour: ffff
EndChar

StartChar: exclam
Encoding: 33 33 60
Width: 583
VWidth: 0
Flags: HMW
LayerCount: 2
Fore
SplineSet
408 85 m 0
 408 37 371 -30 298 -30 c 0
 251 -30 175 0 175 84 c 0
 175 150 228 203 294 203 c 0
 366 203 408 140 408 85 c 0
175 1361 m 0
 175 1400 208 1436 251 1436 c 0
 287 1436 319 1408 324 1371 c 0
 361 1102 370 837 370 547 c 0
 370 508 370 465 369 422 c 0
 368 382 334 349 294 349 c 0
 252 349 219 383 219 424 c 0
 219 466 220 507 220 547 c 0
 220 835 211 1092 176 1351 c 0
 175 1355 175 1358 175 1361 c 0
EndSplineSet
Colour: ffff
EndChar

StartChar: quotesingle
Encoding: 39 39 62
Width: 331
VWidth: 2426
Flags: HMW
LayerCount: 2
Fore
SplineSet
210 905 m 0
 207 875 184 862 161 862 c 0
 136 862 110 879 110 909 c 0
 110 911 110 913 110 915 c 0
 117 977 121 1051 121 1126 c 0
 121 1203 117 1284 110 1356 c 1
 110 1361 l 2
 110 1392 135 1409 161 1409 c 0
 184 1409 207 1396 210 1366 c 0
 217 1290 221 1207 221 1126 c 0
 221 1047 217 971 210 905 c 0
EndSplineSet
Colour: ffff00
EndChar

StartChar: parenleft
Encoding: 40 40 63
Width: 636
VWidth: 1839
Flags: HMW
LayerCount: 2
Fore
SplineSet
375 1487 m 0
 420 1487 450 1450 450 1412 c 0
 450 1401 447 1390 442 1379 c 0
 318 1124 290 961 290 682 c 0
 290 412 361 250 489 -13 c 0
 494 -23 496 -34 496 -45 c 0
 496 -83 466 -121 421 -121 c 0
 393 -121 367 -105 354 -79 c 0
 226 184 140 382 140 682 c 0
 140 973 176 1174 308 1445 c 0
 321 1471 347 1487 375 1487 c 0
EndSplineSet
Colour: ffff
EndChar

StartChar: less
Encoding: 60 60 65
Width: 585
VWidth: 1839
Flags: HMW
LayerCount: 2
Fore
SplineSet
500 413 m 0
 500 375 469 338 425 338 c 0
 400 338 375 351 361 374 c 0
 291 490 207 588 111 672 c 0
 94 687 87 707 87 727 c 0
 87 751 97 774 112 787 c 0
 208 867 291 962 360 1082 c 0
 374 1106 400 1119 426 1119 c 0
 470 1119 500 1083 500 1045 c 0
 500 1032 497 1019 490 1008 c 0
 428 899 354 807 271 728 c 1
 353 647 426 555 489 452 c 0
 496 440 500 426 500 413 c 0
EndSplineSet
Colour: ffff
EndChar

StartChar: backslash
Encoding: 92 92 66
Width: 967
VWidth: 2426
Flags: HMW
LayerCount: 2
Fore
SplineSet
69 1316 m 0
 69 1355 101 1391 144 1391 c 0
 167 1391 190 1381 204 1361 c 0
 518 939 766 580 960 25 c 0
 963 17 964 8 964 0 c 0
 964 -37 935 -75 889 -75 c 0
 858 -75 829 -56 818 -25 c 0
 630 510 396 851 84 1271 c 0
 74 1284 69 1300 69 1316 c 0
EndSplineSet
Colour: ffff
EndChar

StartChar: asterisk
Encoding: 42 42 67
Width: 1108
VWidth: 1839
Flags: HMW
LayerCount: 2
Fore
SplineSet
442 1344 m 0
 442 1382 472 1420 516 1420 c 0
 552 1420 585 1394 591 1358 c 0
 610 1250 621 1144 626 1040 c 1
 722 1090 821 1133 922 1171 c 0
 930 1174 939 1175 947 1175 c 0
 984 1175 1022 1147 1022 1102 c 0
 1022 1072 1004 1042 974 1031 c 0
 881 996 791 957 703 912 c 1
 788 857 873 795 955 728 c 0
 973 713 982 692 982 670 c 0
 982 628 947 595 907 595 c 0
 890 595 873 601 859 612 c 0
 783 675 706 731 626 783 c 1
 621 677 608 574 591 470 c 0
 585 434 553 407 517 407 c 0
 473 407 442 444 442 482 c 0
 442 486 442 490 443 494 c 0
 459 589 470 684 475 779 c 1
 397 729 322 673 248 612 c 0
 234 601 217 595 200 595 c 0
 160 595 125 628 125 670 c 0
 125 692 134 713 152 728 c 0
 234 796 318 857 404 912 c 1
 316 957 227 996 134 1031 c 0
 104 1042 86 1072 86 1102 c 0
 86 1147 124 1175 161 1175 c 0
 169 1175 178 1174 186 1171 c 0
 284 1134 382 1092 476 1044 c 1
 471 1139 460 1234 443 1332 c 0
 442 1336 442 1340 442 1344 c 0
EndSplineSet
Colour: ffff
EndChar

StartChar: numbersign
Encoding: 35 35 68
Width: 1734
VWidth: 1823
Flags: HMW
LayerCount: 2
Fore
SplineSet
388 -75 m 0
 343 -75 313 -37 313 0 c 0
 313 7 314 14 316 21 c 2
 433 411 l 1
 157 421 l 2
 117 423 85 456 85 495 c 0
 85 537 119 571 159 571 c 2
 163 571 l 1
 477 559 l 1
 566 856 l 1
 254 847 l 1
 252 847 l 2
 211 847 177 880 177 922 c 0
 177 962 210 996 250 997 c 2
 611 1008 l 1
 723 1382 l 2
 733 1414 763 1436 795 1436 c 0
 840 1436 870 1398 870 1361 c 0
 870 1354 869 1347 867 1340 c 2
 769 1012 l 1
 1172 1024 l 1
 1239 1375 l 2
 1246 1410 1278 1436 1313 1436 c 0
 1357 1436 1388 1399 1388 1361 c 0
 1388 1356 1388 1352 1387 1347 c 2
 1326 1029 l 1
 1572 1036 l 1
 1574 1036 l 2
 1615 1036 1649 1003 1649 961 c 0
 1649 921 1616 887 1576 886 c 2
 1297 878 l 1
 1231 531 l 1
 1513 520 l 2
 1553 518 1585 485 1585 446 c 0
 1585 404 1551 370 1511 370 c 2
 1507 370 l 1
 1202 382 l 1
 1127 -14 l 2
 1120 -49 1088 -75 1053 -75 c 0
 1009 -75 978 -38 978 0 c 0
 978 5 978 9 979 14 c 2
 1051 387 l 1
 587 405 l 1
 460 -21 l 2
 450 -53 420 -75 388 -75 c 0
1143 873 m 1
 724 861 l 1
 632 553 l 1
 1079 536 l 1
 1143 873 l 1
EndSplineSet
Colour: ffff
EndChar

StartChar: percent
Encoding: 37 37 69
Width: 1348
VWidth: 1823
Flags: HMW
LayerCount: 2
Fore
SplineSet
85 1158 m 0
 85 1310 226 1406 367 1406 c 0
 520 1406 622 1292 622 1145 c 0
 622 1000 517 863 357 863 c 0
 193 863 85 1016 85 1158 c 0
235 1158 m 0
 235 1080 297 1013 357 1013 c 0
 421 1013 472 1066 472 1145 c 0
 472 1222 438 1256 367 1256 c 0
 284 1256 235 1202 235 1158 c 0
967 11 m 0
 816 11 718 152 718 293 c 0
 718 446 831 549 979 549 c 0
 1124 549 1263 444 1263 283 c 0
 1263 118 1109 11 967 11 c 0
967 161 m 0
 1045 161 1113 224 1113 283 c 0
 1113 346 1058 399 979 399 c 0
 903 399 868 364 868 293 c 0
 868 210 922 161 967 161 c 0
383 -75 m 0
 338 -75 308 -38 308 0 c 0
 308 6 309 12 310 18 c 0
 452 584 687 991 929 1399 c 0
 943 1422 968 1435 993 1435 c 0
 1037 1435 1068 1398 1068 1360 c 0
 1068 1347 1065 1334 1058 1323 c 0
 816 915 592 526 456 -18 c 0
 447 -52 417 -75 383 -75 c 0
EndSplineSet
Colour: ffff
EndChar

StartChar: slash
Encoding: 47 47 70
Width: 965
VWidth: 1839
Flags: HMW
LayerCount: 2
Fore
SplineSet
200 -75 m 0
 156 -75 125 -38 125 0 c 0
 125 13 129 27 136 39 c 0
 404 484 596 917 692 1376 c 0
 699 1411 730 1435 765 1435 c 0
 810 1435 840 1398 840 1360 c 0
 840 1355 840 1351 839 1346 c 0
 739 865 538 416 264 -39 c 0
 250 -62 225 -75 200 -75 c 0
EndSplineSet
Colour: ffff
EndChar

StartChar: equal
Encoding: 61 61 72
Width: 1037
VWidth: 1839
Flags: HMW
LayerCount: 2
Fore
SplineSet
85 471 m 0
 85 515 122 546 160 546 c 0
 165 546 169 546 174 545 c 0
 214 537 397 531 498 531 c 0
 603 531 743 536 871 546 c 1
 876 546 l 2
 916 546 952 515 952 472 c 0
 952 433 922 399 883 396 c 0
 751 386 607 381 498 381 c 0
 389 381 218 383 146 397 c 0
 111 404 85 436 85 471 c 0
85 874 m 0
 85 917 120 950 159 950 c 2
 166 950 l 1
 276 940 467 936 557 936 c 0
 665 936 780 942 871 950 c 1
 876 950 l 2
 916 950 952 918 952 874 c 0
 952 836 923 803 884 800 c 0
 789 792 671 786 557 786 c 0
 463 786 274 790 154 800 c 0
 115 804 85 836 85 874 c 0
EndSplineSet
Colour: ffff
EndChar

StartChar: AE
Encoding: 198 198 75
Width: 1909
VWidth: 2426
Flags: HMW
LayerCount: 2
Fore
SplineSet
645 776 m 1
 750 781 870 783 983 785 c 1
 985 900 986 1015 986 1119 c 0
 986 1163 986 1205 985 1245 c 1
 911 1246 838 1247 786 1248 c 1
 755 1100 706 938 645 776 c 1
1781 1449 m 0
 1819 1449 1857 1420 1857 1375 c 0
 1857 1341 1833 1309 1799 1301 c 0
 1627 1260 1446 1242 1258 1242 c 0
 1237 1242 1191 1242 1135 1243 c 1
 1135 1204 1136 1163 1136 1119 c 0
 1136 1015 1136 901 1134 786 c 1
 1141 786 1147 786 1153 786 c 0
 1355 786 1553 780 1703 768 c 0
 1742 765 1772 731 1772 692 c 0
 1772 649 1736 618 1696 618 c 2
 1691 618 l 1
 1547 630 1351 636 1153 636 c 0
 1145 636 1137 636 1129 636 c 1
 1123 477 1112 325 1091 203 c 0
 1088 190 1087 179 1087 173 c 0
 1087 127 1142 83 1285 75 c 0
 1411 67 1510 62 1636 62 c 2
 1698 62 l 2
 1719 62 1740 63 1761 63 c 0
 1801 63 1835 30 1835 -12 c 0
 1835 -51 1804 -85 1764 -87 c 0
 1741 -88 1719 -88 1698 -88 c 2
 1636 -88 l 2
 1506 -88 1401 -83 1275 -75 c 0
 1136 -67 937 -17 937 173 c 0
 937 193 939 212 943 231 c 0
 962 339 973 483 979 635 c 1
 843 633 695 628 583 622 c 1
 474 368 338 125 191 -48 c 0
 177 -65 155 -74 134 -74 c 0
 92 -74 60 -39 60 0 c 0
 60 17 65 34 77 48 c 0
 206 200 331 423 434 658 c 1
 429 668 426 679 426 691 c 0
 426 724 448 753 478 763 c 1
 558 964 620 1167 651 1339 c 0
 657 1370 687 1400 725 1400 c 0
 796 1400 1186 1392 1258 1392 c 0
 1436 1392 1605 1410 1765 1447 c 0
 1771 1448 1776 1449 1781 1449 c 0
EndSplineSet
Colour: ffff
EndChar

StartChar: cedilla
Encoding: 184 184 77
Width: 729
VWidth: 2426
Flags: HMW
LayerCount: 2
Fore
SplineSet
252 0 m 0
 252 42 288 75 327 75 c 0
 343 75 360 69 374 58 c 0
 470 -20 632 -193 632 -361 c 0
 632 -500 507 -576 319 -576 c 0
 251 -576 187 -566 140 -553 c 0
 107 -544 85 -513 85 -480 c 0
 85 -435 124 -406 162 -406 c 0
 168 -406 175 -407 181 -409 c 0
 212 -418 265 -426 319 -426 c 0
 483 -426 482 -382 482 -361 c 0
 482 -285 362 -124 280 -58 c 0
 262 -43 252 -22 252 0 c 0
EndSplineSet
Colour: ffff
EndChar

StartChar: Oslash
Encoding: 216 216 78
Width: 1485
VWidth: 1823
Flags: HMW
LayerCount: 2
Fore
SplineSet
170 -30 m 0
 127 -30 95 7 95 45 c 0
 95 59 99 74 108 87 c 0
 463 620 844 973 1284 1372 c 0
 1298 1384 1315 1391 1333 1391 c 0
 1373 1391 1409 1359 1409 1317 c 0
 1409 1296 1400 1275 1384 1260 c 0
 944 861 577 520 232 3 c 0
 218 -18 194 -30 170 -30 c 0
EndSplineSet
Refer: 27 79 N 1 0 0 1 0 0 2
Colour: ffff
EndChar

StartChar: uni0627
Encoding: 1575 1575 80
Width: 445
VWidth: 1839
Flags: HMW
AnchorPoint: "Anchor-3" 269 1459 basechar 0
AnchorPoint: "Anchor-1" 144 0 basechar 0
LayerCount: 2
Fore
SplineSet
125 1315 m 0
 125 1355 156 1391 199 1391 c 0
 236 1391 269 1364 274 1326 c 0
 307 1081 320 797 320 531 c 0
 320 364 313 163 299 -5 c 0
 296 -44 262 -74 223 -74 c 0
 180 -74 149 -38 149 2 c 2
 149 7 l 1
 163 169 170 368 170 531 c 0
 170 791 157 1071 126 1306 c 0
 126 1309 125 1312 125 1315 c 0
EndSplineSet
PairPos2: "'kern' Horizontal Kerning in Arabic lookup 2 per glyph data 0" uni063A dx=-267 dy=0 dh=-267 dv=0 dx=0 dy=0 dh=0 dv=0
PairPos2: "'kern' Horizontal Kerning in Arabic lookup 2 per glyph data 0" uni0639 dx=-267 dy=0 dh=-267 dv=0 dx=0 dy=0 dh=0 dv=0
Substitution2: "'fina' Terminal Forms in Arabic lookup 4 subtable" uniFE8E
PairPos2: "'kern' Horizontal Kerning in Arabic lookup 2 per glyph data 1" uni0639 dx=-200 dy=0 dh=-200 dv=0 dx=0 dy=0 dh=0 dv=0
PairPos2: "'kern' Horizontal Kerning in Arabic lookup 2 per glyph data 1" uni063A dx=-200 dy=0 dh=-200 dv=0 dx=0 dy=0 dh=0 dv=0
Colour: ffff
EndChar

StartChar: uni066E
Encoding: 1646 1646 81
Width: 1706
VWidth: 2370
Flags: HMW
AnchorPoint: "Anchor-3" 829 519 basechar 0
AnchorPoint: "Anchor-1" 794 0 basechar 0
LayerCount: 2
Fore
SplineSet
1373 643 m 0
 1373 685 1410 718 1448 718 c 0
 1464 718 1480 713 1493 703 c 0
 1582 636 1631 515 1631 400 c 0
 1631 13 1089 -30 821 -30 c 0
 537 -30 75 0 75 389 c 0
 75 462 93 557 143 625 c 0
 157 645 180 655 203 655 c 0
 246 655 278 619 278 580 c 0
 278 564 273 548 263 535 c 0
 245 511 225 436 225 389 c 0
 225 172 499 120 821 120 c 0
 1131 120 1481 197 1481 400 c 0
 1481 473 1442 554 1403 583 c 0
 1383 598 1373 620 1373 643 c 0
EndSplineSet
Substitution2: "'fina' Terminal Forms in Arabic lookup 4 subtable" uniFBE8
Colour: ffff
EndChar

StartChar: uni0631
Encoding: 1585 1585 82
Width: 885
VWidth: 2370
Flags: HMW
AnchorPoint: "Anchor-1" 505 -394 basechar 0
AnchorPoint: "Anchor-3" 648 624 basechar 0
LayerCount: 2
Fore
SplineSet
200 -532 m 0
 161 -532 125 -499 125 -456 c 0
 125 -420 153 -388 190 -383 c 0
 497 -340 660 -181 660 181 c 0
 660 291 641 409 604 498 c 0
 600 507 598 517 598 527 c 0
 598 564 628 602 673 602 c 0
 702 602 730 585 742 556 c 0
 789 443 810 307 810 181 c 0
 810 -247 581 -480 210 -531 c 0
 206 -532 203 -532 200 -532 c 0
EndSplineSet
PairPos2: "'kern' Horizontal Kerning in Arabic lookup 2 per glyph data 2" uniFBFE dx=-134 dy=0 dh=-134 dv=0 dx=0 dy=0 dh=0 dv=0
PairPos2: "'kern' Horizontal Kerning in Arabic lookup 2 per glyph data 2" uniFEF3 dx=-134 dy=0 dh=-134 dv=0 dx=0 dy=0 dh=0 dv=0
PairPos2: "'kern' Horizontal Kerning in Arabic lookup 2 per glyph data 2" uniFB58 dx=-134 dy=0 dh=-134 dv=0 dx=0 dy=0 dh=0 dv=0
Substitution2: "'fina' Terminal Forms in Arabic lookup 4 subtable" uniFEAE
PairPos2: "'kern' Horizontal Kerning in Arabic lookup 2 per glyph data 3" uni06A9 dx=-267 dy=0 dh=-267 dv=0 dx=0 dy=0 dh=0 dv=0
PairPos2: "'kern' Horizontal Kerning in Arabic lookup 2 per glyph data 3" uni06AF dx=-267 dy=0 dh=-267 dv=0 dx=0 dy=0 dh=0 dv=0
PairPos2: "'kern' Horizontal Kerning in Arabic lookup 2 per glyph data 3" uniFB90 dx=-267 dy=0 dh=-267 dv=0 dx=0 dy=0 dh=0 dv=0
PairPos2: "'kern' Horizontal Kerning in Arabic lookup 2 per glyph data 3" uniFB94 dx=-267 dy=0 dh=-267 dv=0 dx=0 dy=0 dh=0 dv=0
PairPos2: "'kern' Horizontal Kerning in Arabic lookup 2 per glyph data 3" uniFEDB dx=-267 dy=0 dh=-267 dv=0 dx=0 dy=0 dh=0 dv=0
PairPos2: "'kern' Horizontal Kerning in Arabic lookup 2 per glyph data 2" uni0622 dx=-267 dy=0 dh=-267 dv=0 dx=0 dy=0 dh=0 dv=0
PairPos2: "'kern' Horizontal Kerning in Arabic lookup 2 per glyph data 2" uni0623 dx=-267 dy=0 dh=-267 dv=0 dx=0 dy=0 dh=0 dv=0
PairPos2: "'kern' Horizontal Kerning in Arabic lookup 2 per glyph data 2" uni0624 dx=-233 dy=0 dh=-233 dv=0 dx=0 dy=0 dh=0 dv=0
PairPos2: "'kern' Horizontal Kerning in Arabic lookup 2 per glyph data 2" uni0627 dx=-267 dy=0 dh=-267 dv=0 dx=0 dy=0 dh=0 dv=0
PairPos2: "'kern' Horizontal Kerning in Arabic lookup 2 per glyph data 2" uni0628 dx=-334 dy=0 dh=-334 dv=0 dx=0 dy=0 dh=0 dv=0
PairPos2: "'kern' Horizontal Kerning in Arabic lookup 2 per glyph data 2" uni0629 dx=-334 dy=0 dh=-334 dv=0 dx=0 dy=0 dh=0 dv=0
PairPos2: "'kern' Horizontal Kerning in Arabic lookup 2 per glyph data 2" uni062A dx=-334 dy=0 dh=-334 dv=0 dx=0 dy=0 dh=0 dv=0
PairPos2: "'kern' Horizontal Kerning in Arabic lookup 2 per glyph data 2" uni062B dx=-334 dy=0 dh=-334 dv=0 dx=0 dy=0 dh=0 dv=0
PairPos2: "'kern' Horizontal Kerning in Arabic lookup 2 per glyph data 2" uni062C dx=-111 dy=0 dh=-111 dv=0 dx=0 dy=0 dh=0 dv=0
PairPos2: "'kern' Horizontal Kerning in Arabic lookup 2 per glyph data 2" uni062D dx=-111 dy=0 dh=-111 dv=0 dx=0 dy=0 dh=0 dv=0
PairPos2: "'kern' Horizontal Kerning in Arabic lookup 2 per glyph data 2" uni062E dx=-111 dy=0 dh=-111 dv=0 dx=0 dy=0 dh=0 dv=0
PairPos2: "'kern' Horizontal Kerning in Arabic lookup 2 per glyph data 2" uni062F dx=-334 dy=0 dh=-334 dv=0 dx=0 dy=0 dh=0 dv=0
PairPos2: "'kern' Horizontal Kerning in Arabic lookup 2 per glyph data 2" uni0630 dx=-334 dy=0 dh=-334 dv=0 dx=0 dy=0 dh=0 dv=0
PairPos2: "'kern' Horizontal Kerning in Arabic lookup 2 per glyph data 2" uni0631 dx=-233 dy=0 dh=-233 dv=0 dx=0 dy=0 dh=0 dv=0
PairPos2: "'kern' Horizontal Kerning in Arabic lookup 2 per glyph data 2" uni0632 dx=-233 dy=0 dh=-233 dv=0 dx=0 dy=0 dh=0 dv=0
PairPos2: "'kern' Horizontal Kerning in Arabic lookup 2 per glyph data 2" uni0633 dx=-334 dy=0 dh=-334 dv=0 dx=0 dy=0 dh=0 dv=0
PairPos2: "'kern' Horizontal Kerning in Arabic lookup 2 per glyph data 2" uni0634 dx=-334 dy=0 dh=-334 dv=0 dx=0 dy=0 dh=0 dv=0
PairPos2: "'kern' Horizontal Kerning in Arabic lookup 2 per glyph data 2" uni0635 dx=-334 dy=0 dh=-334 dv=0 dx=0 dy=0 dh=0 dv=0
PairPos2: "'kern' Horizontal Kerning in Arabic lookup 2 per glyph data 2" uni0636 dx=-334 dy=0 dh=-334 dv=0 dx=0 dy=0 dh=0 dv=0
PairPos2: "'kern' Horizontal Kerning in Arabic lookup 2 per glyph data 2" uni0637 dx=-334 dy=0 dh=-334 dv=0 dx=0 dy=0 dh=0 dv=0
PairPos2: "'kern' Horizontal Kerning in Arabic lookup 2 per glyph data 2" uni0638 dx=-334 dy=0 dh=-334 dv=0 dx=0 dy=0 dh=0 dv=0
PairPos2: "'kern' Horizontal Kerning in Arabic lookup 2 per glyph data 2" uni0641 dx=-334 dy=0 dh=-334 dv=0 dx=0 dy=0 dh=0 dv=0
PairPos2: "'kern' Horizontal Kerning in Arabic lookup 2 per glyph data 2" uni0642 dx=-134 dy=0 dh=-134 dv=0 dx=0 dy=0 dh=0 dv=0
PairPos2: "'kern' Horizontal Kerning in Arabic lookup 2 per glyph data 2" uni0643 dx=-334 dy=0 dh=-334 dv=0 dx=0 dy=0 dh=0 dv=0
PairPos2: "'kern' Horizontal Kerning in Arabic lookup 2 per glyph data 2" uni0644 dx=-100 dy=0 dh=-100 dv=0 dx=0 dy=0 dh=0 dv=0
PairPos2: "'kern' Horizontal Kerning in Arabic lookup 2 per glyph data 2" uni0645 dx=-334 dy=0 dh=-334 dv=0 dx=0 dy=0 dh=0 dv=0
PairPos2: "'kern' Horizontal Kerning in Arabic lookup 2 per glyph data 2" uni0646 dx=-134 dy=0 dh=-134 dv=0 dx=0 dy=0 dh=0 dv=0
PairPos2: "'kern' Horizontal Kerning in Arabic lookup 2 per glyph data 2" uni0647 dx=-334 dy=0 dh=-334 dv=0 dx=0 dy=0 dh=0 dv=0
PairPos2: "'kern' Horizontal Kerning in Arabic lookup 2 per glyph data 2" uni0648 dx=-233 dy=0 dh=-233 dv=0 dx=0 dy=0 dh=0 dv=0
PairPos2: "'kern' Horizontal Kerning in Arabic lookup 2 per glyph data 2" uni067E dx=-334 dy=0 dh=-334 dv=0 dx=0 dy=0 dh=0 dv=0
PairPos2: "'kern' Horizontal Kerning in Arabic lookup 2 per glyph data 2" uni0686 dx=-111 dy=0 dh=-111 dv=0 dx=0 dy=0 dh=0 dv=0
PairPos2: "'kern' Horizontal Kerning in Arabic lookup 2 per glyph data 2" uni0698 dx=-233 dy=0 dh=-233 dv=0 dx=0 dy=0 dh=0 dv=0
PairPos2: "'kern' Horizontal Kerning in Arabic lookup 2 per glyph data 2" uni06A9 dx=-601 dy=0 dh=-601 dv=0 dx=0 dy=0 dh=0 dv=0
PairPos2: "'kern' Horizontal Kerning in Arabic lookup 2 per glyph data 2" uni06AF dx=-601 dy=0 dh=-601 dv=0 dx=0 dy=0 dh=0 dv=0
PairPos2: "'kern' Horizontal Kerning in Arabic lookup 2 per glyph data 2" uni06C0 dx=-334 dy=0 dh=-334 dv=0 dx=0 dy=0 dh=0 dv=0
PairPos2: "'kern' Horizontal Kerning in Arabic lookup 2 per glyph data 2" uni06CA dx=-233 dy=0 dh=-233 dv=0 dx=0 dy=0 dh=0 dv=0
PairPos2: "'kern' Horizontal Kerning in Arabic lookup 2 per glyph data 2" uniFB7C dx=-334 dy=0 dh=-334 dv=0 dx=0 dy=0 dh=0 dv=0
PairPos2: "'kern' Horizontal Kerning in Arabic lookup 2 per glyph data 2" uniFB90 dx=-601 dy=0 dh=-601 dv=0 dx=0 dy=0 dh=0 dv=0
PairPos2: "'kern' Horizontal Kerning in Arabic lookup 2 per glyph data 2" uniFB94 dx=-601 dy=0 dh=-601 dv=0 dx=0 dy=0 dh=0 dv=0
PairPos2: "'kern' Horizontal Kerning in Arabic lookup 2 per glyph data 2" uniFE8B dx=-334 dy=0 dh=-334 dv=0 dx=0 dy=0 dh=0 dv=0
PairPos2: "'kern' Horizontal Kerning in Arabic lookup 2 per glyph data 2" uniFE91 dx=-334 dy=0 dh=-334 dv=0 dx=0 dy=0 dh=0 dv=0
PairPos2: "'kern' Horizontal Kerning in Arabic lookup 2 per glyph data 2" uniFE97 dx=-334 dy=0 dh=-334 dv=0 dx=0 dy=0 dh=0 dv=0
PairPos2: "'kern' Horizontal Kerning in Arabic lookup 2 per glyph data 2" uniFE9B dx=-334 dy=0 dh=-334 dv=0 dx=0 dy=0 dh=0 dv=0
PairPos2: "'kern' Horizontal Kerning in Arabic lookup 2 per glyph data 2" uniFE9F dx=-334 dy=0 dh=-334 dv=0 dx=0 dy=0 dh=0 dv=0
PairPos2: "'kern' Horizontal Kerning in Arabic lookup 2 per glyph data 2" uniFEA3 dx=-334 dy=0 dh=-334 dv=0 dx=0 dy=0 dh=0 dv=0
PairPos2: "'kern' Horizontal Kerning in Arabic lookup 2 per glyph data 2" uniFEA7 dx=-334 dy=0 dh=-334 dv=0 dx=0 dy=0 dh=0 dv=0
PairPos2: "'kern' Horizontal Kerning in Arabic lookup 2 per glyph data 2" uniFEB3 dx=-334 dy=0 dh=-334 dv=0 dx=0 dy=0 dh=0 dv=0
PairPos2: "'kern' Horizontal Kerning in Arabic lookup 2 per glyph data 2" uniFEB7 dx=-334 dy=0 dh=-334 dv=0 dx=0 dy=0 dh=0 dv=0
PairPos2: "'kern' Horizontal Kerning in Arabic lookup 2 per glyph data 2" uniFEBB dx=-334 dy=0 dh=-334 dv=0 dx=0 dy=0 dh=0 dv=0
PairPos2: "'kern' Horizontal Kerning in Arabic lookup 2 per glyph data 2" uniFEBF dx=-334 dy=0 dh=-334 dv=0 dx=0 dy=0 dh=0 dv=0
PairPos2: "'kern' Horizontal Kerning in Arabic lookup 2 per glyph data 2" uniFEC3 dx=-334 dy=0 dh=-334 dv=0 dx=0 dy=0 dh=0 dv=0
PairPos2: "'kern' Horizontal Kerning in Arabic lookup 2 per glyph data 2" uniFEC7 dx=-334 dy=0 dh=-334 dv=0 dx=0 dy=0 dh=0 dv=0
PairPos2: "'kern' Horizontal Kerning in Arabic lookup 2 per glyph data 2" uniFECB dx=-334 dy=0 dh=-334 dv=0 dx=0 dy=0 dh=0 dv=0
PairPos2: "'kern' Horizontal Kerning in Arabic lookup 2 per glyph data 2" uniFECF dx=-334 dy=0 dh=-334 dv=0 dx=0 dy=0 dh=0 dv=0
PairPos2: "'kern' Horizontal Kerning in Arabic lookup 2 per glyph data 2" uniFED3 dx=-334 dy=0 dh=-334 dv=0 dx=0 dy=0 dh=0 dv=0
PairPos2: "'kern' Horizontal Kerning in Arabic lookup 2 per glyph data 2" uniFED7 dx=-334 dy=0 dh=-334 dv=0 dx=0 dy=0 dh=0 dv=0
PairPos2: "'kern' Horizontal Kerning in Arabic lookup 2 per glyph data 2" uniFEDB dx=-601 dy=0 dh=-601 dv=0 dx=0 dy=0 dh=0 dv=0
PairPos2: "'kern' Horizontal Kerning in Arabic lookup 2 per glyph data 2" uniFEDF dx=-334 dy=0 dh=-334 dv=0 dx=0 dy=0 dh=0 dv=0
PairPos2: "'kern' Horizontal Kerning in Arabic lookup 2 per glyph data 2" uniFEE3 dx=-334 dy=0 dh=-334 dv=0 dx=0 dy=0 dh=0 dv=0
PairPos2: "'kern' Horizontal Kerning in Arabic lookup 2 per glyph data 2" uniFEE7 dx=-334 dy=0 dh=-334 dv=0 dx=0 dy=0 dh=0 dv=0
PairPos2: "'kern' Horizontal Kerning in Arabic lookup 2 per glyph data 2" uniFEEB dx=-334 dy=0 dh=-334 dv=0 dx=0 dy=0 dh=0 dv=0
PairPos2: "'kern' Horizontal Kerning in Arabic lookup 2 per glyph data 2" uniFEF5 dx=-334 dy=0 dh=-334 dv=0 dx=0 dy=0 dh=0 dv=0
PairPos2: "'kern' Horizontal Kerning in Arabic lookup 2 per glyph data 2" uniFEF7 dx=-334 dy=0 dh=-334 dv=0 dx=0 dy=0 dh=0 dv=0
PairPos2: "'kern' Horizontal Kerning in Arabic lookup 2 per glyph data 2" uniFEF9 dx=-334 dy=0 dh=-334 dv=0 dx=0 dy=0 dh=0 dv=0
PairPos2: "'kern' Horizontal Kerning in Arabic lookup 2 per glyph data 2" uniFEFB dx=-334 dy=0 dh=-334 dv=0 dx=0 dy=0 dh=0 dv=0
PairPos2: "'kern' Horizontal Kerning in Arabic lookup 2 per glyph data 1" uni0639 dx=-134 dy=0 dh=-134 dv=0 dx=0 dy=0 dh=0 dv=0
PairPos2: "'kern' Horizontal Kerning in Arabic lookup 2 per glyph data 1" uni063A dx=-134 dy=0 dh=-134 dv=0 dx=0 dy=0 dh=0 dv=0
Colour: ffff
EndChar

StartChar: uni0633
Encoding: 1587 1587 83
Width: 2426
VWidth: 2315
Flags: HMW
AnchorPoint: "Anchor-1" 720 -526 basechar 0
AnchorPoint: "Anchor-3" 1751 565 basechar 0
LayerCount: 2
Fore
SplineSet
2121 680 m 0
 2121 718 2151 756 2195 756 c 0
 2220 756 2244 744 2259 722 c 0
 2323 625 2351 490 2351 359 c 0
 2351 173 2273 -70 2051 -70 c 0
 1953 -70 1863 -10 1809 86 c 1
 1753 -8 1665 -71 1553 -71 c 0
 1486 -71 1422 -51 1370 -10 c 1
 1337 -355 1029 -562 689 -562 c 0
 405 -562 75 -410 75 -68 c 0
 75 216 289 432 451 524 c 0
 463 531 475 534 488 534 c 0
 526 534 563 503 563 459 c 0
 563 433 549 407 525 394 c 0
 393 320 225 136 225 -68 c 0
 225 -286 439 -412 689 -412 c 0
 991 -412 1223 -227 1223 50 c 0
 1223 132 1207 221 1189 299 c 1
 1176 337 1163 378 1150 422 c 0
 1148 429 1147 435 1147 442 c 0
 1147 479 1176 518 1220 518 c 0
 1252 518 1280 496 1290 475 c 0
 1308 436 1321 390 1333 341 c 1
 1355 279 1378 228 1399 190 c 0
 1449 102 1488 79 1553 79 c 0
 1645 79 1723 171 1762 437 c 0
 1767 473 1799 501 1836 501 c 0
 1878 501 1911 465 1911 426 c 0
 1911 390 1903 354 1903 326 c 0
 1903 140 1997 80 2051 80 c 0
 2129 80 2201 183 2201 359 c 0
 2201 468 2173 579 2133 640 c 0
 2125 652 2121 666 2121 680 c 0
EndSplineSet
Substitution2: "'init' Initial Forms in Arabic lookup 6 subtable" uniFEB3
Substitution2: "'medi' Medial Forms in Arabic lookup 5 subtable" uniFEB4
Substitution2: "'fina' Terminal Forms in Arabic lookup 4 subtable" uniFEB2
Colour: ffff
EndChar

StartChar: uni066F
Encoding: 1647 1647 84
Width: 1441
VWidth: 2370
Flags: HMW
AnchorPoint: "Anchor-1" 720 -526 basechar 0
AnchorPoint: "Anchor-3" 997 823 basechar 0
LayerCount: 2
Fore
SplineSet
1213 134 m 1
 1206 368 1139 568 1008 568 c 0
 907 568 808 434 808 293 c 0
 808 169 898 96 1046 96 c 0
 1112 96 1163 111 1213 134 c 1
1008 718 m 0
 1325 718 1366 300 1366 88 c 0
 1366 72 1363 57 1362 41 c 0
 1340 -319 1071 -561 705 -561 c 0
 396 -561 75 -366 75 -28 c 0
 75 188 172 372 292 489 c 0
 306 503 324 509 343 509 c 0
 383 509 419 477 419 436 c 0
 419 416 411 395 396 381 c 0
 302 290 225 142 225 -28 c 0
 225 -252 444 -411 705 -411 c 0
 972 -411 1155 -264 1202 -31 c 1
 1156 -45 1104 -54 1046 -54 c 0
 844 -54 658 67 658 293 c 0
 658 478 781 718 1008 718 c 0
EndSplineSet
Substitution2: "'fina' Terminal Forms in Arabic lookup 4 subtable" uniE005
Colour: ffff
EndChar

StartChar: uni06BA
Encoding: 1722 1722 85
Width: 1453
VWidth: 2370
Flags: HMW
AnchorPoint: "Anchor-3" 735 443 basechar 0
AnchorPoint: "Anchor-1" 735 -526 basechar 0
LayerCount: 2
Fore
SplineSet
1106 457 m 0
 1106 495 1137 532 1181 532 c 0
 1207 532 1233 518 1246 494 c 0
 1333 341 1378 165 1378 -1 c 0
 1378 -384 1040 -556 732 -556 c 0
 314 -556 75 -325 75 -37 c 0
 75 170 146 327 269 511 c 0
 283 532 307 544 331 544 c 0
 374 544 406 507 406 469 c 0
 406 455 402 440 393 427 c 0
 276 253 225 134 225 -37 c 0
 225 -225 370 -406 732 -406 c 0
 998 -406 1228 -270 1228 -1 c 0
 1228 139 1189 291 1116 420 c 0
 1109 432 1106 444 1106 457 c 0
EndSplineSet
Colour: ffff
EndChar

StartChar: uni06A1
Encoding: 1697 1697 86
Width: 1699
VWidth: 2370
Flags: HMW
AnchorPoint: "Anchor-1" 801 0 basechar 0
AnchorPoint: "Anchor-3" 1288 1201 basechar 0
LayerCount: 2
Fore
SplineSet
1472 534 m 1
 1456 763 1366 961 1231 961 c 0
 1130 961 1046 837 1046 687 c 0
 1046 558 1120 492 1263 492 c 0
 1341 492 1411 509 1472 534 c 1
203 626 m 0
 245 626 276 589 276 551 c 0
 276 536 271 521 262 508 c 0
 237 473 225 432 225 386 c 0
 225 171 488 120 806 120 c 0
 1111 120 1399 183 1460 371 c 1
 1400 353 1334 342 1263 342 c 0
 1058 342 896 468 896 687 c 0
 896 869 1000 1111 1231 1111 c 0
 1552 1111 1624 691 1624 467 c 0
 1624 31 1135 -30 806 -30 c 0
 524 -30 75 1 75 386 c 0
 75 460 96 533 140 594 c 0
 155 614 179 626 203 626 c 0
EndSplineSet
Substitution2: "'medi' Medial Forms in Arabic lookup 5 subtable" uniE006
Substitution2: "'fina' Terminal Forms in Arabic lookup 4 subtable" uniE005
Colour: ffff
EndChar

StartChar: uni0644
Encoding: 1604 1604 87
Width: 1356
VWidth: 2370
Flags: HMW
AnchorPoint: "Anchor-3" 665 420 basechar 0
AnchorPoint: "Anchor-1" 698 -526 basechar 0
LayerCount: 2
Fore
SplineSet
1079 1360 m 2
 1079 1400 1110 1436 1153 1436 c 0
 1192 1436 1226 1406 1229 1367 c 0
 1255 1059 1281 529 1281 206 c 0
 1281 -188 1073 -502 655 -502 c 0
 367 -502 75 -330 75 25 c 0
 75 210 174 415 324 500 c 0
 336 507 348 510 361 510 c 0
 399 510 436 479 436 435 c 0
 436 409 422 383 398 370 c 0
 312 321 225 162 225 25 c 0
 225 -226 419 -352 655 -352 c 0
 975 -352 1131 -138 1131 206 c 0
 1131 521 1105 1053 1079 1355 c 1
 1079 1360 l 2
EndSplineSet
Substitution2: "'init' Initial Forms in Arabic lookup 6 subtable" uniFEDF
Substitution2: "'medi' Medial Forms in Arabic lookup 5 subtable" uniFEE0
Substitution2: "'fina' Terminal Forms in Arabic lookup 4 subtable" uniFEDE
Colour: ffff
EndChar

StartChar: uni0645
Encoding: 1605 1605 88
Width: 1201
VWidth: 2370
Flags: HMW
AnchorPoint: "Anchor-3" 737 753 basechar 0
AnchorPoint: "Anchor-1" 654 -170 basechar 0
LayerCount: 2
Fore
SplineSet
506 150 m 1
 581 139 676 120 747 120 c 0
 898 120 976 176 976 297 c 0
 976 456 897 560 768 560 c 0
 598 560 503 421 503 207 c 0
 503 188 504 169 506 150 c 1
441 7 m 0
 439 7 437 7 435 7 c 0
 412 7 385 12 363 12 c 0
 269 12 225 3 225 -144 c 2
 225 -167 l 1
 255 -901 l 2
 257 -943 222 -979 179 -979 c 0
 140 -979 107 -947 105 -907 c 2
 75 -171 l 1
 75 -144 l 2
 75 76 207 160 354 162 c 1
 353 177 353 192 353 207 c 0
 353 459 484 710 768 710 c 0
 1005 710 1126 504 1126 297 c 0
 1126 68 938 -30 747 -30 c 0
 646 -30 537 -4 441 7 c 0
EndSplineSet
Substitution2: "'init' Initial Forms in Arabic lookup 6 subtable" uniFEE3
Substitution2: "'medi' Medial Forms in Arabic lookup 5 subtable" uniFEE4
Substitution2: "'fina' Terminal Forms in Arabic lookup 4 subtable" uniFEE2
Colour: ffff
EndChar

StartChar: uni0635
Encoding: 1589 1589 89
Width: 2493
VWidth: 2315
Flags: HMW
AnchorPoint: "Anchor-1" 720 -526 basechar 0
AnchorPoint: "Anchor-3" 1997 811 basechar 0
LayerCount: 2
Fore
SplineSet
1511 145 m 1
 1579 113 1662 94 1775 94 c 0
 2011 94 2268 209 2268 372 c 0
 2268 466 2188 539 2071 539 c 0
 1864 539 1690 390 1569 182 c 0
 1557 161 1535 147 1511 145 c 1
1154 303 m 0
 1154 342 1184 379 1228 379 c 0
 1252 379 1275 369 1290 348 c 0
 1335 284 1381 231 1435 191 c 1
 1431 201 1429 211 1429 221 c 0
 1429 234 1432 247 1439 258 c 0
 1572 487 1785 689 2071 689 c 0
 2250 689 2418 566 2418 372 c 0
 2418 51 2013 -56 1775 -56 c 0
 1607 -56 1477 -17 1373 51 c 1
 1373 -329 1050 -562 689 -562 c 0
 405 -562 75 -410 75 -68 c 0
 75 274 427 447 629 529 c 0
 638 532 647 534 656 534 c 0
 694 534 732 506 732 460 c 0
 732 430 714 401 685 389 c 0
 477 305 225 156 225 -68 c 0
 225 -286 439 -412 689 -412 c 0
 992 -412 1223 -228 1223 50 c 0
 1223 125 1201 201 1163 267 c 0
 1158 276 1154 289 1154 303 c 0
EndSplineSet
Substitution2: "'init' Initial Forms in Arabic lookup 6 subtable" uniFEBB
Substitution2: "'medi' Medial Forms in Arabic lookup 5 subtable" uniFEBC
Substitution2: "'fina' Terminal Forms in Arabic lookup 4 subtable" uniFEBA
Colour: ffff
EndChar

StartChar: uni0648
Encoding: 1608 1608 90
Width: 857
VWidth: 2370
Flags: HMW
AnchorPoint: "Anchor-1" 458 -408 basechar 0
AnchorPoint: "Anchor-3" 504 811 basechar 0
LayerCount: 2
Fore
SplineSet
622 150 m 1
 622 169 l 2
 622 392 559 601 438 601 c 0
 366 601 258 479 258 290 c 0
 258 169 325 121 454 121 c 0
 505 121 563 131 622 150 c 1
121 -532 m 0
 83 -532 45 -502 45 -458 c 0
 45 -422 72 -389 108 -383 c 0
 371 -338 540 -222 599 -12 c 1
 550 -23 501 -29 454 -29 c 0
 275 -29 108 71 108 290 c 0
 108 507 228 751 438 751 c 0
 737 751 772 358 772 169 c 0
 772 -261 497 -469 133 -531 c 0
 129 -532 125 -532 121 -532 c 0
EndSplineSet
PairPos2: "'kern' Horizontal Kerning in Arabic lookup 2 per glyph data 4" uni063A dx=178 dy=0 dh=178 dv=0 dx=0 dy=0 dh=0 dv=0
PairPos2: "'kern' Horizontal Kerning in Arabic lookup 2 per glyph data 4" uni0639 dx=178 dy=0 dh=178 dv=0 dx=0 dy=0 dh=0 dv=0
PairPos2: "'kern' Horizontal Kerning in Arabic lookup 2 per glyph data 4" uni0625 dx=223 dy=0 dh=223 dv=0 dx=0 dy=0 dh=0 dv=0
PairPos2: "'kern' Horizontal Kerning in Arabic lookup 2 per glyph data 4" uni06CC dx=89 dy=0 dh=89 dv=0 dx=0 dy=0 dh=0 dv=0
PairPos2: "'kern' Horizontal Kerning in Arabic lookup 2 per glyph data 4" uni0626 dx=89 dy=0 dh=89 dv=0 dx=0 dy=0 dh=0 dv=0
PairPos2: "'kern' Horizontal Kerning in Arabic lookup 2 per glyph data 4" uni064A dx=89 dy=0 dh=89 dv=0 dx=0 dy=0 dh=0 dv=0
PairPos2: "'kern' Horizontal Kerning in Arabic lookup 2 per glyph data 4" uni0649 dx=89 dy=0 dh=89 dv=0 dx=0 dy=0 dh=0 dv=0
Substitution2: "'fina' Terminal Forms in Arabic lookup 4 subtable" uniFEEE
PairPos2: "'kern' Horizontal Kerning in Arabic lookup 2 per glyph data 3" uni06A9 dx=-233 dy=0 dh=-233 dv=0 dx=0 dy=0 dh=0 dv=0
PairPos2: "'kern' Horizontal Kerning in Arabic lookup 2 per glyph data 3" uni06AF dx=-233 dy=0 dh=-233 dv=0 dx=0 dy=0 dh=0 dv=0
PairPos2: "'kern' Horizontal Kerning in Arabic lookup 2 per glyph data 3" uniFB90 dx=-233 dy=0 dh=-233 dv=0 dx=0 dy=0 dh=0 dv=0
PairPos2: "'kern' Horizontal Kerning in Arabic lookup 2 per glyph data 3" uniFB94 dx=-233 dy=0 dh=-233 dv=0 dx=0 dy=0 dh=0 dv=0
PairPos2: "'kern' Horizontal Kerning in Arabic lookup 2 per glyph data 3" uniFEDB dx=-233 dy=0 dh=-233 dv=0 dx=0 dy=0 dh=0 dv=0
Colour: ffff
EndChar

StartChar: uni0637
Encoding: 1591 1591 91
Width: 1491
VWidth: 2370
Flags: HMW
AnchorPoint: "Anchor-3" 1125 811 basechar 0
AnchorPoint: "Anchor-1" 387 0 basechar 0
LayerCount: 2
Fore
SplineSet
512 133 m 1
 578 126 645 123 713 123 c 0
 962 123 1266 281 1266 469 c 0
 1266 571 1184 648 1067 648 c 0
 846 648 623 393 512 133 c 1
378 -120 m 0
 325 -120 306 -80 306 -42 c 0
 306 -25 309 -7 312 11 c 1
 251 23 190 37 130 53 c 0
 97 62 75 92 75 125 c 0
 75 170 113 200 150 200 c 0
 157 200 163 199 170 197 c 0
 225 182 279 170 334 159 c 1
 353 322 360 503 360 677 c 0
 360 944 344 1198 334 1356 c 1
 334 1361 l 2
 334 1401 366 1435 409 1435 c 0
 448 1435 481 1405 484 1366 c 0
 495 1207 511 956 511 685 c 0
 511 602 510 517 506 432 c 1
 638 623 831 798 1067 798 c 0
 1252 798 1416 665 1416 469 c 0
 1416 131 980 -27 713 -27 c 0
 628 -27 544 -22 462 -12 c 1
 458 -28 455 -44 452 -60 c 0
 445 -95 413 -120 378 -120 c 0
EndSplineSet
Substitution2: "'init' Initial Forms in Arabic lookup 6 subtable" uniFEC3
Substitution2: "'medi' Medial Forms in Arabic lookup 5 subtable" uniFEC4
Substitution2: "'fina' Terminal Forms in Arabic lookup 4 subtable" uniFEC2
Colour: ffff
EndChar

StartChar: uni06A9
Encoding: 1705 1705 92
Width: 1932
VWidth: 2370
Flags: HMW
AnchorPoint: "Anchor-3" 1331 1342 basechar 0
AnchorPoint: "Anchor-1" 752 0 basechar 0
LayerCount: 2
Fore
SplineSet
1781 1477 m 0
 1818 1477 1857 1447 1857 1403 c 0
 1857 1376 1843 1350 1818 1336 c 2
 1094 935 l 1
 1247 781 1404 565 1404 345 c 0
 1404 58 1062 -30 760 -30 c 0
 492 -30 75 13 75 405 c 0
 75 452 82 501 95 554 c 0
 104 588 134 611 168 611 c 0
 213 611 243 574 243 536 c 0
 243 530 242 524 241 518 c 0
 230 475 225 436 225 405 c 0
 225 171 468 120 760 120 c 0
 1074 120 1254 218 1254 345 c 0
 1254 519 1082 752 919 894 c 0
 903 908 894 929 894 951 c 0
 894 977 906 1003 932 1017 c 2
 1746 1468 l 2
 1757 1474 1769 1477 1781 1477 c 0
EndSplineSet
Substitution2: "'init' Initial Forms in Arabic lookup 6 subtable" uniFB90
Substitution2: "'medi' Medial Forms in Arabic lookup 5 subtable" uniFB91
Substitution2: "'fina' Terminal Forms in Arabic lookup 4 subtable" uniFB8F
Colour: ffff
EndChar

StartChar: uni062F
Encoding: 1583 1583 93
Width: 880
VWidth: 2370
Flags: HMW
AnchorPoint: "Anchor-3" 483 1006 basechar 0
AnchorPoint: "Anchor-1" 367 0 basechar 0
LayerCount: 2
Fore
SplineSet
290 788 m 0
 290 833 328 862 366 862 c 0
 376 862 386 860 395 856 c 0
 568 781 805 558 805 299 c 0
 805 78 601 -30 387 -30 c 0
 306 -30 217 -17 126 14 c 0
 95 24 75 54 75 85 c 0
 75 131 112 160 150 160 c 0
 158 160 166 159 174 156 c 0
 249 131 322 120 387 120 c 0
 567 120 655 196 655 299 c 0
 655 466 470 659 335 718 c 0
 307 730 290 759 290 788 c 0
EndSplineSet
Substitution2: "'fina' Terminal Forms in Arabic lookup 4 subtable" uniFEAA
PairPos2: "'kern' Horizontal Kerning in Arabic lookup 2 per glyph data 3" uni06A9 dx=-267 dy=0 dh=-267 dv=0 dx=0 dy=0 dh=0 dv=0
PairPos2: "'kern' Horizontal Kerning in Arabic lookup 2 per glyph data 3" uni06AF dx=-267 dy=0 dh=-267 dv=0 dx=0 dy=0 dh=0 dv=0
PairPos2: "'kern' Horizontal Kerning in Arabic lookup 2 per glyph data 3" uniFB90 dx=-267 dy=0 dh=-267 dv=0 dx=0 dy=0 dh=0 dv=0
PairPos2: "'kern' Horizontal Kerning in Arabic lookup 2 per glyph data 3" uniFB94 dx=-267 dy=0 dh=-267 dv=0 dx=0 dy=0 dh=0 dv=0
PairPos2: "'kern' Horizontal Kerning in Arabic lookup 2 per glyph data 3" uniFEDB dx=-267 dy=0 dh=-267 dv=0 dx=0 dy=0 dh=0 dv=0
PairPos2: "'kern' Horizontal Kerning in Arabic lookup 2 per glyph data 1" uni0639 dx=-334 dy=0 dh=-334 dv=0 dx=0 dy=0 dh=0 dv=0
PairPos2: "'kern' Horizontal Kerning in Arabic lookup 2 per glyph data 1" uni063A dx=-334 dy=0 dh=-334 dv=0 dx=0 dy=0 dh=0 dv=0
Colour: ffff
EndChar

StartChar: uni062D
Encoding: 1581 1581 94
Width: 1232
VWidth: 2370
Flags: HMW
AnchorPoint: "Anchor-3" 434 811 basechar 0
AnchorPoint: "Anchor-1" 699 -744 basechar 0
LayerCount: 2
Fore
SplineSet
1077 -452 m 0
 1115 -452 1152 -481 1152 -525 c 0
 1152 -552 1138 -579 1113 -592 c 0
 981 -662 832 -698 683 -698 c 0
 406 -698 75 -565 75 -231 c 0
 75 201 566 427 843 521 c 1
 687 601 530 690 423 690 c 0
 354 690 293 664 242 518 c 0
 232 487 201 468 170 468 c 0
 124 468 96 506 96 544 c 0
 96 552 97 560 100 568 c 0
 164 753 283 840 423 840 c 0
 672 840 946 609 1096 580 c 0
 1135 573 1155 539 1155 506 c 0
 1155 471 1133 436 1090 431 c 0
 964 417 225 188 225 -231 c 0
 225 -435 430 -548 683 -548 c 0
 808 -548 933 -518 1043 -460 c 0
 1054 -454 1065 -452 1077 -452 c 0
EndSplineSet
Substitution2: "'init' Initial Forms in Arabic lookup 6 subtable" uniFEA3
Substitution2: "'medi' Medial Forms in Arabic lookup 5 subtable" uniFEA4
Substitution2: "'fina' Terminal Forms in Arabic lookup 4 subtable" uniFEA2
Colour: ffff
EndChar

StartChar: uni0639
Encoding: 1593 1593 95
Width: 1277
VWidth: 2370
Flags: HMW
AnchorPoint: "Anchor-3" 600 1249 basechar 0
AnchorPoint: "Anchor-1" 668 -744 basechar 0
LayerCount: 2
Fore
SplineSet
830 607 m 2
 868 607 905 576 905 532 c 0
 905 494 875 460 836 457 c 0
 776 452 724 439 665 414 c 0
 433 315 225 66 225 -169 c 0
 225 -444 436 -567 697 -567 c 0
 834 -567 978 -530 1088 -462 c 0
 1100 -455 1114 -451 1127 -451 c 0
 1165 -451 1202 -482 1202 -526 c 0
 1202 -551 1189 -576 1166 -590 c 0
 1028 -674 860 -717 697 -717 c 0
 392 -717 75 -552 75 -169 c 0
 75 75 229 300 420 443 c 1
 262 482 134 605 134 790 c 0
 134 1024 334 1215 554 1215 c 0
 646 1215 740 1182 811 1117 c 0
 827 1102 835 1082 835 1062 c 0
 835 1021 800 987 760 987 c 0
 742 987 723 994 709 1007 c 0
 670 1044 612 1065 554 1065 c 0
 418 1065 284 938 284 790 c 0
 284 660 385 579 540 579 c 0
 642 579 729 600 825 607 c 1
 830 607 l 2
EndSplineSet
Substitution2: "'init' Initial Forms in Arabic lookup 6 subtable" uniFECB
Substitution2: "'medi' Medial Forms in Arabic lookup 5 subtable" uniFECC
Substitution2: "'fina' Terminal Forms in Arabic lookup 4 subtable" uniFECA
Colour: ffff
EndChar

StartChar: uni0622
Encoding: 1570 1570 97
Width: 460
VWidth: 1823
Flags: HMW
AnchorPoint: "Anchor-1" 202 0 basechar 0
AnchorPoint: "Anchor-3" 339 1953 basechar 0
LayerCount: 2
Fore
SplineSet
-62 1697 m 0
 -62 1659 -93 1621 -137 1621 c 0
 -198 1621 -216 1678 -216 1743 c 0
 -216 1950 -59 2094 130 2094 c 0
 254 2094 347 2048 423 2000 c 0
 487 1960 549 1930 628 1930 c 0
 683 1930 730 1967 736 2037 c 0
 740 2076 772 2105 810 2105 c 0
 853 2105 885 2070 885 2030 c 2
 885 2023 l 1
 872 1879 761 1780 628 1780 c 0
 507 1780 415 1829 344 1873 c 0
 277 1915 216 1944 130 1944 c 0
 19 1944 -66 1869 -66 1743 c 0
 -66 1726 -62 1713 -62 1697 c 0
EndSplineSet
Refer: 80 1575 N 1 0 0 1 78 0 2
Substitution2: "Single Substitution 1 subtable" uniE00A
PairPos2: "'kern' Horizontal Kerning in Arabic lookup 2 per glyph data 0" uni063A dx=-267 dy=0 dh=-267 dv=0 dx=0 dy=0 dh=0 dv=0
PairPos2: "'kern' Horizontal Kerning in Arabic lookup 2 per glyph data 0" uni0639 dx=-267 dy=0 dh=-267 dv=0 dx=0 dy=0 dh=0 dv=0
Ligature2: "'liga' Standard Ligatures in Arabic lookup 10 subtable" uni0627 uni0653
Substitution2: "'fina' Terminal Forms in Arabic lookup 4 subtable" uniFE82
PairPos2: "'kern' Horizontal Kerning in Arabic lookup 2 per glyph data 1" uni0639 dx=-200 dy=0 dh=-200 dv=0 dx=0 dy=0 dh=0 dv=0
PairPos2: "'kern' Horizontal Kerning in Arabic lookup 2 per glyph data 1" uni063A dx=-200 dy=0 dh=-200 dv=0 dx=0 dy=0 dh=0 dv=0
LCarets2: 1 0
Colour: ffff
EndChar

StartChar: uni0647
Encoding: 1607 1607 113
Width: 795
VWidth: 2370
Flags: HMW
AnchorPoint: "Anchor-1" 223 89 basechar 0
AnchorPoint: "Anchor-3" 366 1006 basechar 0
LayerCount: 2
Fore
SplineSet
393 661 m 1
 277 542 225 397 225 292 c 0
 225 195 271 120 389 120 c 0
 512 120 570 199 570 307 c 0
 570 392 513 523 393 661 c 1
220 863 m 0
 220 905 255 938 295 938 c 0
 312 938 330 932 344 920 c 0
 382 887 418 853 451 819 c 0
 617 648 720 469 720 307 c 0
 720 133 602 -30 389 -30 c 0
 175 -30 75 137 75 292 c 0
 75 443 144 622 288 768 c 1
 262 792 220 817 220 863 c 0
EndSplineSet
Substitution2: "'init' Initial Forms in Arabic lookup 6 subtable" uniFEEB
Substitution2: "'medi' Medial Forms in Arabic lookup 5 subtable" uniFEEC
Substitution2: "'fina' Terminal Forms in Arabic lookup 4 subtable" uniFEEA
Colour: ffff
EndChar

StartChar: uniFEB3
Encoding: 65203 65203 114
Width: 1544
VWidth: 2370
Flags: HMW
AnchorPoint: "Anchor-1" 844 0 basechar 0
AnchorPoint: "Anchor-3" 911 565 basechar 0
LayerCount: 2
Fore
SplineSet
394 607 m 0
 441 607 469 565 469 532 c 0
 469 530 469 528 469 526 c 0
 463 452 449 379 449 295 c 0
 449 189 514 120 612 120 c 0
 745 120 831 268 831 449 c 0
 831 480 827 502 827 527 c 0
 827 567 859 602 902 602 c 0
 942 602 971 570 977 531 c 0
 984 484 993 431 1005 379 c 0
 1045 208 1111 102 1192 102 c 0
 1270 102 1319 186 1319 324 c 0
 1319 417 1292 533 1250 614 c 0
 1244 625 1242 636 1242 648 c 0
 1242 686 1271 724 1316 724 c 0
 1344 724 1371 709 1384 684 c 0
 1440 577 1469 443 1469 324 c 0
 1469 176 1410 -48 1192 -48 c 0
 1049 -48 964 62 916 168 c 1
 860 60 757 -30 612 -30 c 0
 491 -30 390 34 338 132 c 1
 263 35 149 -30 0 -30 c 0
 -41 -30 -75 4 -75 45 c 0
 -75 86 -41 120 0 120 c 0
 193 120 274 266 307 448 c 0
 310 478 315 510 320 543 c 0
 325 580 358 607 394 607 c 0
EndSplineSet
Colour: ffff
EndChar

StartChar: uniFEB4
Encoding: 65204 65204 115
Width: 1747
VWidth: 2370
Flags: HMW
AnchorPoint: "Anchor-3" 893 565 basechar 0
AnchorPoint: "Anchor-1" 891 0 basechar 0
LayerCount: 2
Fore
SplineSet
1305 598 m 0
 1305 633 1333 674 1380 674 c 0
 1415 674 1447 649 1454 614 c 0
 1505 358 1577 120 1747 120 c 0
 1788 120 1822 86 1822 45 c 0
 1822 4 1788 -30 1747 -30 c 0
 1608 -30 1509 52 1448 151 c 1
 1411 46 1328 -45 1195 -45 c 0
 1056 -45 965 46 917 150 c 1
 864 49 767 -29 626 -29 c 0
 500 -29 414 51 368 148 c 1
 295 30 168 -30 0 -30 c 0
 -41 -30 -75 4 -75 45 c 0
 -75 86 -41 120 0 120 c 0
 232 120 301 240 301 532 c 1
 301 573.400390625 334.599609375 607 376 607 c 0
 417.400390625 607 451 573.400390625 451 532 c 1
 451 276 514 121 626 121 c 0
 785 121 834 292 847 524 c 0
 849 554 878 595 922 595 c 0
 962 595 996 562 997 521 c 0
 1001 287 1065 105 1195 105 c 0
 1277 105 1330 186 1330 365 c 0
 1330 409 1326 456 1319 502 c 2
 1306 588 l 2
 1306 591 1305 595 1305 598 c 0
EndSplineSet
Colour: ffff
EndChar

StartChar: uniFEB2
Encoding: 65202 65202 116
Width: 2551
VWidth: 2370
Flags: HMW
AnchorPoint: "Anchor-3" 1773 565 basechar 0
AnchorPoint: "Anchor-1" 749 -526 basechar 0
LayerCount: 2
Fore
SplineSet
1912 464 m 0
 1912 426 1908 389 1908 357 c 0
 1908 165 1962 103 2039 103 c 0
 2118 103 2157 204 2157 363 c 0
 2157 421 2146 530 2137 594 c 0
 2137 597 2136 601 2136 604 c 0
 2136 644 2168 680 2211 680 c 0
 2249 680 2279 650 2285 619 c 0
 2302 531 2313 434 2334 357 c 0
 2377 197 2434 120 2551 120 c 0
 2592 120 2626 86 2626 45 c 0
 2626 4 2592 -30 2551 -30 c 0
 2424 -30 2329 34 2270 124 c 1
 2236 36 2161 -47 2039 -47 c 0
 1925 -47 1839 21 1798 119 c 1
 1737 28 1649 -30 1544 -30 c 0
 1467 -30 1394 -6 1336 41 c 1
 1319 -309 1012 -524 672 -524 c 0
 396 -524 75 -376 75 -43 c 0
 75 266 259 432 459 580 c 0
 472 590 488 595 504 595 c 0
 543 595 579 563 579 520 c 0
 579 497 569 474 549 460 c 0
 352 314 225 196 225 -43 c 0
 225 -252 430 -374 672 -374 c 0
 963 -374 1187 -194 1187 71 c 0
 1187 156 1174 267 1135 435 c 0
 1134 440 1133 446 1133 451 c 0
 1133 489 1162 527 1208 527 c 0
 1242 527 1273 504 1281 470 c 0
 1350 193 1431 120 1544 120 c 0
 1628 120 1727 214 1763 475 c 0
 1767 505 1797 540 1837 540 c 0
 1878 540 1912 505 1912 464 c 0
EndSplineSet
Colour: ffff
EndChar

StartChar: uniFE8E
Encoding: 65166 65166 134
Width: 600
VWidth: 2370
Flags: HMW
AnchorPoint: "Anchor-3" 308 1459 basechar 0
AnchorPoint: "Anchor-1" 356 0 basechar 0
LayerCount: 2
Fore
SplineSet
214 1436 m 0
 255 1436 289 1402 289 1361 c 0
 289 1079 275 839 275 648 c 0
 275 256 318 120 598 120 c 2
 600 120 l 2
 641 120 675 86 675 45 c 0
 675 4 641 -30 600 -30 c 2
 598 -30 l 2
 194 -30 125 257 125 648 c 0
 125 846 139 1084 139 1361 c 0
 139 1402 173 1436 214 1436 c 0
EndSplineSet
PairPos2: "'kern' Horizontal Kerning in Arabic lookup 2 per glyph data 1" uni0639 dx=-200 dy=0 dh=-200 dv=0 dx=0 dy=0 dh=0 dv=0
PairPos2: "'kern' Horizontal Kerning in Arabic lookup 2 per glyph data 1" uni063A dx=-200 dy=0 dh=-200 dv=0 dx=0 dy=0 dh=0 dv=0
Colour: ffff
EndChar

StartChar: uniFEA2
Encoding: 65186 65186 142
Width: 1332
VWidth: 1255
Flags: HMW
AnchorPoint: "Anchor-3" 449 811 basechar 0
AnchorPoint: "Anchor-1" 714 -744 basechar 0
LayerCount: 2
Fore
SplineSet
1407 45 m 0
 1407 4 1373 -30 1332 -30 c 0
 1040 -30 817 184 817 458 c 0
 817 499 851 533 892 533 c 0
 933 533 967 499 967 458 c 0
 967 272 1114 120 1332 120 c 0
 1373 120 1407 86 1407 45 c 0
EndSplineSet
Refer: 94 1581 N 1 0 0 1 0 0 2
Colour: ffff
EndChar

StartChar: uniFEA3
Encoding: 65187 65187 143
Width: 1223
VWidth: 2370
Flags: HMW
AnchorPoint: "Anchor-1" 590 0 basechar 0
AnchorPoint: "Anchor-3" 405 811 basechar 0
LayerCount: 2
Fore
SplineSet
130 457 m 0
 84 457 56 495 56 533 c 0
 56 539 56 545 58 551 c 0
 107 738 251 842 396 842 c 0
 628 842 928 585 1147 512 c 0
 1181 501 1196 473 1196 444 c 0
 1196 410 1174 374 1136 367 c 0
 864 318 573 -30 0 -30 c 0
 -41 -30 -75 4 -75 45 c 0
 -75 86 -41 120 0 120 c 0
 416 120 647 328 915 451 c 1
 707 559 497 692 396 692 c 0
 325 692 237 642 204 513 c 0
 196 479 164 457 130 457 c 0
EndSplineSet
Colour: ffff
EndChar

StartChar: uniFEA4
Encoding: 65188 65188 144
Width: 1335
VWidth: 1373
Flags: HMW
AnchorPoint: "Anchor-3" 396 811 basechar 0
AnchorPoint: "Anchor-1" 510 0 basechar 0
LayerCount: 2
Fore
SplineSet
937 452 m 0
 978 452 1012 418 1012 377 c 0
 1012 221 1129 120 1335 120 c 0
 1376 120 1410 86 1410 45 c 0
 1410 4 1376 -30 1335 -30 c 0
 1078 -30 862 117 862 377 c 0
 862 418 896 452 937 452 c 0
EndSplineSet
Refer: 143 65187 N 1 0 0 1 0 0 2
Colour: ffff
EndChar

StartChar: uniFEAA
Encoding: 65194 65194 148
Width: 1114
VWidth: 1437
Flags: HMW
AnchorPoint: "Anchor-1" 435 -144 basechar 0
AnchorPoint: "Anchor-3" 561 1047 basechar 0
LayerCount: 2
Fore
SplineSet
484 840 m 0
 484 878 515 916 560 916 c 0
 587 916 613 901 626 875 c 0
 690.565515644 744.933236602 747.250680039 611.364094872 796.055493874 473.473253085 c 0
 799.877195197 464.837150909 803.064844573 455.539075617 805.704084984 445.85838132 c 0
 805.802756607 445.572272775 805.901394587 445.286145547 806 445 c 0
 873 255 929 120 1114 120 c 0
 1155 120 1189 86 1189 45 c 0
 1189 4 1155 -30 1114 -30 c 0
 939.628175759 -30 836.182214398 55.6001793372 767.727572295 162.779224664 c 1
 688.348082261 31.4171122543 524.641820756 -30 363 -30 c 0
 277 -30 191 -17 108 15 c 0
 78 26 59 55 59 86 c 0
 59 131 98 160 135 160 c 0
 144 160 153 158 161 155 c 0
 225 131 293 120 363 120 c 0
 548 120 667 203 667 350 c 0
 667 369.40636046 665.078536601 386.89125752 660.902674861 404.119361109 c 0
 613.553179446 542.868090409 557.564654047 676.849270862 492 807 c 0
 487 818 484 829 484 840 c 0
EndSplineSet
PairPos2: "'kern' Horizontal Kerning in Arabic lookup 2 per glyph data 3" uni06A9 dx=-267 dy=0 dh=-267 dv=0 dx=0 dy=0 dh=0 dv=0
PairPos2: "'kern' Horizontal Kerning in Arabic lookup 2 per glyph data 3" uni06AF dx=-267 dy=0 dh=-267 dv=0 dx=0 dy=0 dh=0 dv=0
PairPos2: "'kern' Horizontal Kerning in Arabic lookup 2 per glyph data 3" uniFB90 dx=-267 dy=0 dh=-267 dv=0 dx=0 dy=0 dh=0 dv=0
PairPos2: "'kern' Horizontal Kerning in Arabic lookup 2 per glyph data 3" uniFB94 dx=-267 dy=0 dh=-267 dv=0 dx=0 dy=0 dh=0 dv=0
PairPos2: "'kern' Horizontal Kerning in Arabic lookup 2 per glyph data 3" uniFEDB dx=-267 dy=0 dh=-267 dv=0 dx=0 dy=0 dh=0 dv=0
PairPos2: "'kern' Horizontal Kerning in Arabic lookup 2 per glyph data 1" uni0639 dx=-334 dy=0 dh=-334 dv=0 dx=0 dy=0 dh=0 dv=0
PairPos2: "'kern' Horizontal Kerning in Arabic lookup 2 per glyph data 1" uni063A dx=-334 dy=0 dh=-334 dv=0 dx=0 dy=0 dh=0 dv=0
Colour: ffff
EndChar

StartChar: uniFEAE
Encoding: 65198 65198 150
Width: 1027
VWidth: 2370
Flags: HMW
AnchorPoint: "Anchor-1" 505 -394 basechar 0
AnchorPoint: "Anchor-3" 755 624 basechar 0
LayerCount: 2
Fore
SplineSet
518 483 m 0
 518 520 546 559 591 559 c 0
 623 559 653 537 663 509 c 0
 731 317 778 120 1027 120 c 0
 1068 120 1102 86 1102 45 c 0
 1102 4 1068 -30 1027 -30 c 0
 900 -30 798 10 724 77 c 1
 706 -233 537 -447 202 -530 c 0
 196 -531 190 -532 184 -532 c 0
 146 -532 109 -502 109 -457 c 0
 109 -423 132 -393 166 -384 c 0
 464 -310 576 -148 576 137 c 0
 576 255 552 366 521 461 c 0
 519 468 518 476 518 483 c 0
EndSplineSet
PairPos2: "'kern' Horizontal Kerning in Arabic lookup 2 per glyph data 2" uniFBFE dx=-134 dy=0 dh=-134 dv=0 dx=0 dy=0 dh=0 dv=0
PairPos2: "'kern' Horizontal Kerning in Arabic lookup 2 per glyph data 2" uniFEF3 dx=-134 dy=0 dh=-134 dv=0 dx=0 dy=0 dh=0 dv=0
PairPos2: "'kern' Horizontal Kerning in Arabic lookup 2 per glyph data 2" uniFB58 dx=-134 dy=0 dh=-134 dv=0 dx=0 dy=0 dh=0 dv=0
PairPos2: "'kern' Horizontal Kerning in Arabic lookup 2 per glyph data 3" uni06A9 dx=-267 dy=0 dh=-267 dv=0 dx=0 dy=0 dh=0 dv=0
PairPos2: "'kern' Horizontal Kerning in Arabic lookup 2 per glyph data 3" uni06AF dx=-267 dy=0 dh=-267 dv=0 dx=0 dy=0 dh=0 dv=0
PairPos2: "'kern' Horizontal Kerning in Arabic lookup 2 per glyph data 3" uniFB90 dx=-267 dy=0 dh=-267 dv=0 dx=0 dy=0 dh=0 dv=0
PairPos2: "'kern' Horizontal Kerning in Arabic lookup 2 per glyph data 3" uniFB94 dx=-267 dy=0 dh=-267 dv=0 dx=0 dy=0 dh=0 dv=0
PairPos2: "'kern' Horizontal Kerning in Arabic lookup 2 per glyph data 3" uniFEDB dx=-267 dy=0 dh=-267 dv=0 dx=0 dy=0 dh=0 dv=0
PairPos2: "'kern' Horizontal Kerning in Arabic lookup 2 per glyph data 2" uni0622 dx=-267 dy=0 dh=-267 dv=0 dx=0 dy=0 dh=0 dv=0
PairPos2: "'kern' Horizontal Kerning in Arabic lookup 2 per glyph data 2" uni0623 dx=-267 dy=0 dh=-267 dv=0 dx=0 dy=0 dh=0 dv=0
PairPos2: "'kern' Horizontal Kerning in Arabic lookup 2 per glyph data 2" uni0624 dx=-233 dy=0 dh=-233 dv=0 dx=0 dy=0 dh=0 dv=0
PairPos2: "'kern' Horizontal Kerning in Arabic lookup 2 per glyph data 2" uni0627 dx=-267 dy=0 dh=-267 dv=0 dx=0 dy=0 dh=0 dv=0
PairPos2: "'kern' Horizontal Kerning in Arabic lookup 2 per glyph data 2" uni0628 dx=-334 dy=0 dh=-334 dv=0 dx=0 dy=0 dh=0 dv=0
PairPos2: "'kern' Horizontal Kerning in Arabic lookup 2 per glyph data 2" uni0629 dx=-334 dy=0 dh=-334 dv=0 dx=0 dy=0 dh=0 dv=0
PairPos2: "'kern' Horizontal Kerning in Arabic lookup 2 per glyph data 2" uni062A dx=-334 dy=0 dh=-334 dv=0 dx=0 dy=0 dh=0 dv=0
PairPos2: "'kern' Horizontal Kerning in Arabic lookup 2 per glyph data 2" uni062B dx=-334 dy=0 dh=-334 dv=0 dx=0 dy=0 dh=0 dv=0
PairPos2: "'kern' Horizontal Kerning in Arabic lookup 2 per glyph data 2" uni062C dx=-111 dy=0 dh=-111 dv=0 dx=0 dy=0 dh=0 dv=0
PairPos2: "'kern' Horizontal Kerning in Arabic lookup 2 per glyph data 2" uni062D dx=-111 dy=0 dh=-111 dv=0 dx=0 dy=0 dh=0 dv=0
PairPos2: "'kern' Horizontal Kerning in Arabic lookup 2 per glyph data 2" uni062E dx=-111 dy=0 dh=-111 dv=0 dx=0 dy=0 dh=0 dv=0
PairPos2: "'kern' Horizontal Kerning in Arabic lookup 2 per glyph data 2" uni062F dx=-334 dy=0 dh=-334 dv=0 dx=0 dy=0 dh=0 dv=0
PairPos2: "'kern' Horizontal Kerning in Arabic lookup 2 per glyph data 2" uni0630 dx=-334 dy=0 dh=-334 dv=0 dx=0 dy=0 dh=0 dv=0
PairPos2: "'kern' Horizontal Kerning in Arabic lookup 2 per glyph data 2" uni0631 dx=-233 dy=0 dh=-233 dv=0 dx=0 dy=0 dh=0 dv=0
PairPos2: "'kern' Horizontal Kerning in Arabic lookup 2 per glyph data 2" uni0632 dx=-233 dy=0 dh=-233 dv=0 dx=0 dy=0 dh=0 dv=0
PairPos2: "'kern' Horizontal Kerning in Arabic lookup 2 per glyph data 2" uni0633 dx=-334 dy=0 dh=-334 dv=0 dx=0 dy=0 dh=0 dv=0
PairPos2: "'kern' Horizontal Kerning in Arabic lookup 2 per glyph data 2" uni0634 dx=-334 dy=0 dh=-334 dv=0 dx=0 dy=0 dh=0 dv=0
PairPos2: "'kern' Horizontal Kerning in Arabic lookup 2 per glyph data 2" uni0635 dx=-334 dy=0 dh=-334 dv=0 dx=0 dy=0 dh=0 dv=0
PairPos2: "'kern' Horizontal Kerning in Arabic lookup 2 per glyph data 2" uni0636 dx=-334 dy=0 dh=-334 dv=0 dx=0 dy=0 dh=0 dv=0
PairPos2: "'kern' Horizontal Kerning in Arabic lookup 2 per glyph data 2" uni0637 dx=-334 dy=0 dh=-334 dv=0 dx=0 dy=0 dh=0 dv=0
PairPos2: "'kern' Horizontal Kerning in Arabic lookup 2 per glyph data 2" uni0638 dx=-334 dy=0 dh=-334 dv=0 dx=0 dy=0 dh=0 dv=0
PairPos2: "'kern' Horizontal Kerning in Arabic lookup 2 per glyph data 2" uni0641 dx=-334 dy=0 dh=-334 dv=0 dx=0 dy=0 dh=0 dv=0
PairPos2: "'kern' Horizontal Kerning in Arabic lookup 2 per glyph data 2" uni0642 dx=-134 dy=0 dh=-134 dv=0 dx=0 dy=0 dh=0 dv=0
PairPos2: "'kern' Horizontal Kerning in Arabic lookup 2 per glyph data 2" uni0643 dx=-334 dy=0 dh=-334 dv=0 dx=0 dy=0 dh=0 dv=0
PairPos2: "'kern' Horizontal Kerning in Arabic lookup 2 per glyph data 2" uni0644 dx=-100 dy=0 dh=-100 dv=0 dx=0 dy=0 dh=0 dv=0
PairPos2: "'kern' Horizontal Kerning in Arabic lookup 2 per glyph data 2" uni0645 dx=-334 dy=0 dh=-334 dv=0 dx=0 dy=0 dh=0 dv=0
PairPos2: "'kern' Horizontal Kerning in Arabic lookup 2 per glyph data 2" uni0646 dx=-134 dy=0 dh=-134 dv=0 dx=0 dy=0 dh=0 dv=0
PairPos2: "'kern' Horizontal Kerning in Arabic lookup 2 per glyph data 2" uni0647 dx=-334 dy=0 dh=-334 dv=0 dx=0 dy=0 dh=0 dv=0
PairPos2: "'kern' Horizontal Kerning in Arabic lookup 2 per glyph data 2" uni0648 dx=-233 dy=0 dh=-233 dv=0 dx=0 dy=0 dh=0 dv=0
PairPos2: "'kern' Horizontal Kerning in Arabic lookup 2 per glyph data 2" uni067E dx=-334 dy=0 dh=-334 dv=0 dx=0 dy=0 dh=0 dv=0
PairPos2: "'kern' Horizontal Kerning in Arabic lookup 2 per glyph data 2" uni0686 dx=-111 dy=0 dh=-111 dv=0 dx=0 dy=0 dh=0 dv=0
PairPos2: "'kern' Horizontal Kerning in Arabic lookup 2 per glyph data 2" uni0698 dx=-233 dy=0 dh=-233 dv=0 dx=0 dy=0 dh=0 dv=0
PairPos2: "'kern' Horizontal Kerning in Arabic lookup 2 per glyph data 2" uni06A9 dx=-601 dy=0 dh=-601 dv=0 dx=0 dy=0 dh=0 dv=0
PairPos2: "'kern' Horizontal Kerning in Arabic lookup 2 per glyph data 2" uni06AF dx=-601 dy=0 dh=-601 dv=0 dx=0 dy=0 dh=0 dv=0
PairPos2: "'kern' Horizontal Kerning in Arabic lookup 2 per glyph data 2" uni06C0 dx=-334 dy=0 dh=-334 dv=0 dx=0 dy=0 dh=0 dv=0
PairPos2: "'kern' Horizontal Kerning in Arabic lookup 2 per glyph data 2" uni06CA dx=-233 dy=0 dh=-233 dv=0 dx=0 dy=0 dh=0 dv=0
PairPos2: "'kern' Horizontal Kerning in Arabic lookup 2 per glyph data 2" uniFB7C dx=-334 dy=0 dh=-334 dv=0 dx=0 dy=0 dh=0 dv=0
PairPos2: "'kern' Horizontal Kerning in Arabic lookup 2 per glyph data 2" uniFB90 dx=-601 dy=0 dh=-601 dv=0 dx=0 dy=0 dh=0 dv=0
PairPos2: "'kern' Horizontal Kerning in Arabic lookup 2 per glyph data 2" uniFB94 dx=-601 dy=0 dh=-601 dv=0 dx=0 dy=0 dh=0 dv=0
PairPos2: "'kern' Horizontal Kerning in Arabic lookup 2 per glyph data 2" uniFE8B dx=-334 dy=0 dh=-334 dv=0 dx=0 dy=0 dh=0 dv=0
PairPos2: "'kern' Horizontal Kerning in Arabic lookup 2 per glyph data 2" uniFE91 dx=-334 dy=0 dh=-334 dv=0 dx=0 dy=0 dh=0 dv=0
PairPos2: "'kern' Horizontal Kerning in Arabic lookup 2 per glyph data 2" uniFE97 dx=-334 dy=0 dh=-334 dv=0 dx=0 dy=0 dh=0 dv=0
PairPos2: "'kern' Horizontal Kerning in Arabic lookup 2 per glyph data 2" uniFE9B dx=-334 dy=0 dh=-334 dv=0 dx=0 dy=0 dh=0 dv=0
PairPos2: "'kern' Horizontal Kerning in Arabic lookup 2 per glyph data 2" uniFE9F dx=-334 dy=0 dh=-334 dv=0 dx=0 dy=0 dh=0 dv=0
PairPos2: "'kern' Horizontal Kerning in Arabic lookup 2 per glyph data 2" uniFEA3 dx=-334 dy=0 dh=-334 dv=0 dx=0 dy=0 dh=0 dv=0
PairPos2: "'kern' Horizontal Kerning in Arabic lookup 2 per glyph data 2" uniFEA7 dx=-334 dy=0 dh=-334 dv=0 dx=0 dy=0 dh=0 dv=0
PairPos2: "'kern' Horizontal Kerning in Arabic lookup 2 per glyph data 2" uniFEB3 dx=-334 dy=0 dh=-334 dv=0 dx=0 dy=0 dh=0 dv=0
PairPos2: "'kern' Horizontal Kerning in Arabic lookup 2 per glyph data 2" uniFEB7 dx=-334 dy=0 dh=-334 dv=0 dx=0 dy=0 dh=0 dv=0
PairPos2: "'kern' Horizontal Kerning in Arabic lookup 2 per glyph data 2" uniFEBB dx=-334 dy=0 dh=-334 dv=0 dx=0 dy=0 dh=0 dv=0
PairPos2: "'kern' Horizontal Kerning in Arabic lookup 2 per glyph data 2" uniFEBF dx=-334 dy=0 dh=-334 dv=0 dx=0 dy=0 dh=0 dv=0
PairPos2: "'kern' Horizontal Kerning in Arabic lookup 2 per glyph data 2" uniFEC3 dx=-334 dy=0 dh=-334 dv=0 dx=0 dy=0 dh=0 dv=0
PairPos2: "'kern' Horizontal Kerning in Arabic lookup 2 per glyph data 2" uniFEC7 dx=-334 dy=0 dh=-334 dv=0 dx=0 dy=0 dh=0 dv=0
PairPos2: "'kern' Horizontal Kerning in Arabic lookup 2 per glyph data 2" uniFECB dx=-334 dy=0 dh=-334 dv=0 dx=0 dy=0 dh=0 dv=0
PairPos2: "'kern' Horizontal Kerning in Arabic lookup 2 per glyph data 2" uniFECF dx=-334 dy=0 dh=-334 dv=0 dx=0 dy=0 dh=0 dv=0
PairPos2: "'kern' Horizontal Kerning in Arabic lookup 2 per glyph data 2" uniFED3 dx=-334 dy=0 dh=-334 dv=0 dx=0 dy=0 dh=0 dv=0
PairPos2: "'kern' Horizontal Kerning in Arabic lookup 2 per glyph data 2" uniFED7 dx=-334 dy=0 dh=-334 dv=0 dx=0 dy=0 dh=0 dv=0
PairPos2: "'kern' Horizontal Kerning in Arabic lookup 2 per glyph data 2" uniFEDB dx=-601 dy=0 dh=-601 dv=0 dx=0 dy=0 dh=0 dv=0
PairPos2: "'kern' Horizontal Kerning in Arabic lookup 2 per glyph data 2" uniFEDF dx=-334 dy=0 dh=-334 dv=0 dx=0 dy=0 dh=0 dv=0
PairPos2: "'kern' Horizontal Kerning in Arabic lookup 2 per glyph data 2" uniFEE3 dx=-334 dy=0 dh=-334 dv=0 dx=0 dy=0 dh=0 dv=0
PairPos2: "'kern' Horizontal Kerning in Arabic lookup 2 per glyph data 2" uniFEE7 dx=-334 dy=0 dh=-334 dv=0 dx=0 dy=0 dh=0 dv=0
PairPos2: "'kern' Horizontal Kerning in Arabic lookup 2 per glyph data 2" uniFEEB dx=-334 dy=0 dh=-334 dv=0 dx=0 dy=0 dh=0 dv=0
PairPos2: "'kern' Horizontal Kerning in Arabic lookup 2 per glyph data 2" uniFEF5 dx=-334 dy=0 dh=-334 dv=0 dx=0 dy=0 dh=0 dv=0
PairPos2: "'kern' Horizontal Kerning in Arabic lookup 2 per glyph data 2" uniFEF7 dx=-334 dy=0 dh=-334 dv=0 dx=0 dy=0 dh=0 dv=0
PairPos2: "'kern' Horizontal Kerning in Arabic lookup 2 per glyph data 2" uniFEF9 dx=-334 dy=0 dh=-334 dv=0 dx=0 dy=0 dh=0 dv=0
PairPos2: "'kern' Horizontal Kerning in Arabic lookup 2 per glyph data 2" uniFEFB dx=-334 dy=0 dh=-334 dv=0 dx=0 dy=0 dh=0 dv=0
PairPos2: "'kern' Horizontal Kerning in Arabic lookup 2 per glyph data 1" uni0639 dx=-134 dy=0 dh=-134 dv=0 dx=0 dy=0 dh=0 dv=0
PairPos2: "'kern' Horizontal Kerning in Arabic lookup 2 per glyph data 1" uni063A dx=-134 dy=0 dh=-134 dv=0 dx=0 dy=0 dh=0 dv=0
Colour: ffff
EndChar

StartChar: uniFEBA
Encoding: 65210 65210 155
Width: 2443
VWidth: 1839
Flags: HMW
AnchorPoint: "Anchor-1" 720 -526 basechar 0
AnchorPoint: "Anchor-3" 2055 811 basechar 0
LayerCount: 2
Fore
SplineSet
1109 317 m 0
 1109 356 1139 391 1182 391 c 0
 1206 391 1230 380 1244 359 c 0
 1278 310 1319 267 1365 231 c 1
 1500 474 1723 725 2000 725 c 0
 2184 725 2323 582 2323 381 c 0
 2323 267.660677861 2271.46941212 182.512389801 2195.04440044 120 c 1
 2443 120 l 2
 2484 120 2518 86 2518 45 c 0
 2518 4 2484 -30 2443 -30 c 2
 1705 -30 l 2
 1560 -30 1427 12 1324 77 c 1
 1324 73 l 2
 1324 -290 1014 -517 666 -517 c 0
 393 -517 75 -369 75 -40 c 0
 75 290 412 457 607 535 c 0
 616 538 625 540 634 540 c 0
 672 540 710 512 710 466 c 0
 710 436 692 407 663 395 c 0
 464 315 225 172 225 -40 c 0
 225 -245 427 -367 666 -367 c 0
 954 -367 1174 -190 1174 73 c 0
 1174 145 1155 217 1118 279 c 0
 1112 289 1109 303 1109 317 c 0
1705 120 m 0
 1930 120 2173 226 2173 381 c 0
 2173 510 2098 575 2000 575 c 0
 1819 575 1623 388 1495 158 c 1
 1557 134 1628 120 1705 120 c 0
EndSplineSet
Colour: ffff
EndChar

StartChar: uniFEBB
Encoding: 65211 65211 156
Width: 1536
VWidth: 2370
Flags: HMW
AnchorPoint: "Anchor-3" 1211 811 basechar 0
AnchorPoint: "Anchor-1" 818 0 basechar 0
LayerCount: 2
Fore
SplineSet
539 171 m 1
 619 138 723 122 809 122 c 0
 1065 122 1311 245 1311 434 c 0
 1311 549 1219 635 1088 635 c 0
 872 635 659 417 539 171 c 1
384 -118 m 0
 339 -118 309 -81 309 -43 c 0
 309 -38 310 -32 311 -27 c 0
 321 18 334 64 351 112 c 1
 338 124 325 138 314 151 c 1
 252 50 151 -30 0 -30 c 0
 -41 -30 -75 4 -75 45 c 0
 -75 86 -41 120 0 120 c 0
 176 120 229 291 280 503 c 0
 288 536 319 560 353 560 c 0
 398 560 428 523 428 485 c 0
 428 479 427 474 426 468 c 0
 414 416 404 375 404 325 c 0
 404 301 410 283 419 265 c 1
 550 519 786 785 1088 785 c 0
 1287 785 1461 643 1461 434 c 0
 1461 99 1079 -28 809 -28 c 0
 707 -28 587 -11 482 32 c 1
 463 -30 459 -118 384 -118 c 0
EndSplineSet
Colour: ffff
EndChar

StartChar: uniFEBC
Encoding: 65212 65212 157
Width: 1601
VWidth: 1839
Flags: HMW
AnchorPoint: "Anchor-1" 818 0 basechar 0
AnchorPoint: "Anchor-3" 1211 811 basechar 0
LayerCount: 2
Fore
SplineSet
352 560 m 0
 397 560 427 523 427 485 c 0
 427 479 426 474 425 468 c 0
 413 416 403 375 403 325 c 0
 403 318 403 311 404 304 c 1
 525 534 764 785 1060 785 c 0
 1259 785 1434 643 1434 434 c 0
 1434 296.319790266 1369.13884947 193.434885245 1273.98735228 120 c 1
 1601 120 l 2
 1642 120 1676 86 1676 45 c 0
 1676 4 1642 -30 1601 -30 c 2
 780 -30 l 2
 653 -30 504 -5 392 72 c 1
 376 77 361 89 352 103 c 1
 337 117 323 132 311 148 c 1
 249 48 149 -30 0 -30 c 0
 -41 -30 -75 4 -75 45 c 0
 -75 86 -41 120 0 120 c 0
 176 120 228 290 279 503 c 0
 287 536 318 560 352 560 c 0
780 120 m 0
 1036 120 1284 245 1284 434 c 0
 1284 549 1191 635 1060 635 c 0
 833 635 606 400 509 176 c 1
 582 138 688 120 780 120 c 0
EndSplineSet
Colour: ffff
EndChar

StartChar: uniFEC2
Encoding: 65218 65218 161
Width: 1565
VWidth: 2370
Flags: HMW
AnchorPoint: "Anchor-1" 440 0 basechar 0
AnchorPoint: "Anchor-3" 1178 811 basechar 0
LayerCount: 2
Fore
SplineSet
550 126 m 1
 611 129 673 134 732 140 c 0
 1090 177 1319 274 1319 469 c 0
 1319 571 1237 648 1120 648 c 0
 907 648 673 388 550 126 c 1
407 1361 m 2
 407 1401 439 1435 482 1435 c 0
 521 1435 554 1405 557 1366 c 0
 564 1254 568 1101 568 933 c 0
 568 770 564 594 555 431 c 1
 693 622 889 798 1120 798 c 0
 1305 798 1469 665 1469 469 c 0
 1469 306 1373 191 1245 120 c 1
 1565 120 l 2
 1606 120 1640 86 1640 45 c 0
 1640 4 1606 -30 1565 -30 c 2
 150 -30 l 2
 109 -30 75 4 75 45 c 0
 75 88 110 120 150 120 c 2
 200 120 l 2
 256 120 315 120 376 121 c 1
 407 338 418 654 418 930 c 0
 418 1096 414 1248 407 1356 c 1
 407 1361 l 2
EndSplineSet
Colour: ffff
EndChar

StartChar: uniFEC3
Encoding: 65219 65219 162
Width: 1240
VWidth: 2370
Flags: HMW
AnchorPoint: "Anchor-3" 855 811 basechar 0
AnchorPoint: "Anchor-1" 596 0 basechar 0
LayerCount: 2
Fore
SplineSet
286 132 m 1
 693 167 1015 285 1015 466 c 0
 1015 568 933 644 816 644 c 0
 609 644 427 391 286 132 c 1
101 -131 m 0
 58 -131 27 -95 27 -55 c 0
 27 -47 28 -38 31 -30 c 1
 0 -30 l 2
 -41 -30 -75 4 -75 45 c 0
 -75 86 -41 120 0 120 c 0
 33 120 67 121 102 122 c 1
 169 310 196 569 196 808 c 0
 196 1022 178 1222 163 1352 c 0
 163 1355 162 1358 162 1361 c 0
 162 1400 195 1436 239 1436 c 0
 276 1436 308 1407 313 1369 c 0
 328 1237 346 1035 346 814 c 0
 346 708 342 597 331 488 c 1
 450 648 608 794 816 794 c 0
 1001 794 1165 662 1165 466 c 0
 1165 86 596 -2 203 -24 c 1
 182 -66 161 -131 101 -131 c 0
EndSplineSet
Colour: ffff
EndChar

StartChar: uniFEC4
Encoding: 65220 65220 163
Width: 1258
VWidth: 2370
Flags: HMW
AnchorPoint: "Anchor-1" 596 0 basechar 0
AnchorPoint: "Anchor-3" 855 811 basechar 0
LayerCount: 2
Fore
SplineSet
318 127 m 1
 711 148 1002 234 1002 396 c 0
 1002 503 913 584 788 584 c 0
 518 584 397 370 318 127 c 1
167 1359 m 2
 167 1399 198 1435 242 1435 c 0
 280 1435 313 1407 317 1369 c 0
 335 1208 346 997 346 779 c 0
 346 690 344 599 340 510 c 1
 438 638 584 734 788 734 c 0
 979 734 1152 599 1152 396 c 0
 1152 270 1076 178 979 120 c 1
 1258 120 l 2
 1299 120 1333 86 1333 45 c 0
 1333 4 1299 -30 1258 -30 c 2
 0 -30 l 1
 0 20 0 70 0 120 c 1
 48 120 99 120 152 121 c 1
 182 311 195 547 195 776 c 0
 195 990 184 1198 167 1352 c 1
 167 1359 l 2
EndSplineSet
Colour: ffff
EndChar

StartChar: uniFECA
Encoding: 65226 65226 167
Width: 1012
VWidth: 2370
Flags: HMW
AnchorPoint: "Anchor-3" 542 811 basechar 0
AnchorPoint: "Anchor-1" 666 -740 basechar 0
LayerCount: 2
Fore
SplineSet
529 353 m 1
 618 407 746 472 746 564 c 0
 746 653 689 691 565 691 c 0
 470 691 357 660 285 619 c 1
 350 536 435 438 529 353 c 1
846 -748 m 0
 469 -748 75 -643 75 -257 c 0
 75 -12 253 160 400 268 c 1
 284 377 189 496 120 590 c 0
 110 603 106 619 106 634 c 0
 106 654 113 673 127 687 c 0
 221 781 401 841 565 841 c 0
 717 841 896 771 896 564 c 0
 896 382 729 297 654 253 c 1
 770 172 892 120 1012 120 c 0
 1053 120 1087 86 1087 45 c 0
 1087 4 1053 -30 1012 -30 c 0
 828 -30 659 57 517 167 c 1
 371 66 225 -79 225 -257 c 0
 225 -499 461 -592 846 -598 c 0
 886 -599 920 -632 920 -672 c 0
 920 -714 887 -748 846 -748 c 0
EndSplineSet
Colour: ffff
EndChar

StartChar: uniFECB
Encoding: 65227 65227 168
Width: 1010
VWidth: 2370
Flags: HMW
AnchorPoint: "Anchor-3" 565 973 basechar 0
AnchorPoint: "Anchor-1" 438 0 basechar 0
LayerCount: 2
Fore
SplineSet
807 714 m 0
 807 673 773 640 733 640 c 0
 715 640 697 646 683 659 c 0
 642 696 584 717 525 717 c 0
 386 717 252 589 252 437 c 0
 252 305 353 224 510 224 c 0
 635 224 732 258 860 258 c 0
 896 258 935 228 935 183 c 0
 935 144 903 110 863 108 c 0
 811 106 756 99 701 90 c 0
 639 76 570 54 506 36 c 0
 386 2 234 -30 0 -30 c 0
 -41 -30 -75 4 -75 45 c 0
 -75 86 -41 120 0 120 c 0
 108 120 195 126 268 137 c 1
 169 198 102 305 102 437 c 0
 102 673 300 867 525 867 c 0
 618 867 712 834 783 769 c 0
 799 754 807 734 807 714 c 0
EndSplineSet
Colour: ffff
EndChar

StartChar: uniFECC
Encoding: 65228 65228 169
Width: 990
VWidth: 2370
Flags: HMW
AnchorPoint: "Anchor-3" 486 811 basechar 0
AnchorPoint: "Anchor-1" 495 0 basechar 0
LayerCount: 2
Fore
SplineSet
238 546 m 1
 314 451 423 343 551 260 c 1
 678 329 747 411 747 483 c 0
 747 565 638 637 501 637 c 0
 424 637 316 599 238 546 c 1
544 90 m 1
 371 14 161 -30 0 -30 c 0
 -41 -30 -75 4 -75 45 c 0
 -75 86 -41 120 0 120 c 0
 108 120 255 145 389 190 c 1
 252 294 144 415 73 515 c 0
 64 528 59 543 59 558 c 0
 59 578 67 599 82 613 c 0
 186 712 353 787 501 787 c 0
 662 787 897 703 897 483 c 0
 897 352 809 251 705 178 c 1
 794 141 889 120 990 120 c 0
 1031 120 1065 86 1065 45 c 0
 1065 4 1031 -30 990 -30 c 0
 825 -30 673 20 544 90 c 1
EndSplineSet
Colour: ffff
EndChar

StartChar: uniFED2
Encoding: 65234 65234 173
Width: 1819
VWidth: 2189
Flags: HMW
AnchorPoint: "Anchor-3" 1474 1323 basechar 0
AnchorPoint: "Anchor-1" 770 0 basechar 0
LayerCount: 2
Fore
SplineSet
1383 200 m 1
 1504 253 1579 334 1579 484 c 0
 1579 634 1517 707 1389 707 c 0
 1287 707 1200 626 1200 472 c 0
 1200 338 1271 255 1383 200 c 1
209 682 m 0
 252 682 283 645 283 606 c 0
 283 591 278 576 269 563 c 0
 240 523 225 475 225 423 c 0
 225 171 492 120 830 120 c 0
 958 120 1084 127 1194 146 c 1
 1105 225 1050 336 1050 472 c 0
 1050 688 1189 857 1389 857 c 0
 1611 857 1729 690 1729 484 c 0
 1729 336 1670 220 1573 141 c 1
 1649 127 1732 120 1819 120 c 0
 1860 120 1894 86 1894 45 c 0
 1894 4 1860 -30 1819 -30 c 0
 1661 -30 1505 -9 1380 38 c 1
 1222 -15 1023 -30 830 -30 c 0
 522 -30 75 9 75 423 c 0
 75 505 99 585 147 651 c 0
 162 671 185 682 209 682 c 0
EndSplineSet
Refer: 223 57344 N 1 0 0 1 1243 1190 2
Colour: ffff
EndChar

StartChar: uniFED6
Encoding: 65238 65238 176
Width: 1395
VWidth: 2270
Flags: HMW
AnchorPoint: "Anchor-3" 989 1152 basechar 0
AnchorPoint: "Anchor-1" 702 -526 basechar 0
LayerCount: 2
Fore
SplineSet
1166 119 m 1
 1166 121 l 2
 1166 357 1091 595 947 595 c 0
 843 595 743 459 743 316 c 0
 743 175 852 119 1048 119 c 2
 1166 119 l 1
373 521 m 0
 411 521 448 490 448 446 c 0
 448 421 436 396 413 382 c 0
 308 316 225 170 225 -9 c 0
 225 -245 416 -397 676 -397 c 0
 943 -397 1102 -260 1151 -31 c 1
 1048 -31 l 2
 836 -31 593 47 593 316 c 0
 593 503 719 745 947 745 c 0
 1265 745 1316 331 1316 121 c 2
 1316 120 l 1
 1395 120 l 2
 1436 120 1470 86 1470 45 c 0
 1470 4 1436 -30 1395 -30 c 2
 1304 -30 l 1
 1250 -342 1019 -547 676 -547 c 0
 358 -547 75 -345 75 -9 c 0
 75 214 176 412 333 510 c 0
 345 518 359 521 373 521 c 0
EndSplineSet
Refer: 224 57345 N 1 0 0 1 649 1022 2
Colour: ffff
EndChar

StartChar: uniFEDA
Encoding: 65242 65242 179
Width: 1762
VWidth: 1424
Flags: HMW
AnchorPoint: "Anchor-3" 785 861 basechar 0
AnchorPoint: "Anchor-1" 706 0 basechar 0
LayerCount: 2
Fore
SplineSet
1261 1360 m 0
 1261 1400 1292 1436 1335 1436 c 0
 1372 1436 1405 1409 1410 1371 c 0
 1439 1148 1455 672 1455 431 c 0
 1455 205 1579 120 1762 120 c 0
 1803 120 1837 86 1837 45 c 0
 1837 4 1803 -30 1762 -30 c 0
 1597.40893074 -30 1449.24721031 37.0495046982 1368.703532 173.515621298 c 1
 1238.52896012 15.6470802423 984.94093994 -29 776 -29 c 0
 475 -29 75 53 75 433 c 0
 75 516 101 595 147 660 c 0
 161 680 184 692 208 692 c 0
 251 692 283 654 283 616 c 0
 283 601 279 587 270 574 c 0
 242 533 225 484 225 433 c 0
 225 203 467 121 776 121 c 0
 1073 121 1305 206 1305 431 c 0
 1305 664 1289 1144 1262 1351 c 0
 1262 1354 1261 1357 1261 1360 c 0
EndSplineSet
Refer: 240 1620 N 1 0 0 1 570 -618 2
Colour: ffff
EndChar

StartChar: uniFEDB
Encoding: 65243 65243 180
Width: 1041
VWidth: 2370
Flags: HMW
AnchorPoint: "Anchor-3" 412 1345 basechar 0
AnchorPoint: "Anchor-1" 268 0 basechar 0
LayerCount: 2
Fore
SplineSet
890 1436 m 0
 927 1436 966 1406 966 1362 c 0
 966 1335 951 1308 925 1294 c 2
 234 939 l 1
 398 806 619 593 619 366 c 0
 619 86 311 -30 0 -30 c 0
 -41 -30 -75 4 -75 45 c 0
 -75 86 -41 120 0 120 c 0
 304 120 469 232 469 366 c 0
 469 527 220 770 51 890 c 0
 31 904 21 928 21 952 c 0
 21 978 33 1004 60 1018 c 2
 857 1428 l 2
 867 1433 879 1436 890 1436 c 0
EndSplineSet
Colour: ffff
EndChar

StartChar: uniFEDC
Encoding: 65244 65244 181
Width: 987
VWidth: 2370
Flags: HMW
AnchorPoint: "Anchor-1" 268 0 basechar 0
AnchorPoint: "Anchor-3" 412 1345 basechar 0
LayerCount: 2
Fore
SplineSet
404 564 m 0
 404 602 435 639 479 639 c 0
 504 639 529 627 543 604 c 0
 583 540 614 473 641 412 c 0
 721 232 767 120 987 120 c 0
 1028 120 1062 86 1062 45 c 0
 1062 4 1028 -30 987 -30 c 0
 679 -30 581 176 503 352 c 0
 477 411 450 470 416 524 c 0
 408 537 404 550 404 564 c 0
EndSplineSet
Refer: 180 65243 N 1 0 0 1 0 0 2
Colour: ffff
EndChar

StartChar: uniFEDE
Encoding: 65246 65246 182
Width: 1541
VWidth: 2370
Flags: HMW
AnchorPoint: "Anchor-1" 649 -526 basechar 0
AnchorPoint: "Anchor-3" 616 420 basechar 0
LayerCount: 2
Fore
SplineSet
393 449 m 0
 430 449 468 418 468 374 c 0
 468 348 455 322 431 309 c 0
 326 248 225 134 225 -5 c 0
 225 -209 423 -352 663 -352 c 0
 994 -352 1145 -173 1145 170 c 0
 1145 227 1139 284 1139 342 c 2
 1139 347 l 1
 1127 608 1101 1105 1081 1355 c 1
 1081 1360 l 2
 1081 1400 1112 1436 1155 1436 c 0
 1194 1436 1228 1406 1231 1367 c 0
 1250.9167653 1113.06124243 1276.7836937 619.132573157 1288.8494518 355.295733296 c 0
 1288.91132226 354.533916036 1288.96156876 353.76861957 1289 353 c 0
 1297 187 1396 120 1541 120 c 0
 1582 120 1616 86 1616 45 c 0
 1616 4 1582 -30 1541 -30 c 0
 1451.32881881 -30 1360.42701002 -4.36192500781 1287.80121033 47.2857799613 c 1
 1247.09520173 -286.677968813 1034.29251197 -502 663 -502 c 0
 375 -502 75 -323 75 -5 c 0
 75 208 223 362 356 439 c 0
 368 446 380 449 393 449 c 0
EndSplineSet
Colour: ffff
EndChar

StartChar: uniFEDF
Encoding: 65247 65247 183
Width: 524
VWidth: 2370
Flags: HMW
AnchorPoint: "Anchor-1" 253 0 basechar 0
AnchorPoint: "Anchor-3" 336 1459 basechar 0
LayerCount: 2
Fore
SplineSet
200 1360 m 0
 200 1400 231 1436 274 1436 c 0
 311 1436 344 1409 349 1371 c 0
 388 1077 399 762 399 444 c 0
 399 168 276 -30 0 -30 c 0
 -41 -30 -75 4 -75 45 c 0
 -75 86 -41 120 0 120 c 0
 176 120 249 210 249 444 c 0
 249 758 238 1067 201 1351 c 0
 201 1354 200 1357 200 1360 c 0
EndSplineSet
Colour: ffff
EndChar

StartChar: uniFEE0
Encoding: 65248 65248 184
Width: 734
VWidth: 2370
Flags: HMW
AnchorPoint: "Anchor-3" 412 1459 basechar 0
AnchorPoint: "Anchor-1" 277 0 basechar 0
LayerCount: 2
Fore
SplineSet
238 1361 m 2
 238 1401 270 1436 313 1436 c 0
 351 1436 384 1407 388 1368 c 0
 415 1078 442 683 442 369 c 0
 442 194 559 120 734 120 c 0
 775 120 809 86 809 45 c 0
 809 4 775 -30 734 -30 c 0
 593.408896976 -30 452.817793953 18.5637679394 369.123638442 125.731941615 c 1
 289.860153153 19.6316290885 153.735688189 -30 0 -30 c 0
 -41 -30 -75 4 -75 45 c 0
 -75 86 -41 120 0 120 c 0
 195 120 292 190 292 369 c 0
 292 675 265 1068 238 1354 c 1
 238 1361 l 2
EndSplineSet
Colour: ffff
EndChar

StartChar: uniFEE2
Encoding: 65250 65250 185
Width: 1311
VWidth: 1263
Flags: HMW
AnchorPoint: "Anchor-1" 690 -169 basechar 0
AnchorPoint: "Anchor-3" 768 753 basechar 0
LayerCount: 2
Fore
SplineSet
663 45 m 0
 663 86 697 120 738 120 c 2
 1311 120 l 2
 1352 120 1386 86 1386 45 c 0
 1386 4 1352 -30 1311 -30 c 2
 738 -30 l 2
 697 -30 663 4 663 45 c 0
EndSplineSet
Refer: 88 1605 N 1 0 0 1 0 0 2
Colour: ffff
EndChar

StartChar: uniFEE4
Encoding: 65252 65252 186
Width: 1219
VWidth: 1350
Flags: HMW
AnchorPoint: "Anchor-1" 671 0 basechar 0
AnchorPoint: "Anchor-3" 667 811 basechar 0
LayerCount: 2
Fore
SplineSet
806 392 m 0
 806 430 835 467 880 467 c 0
 914 467 945 443 954 409 c 0
 995 238 1141 120 1219 120 c 0
 1260 120 1294 86 1294 45 c 0
 1294 4 1260 -30 1219 -30 c 0
 1037 -30 859 160 808 375 c 0
 807 381 806 386 806 392 c 0
EndSplineSet
Refer: 222 65251 N 1 0 0 1 0 0 2
Colour: ffff
EndChar

StartChar: uniFEE6
Encoding: 65254 65254 187
Width: 1559
VWidth: 2286
Flags: HMW
AnchorPoint: "Anchor-3" 719 520 basechar 0
AnchorPoint: "Anchor-1" 704 -526 basechar 0
LayerCount: 2
Fore
SplineSet
1199 227 m 0
 1199 264 1228 303 1273 303 c 0
 1304 303 1334 284 1345 253 c 0
 1381 152 1402 120 1559 120 c 0
 1600 120 1634 86 1634 45 c 0
 1634 4 1600 -30 1559 -30 c 0
 1355 -30 1255 56 1203 203 c 0
 1200 211 1199 219 1199 227 c 0
EndSplineSet
Refer: 223 57344 N 1 0 0 1 515 145 2
Refer: 85 1722 N 1 0 0 1 0 0 2
Colour: ffff
EndChar

StartChar: uniFEEA
Encoding: 65258 65258 188
Width: 1061
VWidth: 2370
Flags: HMW
AnchorPoint: "Anchor-3" 649 1174 basechar 0
AnchorPoint: "Anchor-1" 395 2 basechar 0
LayerCount: 2
Fore
SplineSet
526 328 m 0
 564 328 601 297 601 253 c 0
 601 218 575 186 540 179 c 0
 497 171 456 167 417 167 c 0
 218 167 75 283 75 458 c 0
 75 647 259 730 378 791 c 0
 519 862 579 909 575 956 c 2
 566 1058 l 1
 566 1065 l 2
 566 1105 599 1140 640 1140 c 0
 679 1140 713 1110 716 1072 c 2
 757 623 l 2
 795 204 912 120 1061 120 c 0
 1102 120 1136 86 1136 45 c 0
 1136 4 1102 -30 1061 -30 c 0
 800 -30 647 172 607 609 c 2
 595 741 l 1
 549 709 496 682 446 657 c 0
 307 586 225 531 225 458 c 0
 225 380 273 317 417 317 c 0
 445 317 477 320 512 327 c 0
 517 328 521 328 526 328 c 0
EndSplineSet
Colour: ffff
EndChar

StartChar: uniFEEB
Encoding: 65259 65259 189
Width: 1217
VWidth: 2370
Flags: HMW
AnchorPoint: "Anchor-3" 625 872 basechar 0
AnchorPoint: "Anchor-1" 585 0 basechar 0
LayerCount: 2
Fore
SplineSet
612 460 m 0
 612 577 543 653 420 653 c 0
 313 653 216 576 216 463 c 0
 216 374 310 272 438 205 c 1
 555 266 612 357 612 460 c 0
756 527 m 1
 760 505 762 483 762 460 c 0
 762 338 709 223 609 139 c 1
 658 126 705 120 743 120 c 0
 933 120 992 188 992 307 c 0
 992 387 920 450 756 527 c 1
49 965 m 0
 49 1006 83 1040 124 1040 c 0
 143 1040 163 1032 177 1018 c 0
 286 911 432 835 579 769 c 0
 823 660 1142 573 1142 307 c 0
 1142 92 983 -30 743 -30 c 0
 649 -30 531 0 437 40 c 1
 318 -6 175 -30 0 -30 c 0
 -41 -30 -75 4 -75 45 c 0
 -75 86 -41 120 0 120 c 0
 97 120 183 128 256 143 c 1
 154 220 66 328 66 463 c 0
 66 605 152 714 259 766 c 1
 193 807 128 856 71 912 c 0
 57 926 49 946 49 965 c 0
EndSplineSet
Colour: ffff
EndChar

StartChar: uniFEEC
Encoding: 65260 65260 190
Width: 930
VWidth: 2370
Flags: HMW
AnchorPoint: "Anchor-3" 534 782 basechar 0
AnchorPoint: "Anchor-1" 418 -557 basechar 0
LayerCount: 2
Fore
SplineSet
255 154 m 1
 515 230 629 413 629 546 c 0
 629 624 600 662 534 662 c 0
 375 662 260 448 255 154 c 1
1005 45 m 0
 1005 4 971 -30 930 -30 c 2
 770 -30 l 1
 788 -95 798 -163 798 -232 c 0
 798 -366 746 -547 554 -547 c 0
 318 -547 167 -266 121 -24 c 1
 82 -28 42 -30 0 -30 c 0
 -41 -30 -75 4 -75 45 c 0
 -75 86 -41 120 0 120 c 0
 37 120 72 122 105 125 c 1
 105 136 l 2
 105 437 217 812 534 812 c 0
 704 812 779 672 779 546 c 0
 779 325 595 86 268 2 c 1
 312 -227 451 -397 554 -397 c 0
 614 -397 648 -352 648 -232 c 0
 648 -146 623 -46 595 13 c 0
 590 24 588 35 588 45 c 0
 588 85 621 120 663 120 c 2
 930 120 l 2
 971 120 1005 86 1005 45 c 0
EndSplineSet
Colour: ffff
EndChar

StartChar: uniFEEE
Encoding: 65262 65262 191
Width: 857
VWidth: 2370
Flags: HMW
AnchorPoint: "Anchor-1" 419 -408 basechar 0
AnchorPoint: "Anchor-3" 466 811 basechar 0
LayerCount: 2
Fore
SplineSet
636 120 m 1
 636 139 l 2
 636 422 563 596 432 596 c 0
 337 596 260 471 260 313 c 0
 260 139 351 120 566 120 c 2
 636 120 l 1
120 -532 m 0
 82 -532 45 -502 45 -458 c 0
 45 -421 73 -388 110 -383 c 0
 345 -350 532 -210 604 -30 c 1
 566 -30 l 2
 355 -30 110 10 110 313 c 0
 110 489 197 746 432 746 c 0
 727 746 786 402 786 139 c 2
 786 120 l 1
 857 120 l 2
 898 120 932 86 932 45 c 0
 932 4 898 -30 857 -30 c 2
 762 -30 l 1
 684 -299 431 -489 131 -531 c 0
 127 -532 124 -532 120 -532 c 0
EndSplineSet
PairPos2: "'kern' Horizontal Kerning in Arabic lookup 2 per glyph data 4" uni063A dx=178 dy=0 dh=178 dv=0 dx=0 dy=0 dh=0 dv=0
PairPos2: "'kern' Horizontal Kerning in Arabic lookup 2 per glyph data 4" uni0639 dx=178 dy=0 dh=178 dv=0 dx=0 dy=0 dh=0 dv=0
PairPos2: "'kern' Horizontal Kerning in Arabic lookup 2 per glyph data 4" uni0625 dx=178 dy=0 dh=178 dv=0 dx=0 dy=0 dh=0 dv=0
PairPos2: "'kern' Horizontal Kerning in Arabic lookup 2 per glyph data 4" uni06CC dx=89 dy=0 dh=89 dv=0 dx=0 dy=0 dh=0 dv=0
PairPos2: "'kern' Horizontal Kerning in Arabic lookup 2 per glyph data 4" uni0626 dx=89 dy=0 dh=89 dv=0 dx=0 dy=0 dh=0 dv=0
PairPos2: "'kern' Horizontal Kerning in Arabic lookup 2 per glyph data 4" uni064A dx=89 dy=0 dh=89 dv=0 dx=0 dy=0 dh=0 dv=0
PairPos2: "'kern' Horizontal Kerning in Arabic lookup 2 per glyph data 4" uni0649 dx=89 dy=0 dh=89 dv=0 dx=0 dy=0 dh=0 dv=0
PairPos2: "'kern' Horizontal Kerning in Arabic lookup 2 per glyph data 3" uni06A9 dx=-233 dy=0 dh=-233 dv=0 dx=0 dy=0 dh=0 dv=0
PairPos2: "'kern' Horizontal Kerning in Arabic lookup 2 per glyph data 3" uni06AF dx=-233 dy=0 dh=-233 dv=0 dx=0 dy=0 dh=0 dv=0
PairPos2: "'kern' Horizontal Kerning in Arabic lookup 2 per glyph data 3" uniFB90 dx=-233 dy=0 dh=-233 dv=0 dx=0 dy=0 dh=0 dv=0
PairPos2: "'kern' Horizontal Kerning in Arabic lookup 2 per glyph data 3" uniFB94 dx=-233 dy=0 dh=-233 dv=0 dx=0 dy=0 dh=0 dv=0
PairPos2: "'kern' Horizontal Kerning in Arabic lookup 2 per glyph data 3" uniFEDB dx=-233 dy=0 dh=-233 dv=0 dx=0 dy=0 dh=0 dv=0
Colour: ffff
EndChar

StartChar: uniFEFB
Encoding: 65275 65275 199
Width: 1117
VWidth: 1839
Flags: HMW
AnchorPoint: "Anchor-2" 215 1459 baselig 1
AnchorPoint: "Anchor-0" 236 0 baselig 1
AnchorPoint: "Anchor-2" 862 1467 baselig 0
AnchorPoint: "Anchor-0" 807 -3 baselig 0
LayerCount: 2
Fore
SplineSet
838 1366 m 0
 838 1405 869 1441 913 1441 c 0
 950 1441 982 1413 987 1375 c 0
 1024 1081 1042 702 1042 386 c 0
 1042 100 765 -30 467 -30 c 0
 374 -30 229 -15 121 30 c 0
 92 42 75 70 75 99 c 0
 75 144 113 174 150 174 c 0
 160 174 170 172 179 168 c 0
 255 137 390 120 467 120 c 0
 741 120 892 228 892 386 c 0
 892 696 874 1073 839 1357 c 0
 839 1360 838 1363 838 1366 c 0
199 1337 m 0
 199 1375 228 1413 273 1413 c 0
 301 1413 330 1397 342 1370 c 0
 440 1160 533 759 533 329 c 0
 533 288 499 254 458 254 c 0
 417 254 383 288 383 329 c 0
 383 737 290 1126 206 1306 c 0
 201 1316 199 1326 199 1337 c 0
EndSplineSet
Ligature2: "'rlig' Required Ligatures in Arabic lookup 7 subtable" uniFEDF uniFE8E
PairPos2: "'kern' Horizontal Kerning in Arabic lookup 2 per glyph data 0" uni062C dx=-134 dy=0 dh=-134 dv=0 dx=0 dy=0 dh=0 dv=0
PairPos2: "'kern' Horizontal Kerning in Arabic lookup 2 per glyph data 0" uni062D dx=-134 dy=0 dh=-134 dv=0 dx=0 dy=0 dh=0 dv=0
PairPos2: "'kern' Horizontal Kerning in Arabic lookup 2 per glyph data 0" uni062E dx=-134 dy=0 dh=-134 dv=0 dx=0 dy=0 dh=0 dv=0
PairPos2: "'kern' Horizontal Kerning in Arabic lookup 2 per glyph data 0" uni0639 dx=-401 dy=0 dh=-401 dv=0 dx=0 dy=0 dh=0 dv=0
PairPos2: "'kern' Horizontal Kerning in Arabic lookup 2 per glyph data 0" uni063A dx=-401 dy=0 dh=-401 dv=0 dx=0 dy=0 dh=0 dv=0
PairPos2: "'kern' Horizontal Kerning in Arabic lookup 2 per glyph data 0" uni0686 dx=-134 dy=0 dh=-134 dv=0 dx=0 dy=0 dh=0 dv=0
LCarets2: 1 0
Colour: ffff
EndChar

StartChar: uniFEFC
Encoding: 65276 65276 200
Width: 1340
VWidth: 1839
Flags: HMW
AnchorPoint: "Anchor-0" 427 0 baselig 1
AnchorPoint: "Anchor-2" 252 1459 baselig 1
AnchorPoint: "Anchor-2" 977 1457 baselig 0
AnchorPoint: "Anchor-0" 959 -1 baselig 0
LayerCount: 2
Fore
SplineSet
1024 1391 m 0
 1065 1391 1099 1357 1099 1316 c 2
 1099 637 l 2
 1099 178 1179 120 1340 120 c 0
 1381 120 1415 86 1415 45 c 0
 1415 4 1381 -30 1340 -30 c 0
 1160.23997339 -30 1051.08754275 53.1152272669 995.371736604 231.903556476 c 1
 844.591654413 14.0784103659 539.697341526 -30 150 -30 c 0
 109 -30 75 4 75 45 c 0
 75 86 109 120 150 120 c 0
 713 120 949 184 949 637 c 2
 949 1316 l 2
 949 1357 983 1391 1024 1391 c 0
234 1303 m 0
 234 1341 263 1379 308 1379 c 0
 340 1379 371 1358 381 1326 c 0
 475 1022 545 698 569 362 c 1
 569 357 l 2
 569 317 537 282 494 282 c 0
 455 282 422 313 419 352 c 0
 396 674 329 986 237 1282 c 0
 235 1289 234 1296 234 1303 c 0
EndSplineSet
Ligature2: "'rlig' Required Ligatures in Arabic lookup 7 subtable" uniFEE0 uniFE8E
PairPos2: "'kern' Horizontal Kerning in Arabic lookup 2 per glyph data 0" uni062C dx=-134 dy=0 dh=-134 dv=0 dx=0 dy=0 dh=0 dv=0
PairPos2: "'kern' Horizontal Kerning in Arabic lookup 2 per glyph data 0" uni062D dx=-134 dy=0 dh=-134 dv=0 dx=0 dy=0 dh=0 dv=0
PairPos2: "'kern' Horizontal Kerning in Arabic lookup 2 per glyph data 0" uni062E dx=-134 dy=0 dh=-134 dv=0 dx=0 dy=0 dh=0 dv=0
PairPos2: "'kern' Horizontal Kerning in Arabic lookup 2 per glyph data 0" uni0639 dx=-401 dy=0 dh=-401 dv=0 dx=0 dy=0 dh=0 dv=0
PairPos2: "'kern' Horizontal Kerning in Arabic lookup 2 per glyph data 0" uni063A dx=-401 dy=0 dh=-401 dv=0 dx=0 dy=0 dh=0 dv=0
PairPos2: "'kern' Horizontal Kerning in Arabic lookup 2 per glyph data 0" uni0686 dx=-134 dy=0 dh=-134 dv=0 dx=0 dy=0 dh=0 dv=0
LCarets2: 1 0
Colour: ffff
EndChar

StartChar: uni06CC
Encoding: 1740 1740 201
Width: 1385
VWidth: 2370
Flags: HMW
AnchorPoint: "Anchor-3" 424 624 basechar 0
AnchorPoint: "Anchor-1" 724 -563 basechar 0
LayerCount: 2
Fore
SplineSet
1293 736 m 0
 1293 694 1258 661 1218 661 c 0
 1201 661 1183 667 1169 679 c 0
 1131 711 1075 736 1010 736 c 0
 848 736 704 602 704 430 c 0
 704 244 802 233 946 217 c 0
 1107 199 1310 152 1310 -82 c 0
 1310 -378 1041 -528 730 -528 c 0
 379 -528 75 -320 75 74 c 0
 75 230 123 365 171 472 c 0
 184 499 212 516 240 516 c 0
 285 516 314 477 314 440 c 0
 314 430 311 420 307 410 c 0
 263 313 225 200 225 74 c 0
 225 -224 435 -378 730 -378 c 0
 1007 -378 1160 -260 1160 -82 c 0
 1160 26 1101 47 930 67 c 0
 786 83 554 130 554 430 c 0
 554 688 768 886 1010 886 c 0
 1113 886 1203 849 1267 793 c 0
 1284 778 1293 757 1293 736 c 0
EndSplineSet
Substitution2: "'init' Initial Forms in Arabic lookup 6 subtable" uniFBFE
Substitution2: "'medi' Medial Forms in Arabic lookup 5 subtable" uniFBFF
Substitution2: "'fina' Terminal Forms in Arabic lookup 4 subtable" uniFBFD
Colour: ffff
EndChar

StartChar: uniFBFD
Encoding: 64509 64509 202
Width: 1459
VWidth: 1839
Flags: HMW
AnchorPoint: "Anchor-3" 793 214 basechar 0
AnchorPoint: "Anchor-1" 647 -580 basechar 0
LayerCount: 2
Fore
SplineSet
353 493 m 0
 394 493 428 458 428 418 c 0
 428 400 421 381 408 367 c 0
 280 228 225 36 225 -72 c 0
 225 -344 461 -451 728 -451 c 0
 1060 -451 1174 -310 1174 -232 c 0
 1174 -167 1095 -54 830 -30 c 0
 794 -27 762 4 762 44 c 0
 762 85 796 120 837 120 c 2
 1459 120 l 2
 1500 120 1534 86 1534 45 c 0
 1534 4 1500 -30 1459 -30 c 2
 1233 -30 l 1
 1291 -87 1324 -158 1324 -232 c 0
 1324 -446 1082 -601 728 -601 c 0
 435 -601 75 -468 75 -72 c 0
 75 76 140 298 298 469 c 0
 313 485 333 493 353 493 c 0
EndSplineSet
Colour: ffff
EndChar

StartChar: uniFB8F
Encoding: 64399 64399 205
Width: 1884
VWidth: 1478
Flags: HMW
AnchorPoint: "Anchor-1" 696 0 basechar 0
AnchorPoint: "Anchor-3" 1242 1297 basechar 0
LayerCount: 2
Fore
SplineSet
1120 697 m 0
 1120 737 1152 773 1195 773 c 0
 1218 773 1240 763 1255 744 c 0
 1313 669 1357 587 1400 508 c 0
 1519 289 1612 120 1884 120 c 0
 1925 120 1959 86 1959 45 c 0
 1959 4 1925 -30 1884 -30 c 0
 1523 -30 1383 223 1268 436 c 0
 1226 514 1184 588 1135 652 c 0
 1125 665 1120 681 1120 697 c 0
EndSplineSet
Refer: 92 1705 N 1 0 0 1 0 0 2
Colour: ffff
EndChar

StartChar: uniFBE8
Encoding: 64488 64488 218
Width: 532
VWidth: 1437
Flags: HMW
AnchorPoint: "Anchor-3" 276 832 basechar 0
AnchorPoint: "Anchor-1" 294 89 basechar 0
LayerCount: 2
Fore
SplineSet
197 827 m 0
 197 864 227 902 272 902 c 0
 301 902 329 885 341 856 c 0
 420 666 457 513 457 387 c 0
 457 90 216 -30 0 -30 c 0
 -41 -30 -75 4 -75 45 c 0
 -75 86 -41 120 0 120 c 0
 171 120 307 196 307 387 c 0
 307 483 278 620 203 798 c 0
 199 807 197 817 197 827 c 0
EndSplineSet
Colour: ffff
EndChar

StartChar: uniFBE9
Encoding: 64489 64489 219
Width: 861
VWidth: 1437
Flags: HMW
AnchorPoint: "Anchor-3" 283 565 basechar 0
AnchorPoint: "Anchor-1" 261 0 basechar 0
LayerCount: 2
Fore
SplineSet
370 581 m 0
 370 619 400 657 444 657 c 0
 481 657 516 628 520 590 c 0
 528 515 536 440 547 383 c 0
 584 187 631 120 861 120 c 0
 902 120 936 86 936 45 c 0
 936 4 902 -30 861 -30 c 0
 652 -30 517 41 449 189 c 1
 357 46 194 -30 0 -30 c 0
 -41 -30 -75 4 -75 45 c 0
 -75 86 -41 120 0 120 c 0
 238 120 377 248 377 475 c 0
 377 506 370 547 370 581 c 0
EndSplineSet
Colour: ffff
EndChar

StartChar: uniFEE3
Encoding: 65251 65251 222
Width: 1039
VWidth: 2370
Flags: HMW
AnchorPoint: "Anchor-3" 605 811 basechar 0
AnchorPoint: "Anchor-1" 613 0 basechar 0
LayerCount: 2
Fore
SplineSet
332 202 m 1
 344 209 356 212 369 212 c 0
 386 212 403 206 417 195 c 0
 476 147 554 120 623 120 c 0
 729 120 814 171 814 326 c 0
 814 460 697 573 607 573 c 0
 500 573 438 504 397 376 c 0
 378 319 359 259 332 202 c 1
295 135 m 1
 236 44 141 -30 0 -30 c 0
 -41 -30 -75 4 -75 45 c 0
 -75 86 -41 120 0 120 c 0
 94 120 141 162 183 240 c 0
 210 290 233 355 255 422 c 0
 304 572 408 723 607 723 c 0
 799 723 964 532 964 326 c 0
 964 87 797 -30 623 -30 c 0
 518 -30 409 9 323 79 c 0
 307 92 296 114 295 135 c 1
EndSplineSet
Colour: ffff
EndChar

StartChar: uniE000
Encoding: 57344 57344 223
Width: 424
VWidth: 1823
Flags: HMW
LayerCount: 2
Fore
SplineSet
100 147 m 0
 100 203 155 247 219 247 c 0
 283 247 319 204 319 140 c 0
 319 76 277 22 213 22 c 0
 149 22 100 85 100 147 c 0
EndSplineSet
Colour: ff0000
EndChar

StartChar: uniE001
Encoding: 57345 57345 224
Width: 660
VWidth: 1823
Flags: HMW
LayerCount: 2
Fore
SplineSet
98 25 m 0
 60 25 24 57 24 99 c 0
 24 122 34 145 54 159 c 0
 142 224 281 258 400 258 c 0
 474 258 573 250 619 165 c 0
 630 145 635 122 635 99 c 0
 635 47 603 9 560 9 c 0
 514 9 483 45 483 85 c 0
 483 88 484 92 484 95 c 0
 473 101 441 108 400 108 c 0
 309 108 190 74 142 39 c 0
 129 29 113 25 98 25 c 0
EndSplineSet
Colour: ffff
EndChar

StartChar: uniE002
Encoding: 57346 57346 225
Width: 696
VWidth: 1823
Flags: HMW
LayerCount: 2
Fore
SplineSet
322 43 m 0
 284 43 246 72 246 117 c 0
 246 150 268 181 300 190 c 0
 368 210 474 331 474 370 c 0
 474 379 451 389 402 389 c 0
 303 389 151 337 129 321 c 0
 116 311 100 307 85 307 c 0
 47 307 11 339 11 381 c 0
 11 404 21 427 41 441 c 0
 109 491 265 539 402 539 c 0
 469 539 557 527 602 451 c 0
 616 427 624 398 624 370 c 0
 624 223 462 80 342 46 c 0
 335 44 329 43 322 43 c 0
EndSplineSet
Colour: ffff
EndChar

StartChar: uniE003
Encoding: 57347 57347 226
Width: 696
VWidth: 1823
Flags: HMW
LayerCount: 2
Fore
SplineSet
475 51 m 0
 432 51 400 88 400 126 c 0
 400 140 404 155 413 168 c 0
 422 182 428 197 428 230 c 0
 428 289 386 331 308 331 c 0
 246 331 197 281 197 234 c 0
 197 173 226 144 284 91 c 0
 300 77 308 56 308 36 c 0
 308 -5 273 -38 233 -38 c 0
 215 -38 197 -32 183 -19 c 0
 127 32 47 105 47 234 c 0
 47 377 174 481 308 481 c 0
 448 481 578 385 578 230 c 0
 578 158 552 51 475 51 c 0
EndSplineSet
Colour: ffff
EndChar

StartChar: uniE004
Encoding: 57348 57348 227
Width: 1937
VWidth: 2370
Flags: HMW
AnchorPoint: "Anchor-3" 839 577 basechar 0
AnchorPoint: "Anchor-1" 783 -1 basechar 0
LayerCount: 2
Fore
SplineSet
184 713 m 0
 230 713 259 675 259 637 c 0
 259 629 258 621 255 613 c 0
 235 556 225 496 225 414 c 0
 225 244 404 120 779 120 c 0
 1167 120 1436 269 1498 547 c 0
 1505 580 1534 606 1570 606 c 0
 1611 606 1646 572 1646 531 c 0
 1646 238 1696 120 1937 120 c 0
 1978 120 2012 86 2012 45 c 0
 2012 4 1978 -30 1937 -30 c 0
 1707 -30 1574 83 1525 261 c 1
 1364 59 1089 -30 779 -30 c 0
 396 -30 75 104 75 414 c 0
 75 508 87 588 113 663 c 0
 123 694 153 713 184 713 c 0
EndSplineSet
Colour: ffff
EndChar

StartChar: uniE005
Encoding: 57349 57349 228
Width: 834
VWidth: 2370
Flags: HMW
AnchorPoint: "Anchor-3" 430 1141 basechar 0
AnchorPoint: "Anchor-1" 372 0 basechar 0
LayerCount: 2
Fore
SplineSet
410 1121 m 0
 712 1121 759 697 759 399 c 0
 759 55 436 -30 0 -30 c 0
 -41 -30 -75 4 -75 45 c 0
 -75 86 -41 120 0 120 c 0
 430 120 593 198 608 370 c 1
 554 352 492 340 427 340 c 0
 226 340 67 441 67 665 c 0
 67 838 152 1121 410 1121 c 0
605 528 m 1
 587 810 507 971 410 971 c 0
 294 971 217 822 217 665 c 0
 217 535 274 490 427 490 c 0
 487 490 542 503 591 523 c 0
 595 525 600 527 605 528 c 1
EndSplineSet
Colour: ffff
EndChar

StartChar: uniE006
Encoding: 57350 57350 229
Width: 885
VWidth: 2370
Flags: HMW
AnchorPoint: "Anchor-3" 522 921 basechar 0
AnchorPoint: "Anchor-1" 337 0 basechar 0
LayerCount: 2
Fore
SplineSet
439 214 m 1
 565 279 647 374 647 503 c 0
 647 647 580 733 467 733 c 0
 341 733 238 630 238 504 c 0
 238 374 315 279 439 214 c 1
439 49 m 1
 310 -3 149 -30 0 -30 c 0
 -41 -30 -75 4 -75 45 c 0
 -75 86 -41 120 0 120 c 0
 88 120 179 130 263 150 c 1
 158 234 88 355 88 504 c 0
 88 714 259 883 467 883 c 0
 688 883 797 693 797 503 c 0
 797 353 723 234 617 150 c 1
 700 130 792 120 885 120 c 0
 926 120 960 86 960 45 c 0
 960 4 926 -30 885 -30 c 0
 728 -30 568 -3 439 49 c 1
EndSplineSet
Colour: ffff
EndChar

StartChar: uni064E
Encoding: 1614 1614 230
Width: 0
VWidth: -1171
Flags: HMW
AnchorPoint: "Anchor-5" 206 944 mark 0
AnchorPoint: "Anchor-2" 206 944 mark 0
AnchorPoint: "Anchor-3" 206 944 mark 0
AnchorPoint: "Anchor-5" 206 1404 basemark 0
LayerCount: 2
Fore
SplineSet
32 1294 m 2
 26 1292 20 1291 14 1291 c 0
 -15 1291 -34 1318 -34 1344 c 0
 -34 1362 -25 1380 -2 1388 c 2
 403 1532 l 2
 409 1534 415 1535 421 1535 c 0
 450 1535 469 1508 469 1482 c 0
 469 1464 460 1446 437 1438 c 2
 32 1294 l 2
EndSplineSet
Colour: ffff00
EndChar

StartChar: uni064F
Encoding: 1615 1615 234
Width: 0
VWidth: 2274
Flags: HMW
AnchorPoint: "Anchor-5" 162 858 mark 0
AnchorPoint: "Anchor-5" 171 1537 basemark 0
AnchorPoint: "Anchor-3" 162 858 mark 0
AnchorPoint: "Anchor-2" 162 858 mark 0
LayerCount: 2
Fore
SplineSet
227 1442 m 1
 229 1456 230 1471 230 1488 c 0
 230 1588 214 1628 191 1628 c 0
 149 1628 107 1569 107 1508 c 0
 107 1485 139 1456 227 1442 c 1
405 1383 m 0
 405 1356 382 1333 355 1333 c 0
 338 1333 319 1333 298 1334 c 1
 240 1221 116 1186 -32 1178 c 0
 -33 1178 -34 1178 -35 1178 c 0
 -67 1178 -83 1204 -83 1229 c 0
 -83 1253 -69 1276 -38 1278 c 0
 76 1284 148 1308 186 1348 c 1
 111 1364 7 1402 7 1508 c 0
 7 1595 63 1728 191 1728 c 0
 326 1728 330 1572 330 1499 c 2
 330 1488 l 2
 330 1469 329 1450 327 1433 c 1
 355 1433 l 2
 382 1433 405 1410 405 1383 c 0
EndSplineSet
Colour: ffff00
EndChar

StartChar: uni0651
Encoding: 1617 1617 235
Width: 0
VWidth: 2279
Flags: HMW
AnchorPoint: "Anchor-5" 239 858 mark 0
AnchorPoint: "Anchor-5" 239 1330 basemark 0
AnchorPoint: "Anchor-3" 239 858 mark 0
AnchorPoint: "Anchor-2" 239 858 mark 0
LayerCount: 2
Fore
SplineSet
77 1568 m 0
 105 1568 127 1544 127 1519 c 0
 127 1508 123 1497 116 1488 c 0
 88 1452 66 1397 66 1360 c 0
 66 1322 79 1314 110 1314 c 0
 142 1314 189 1346 189 1442 c 1
 289 1442 l 1
 289 1345 335 1313 364 1313 c 0
 396 1313 413 1320 413 1374 c 0
 413 1427 390 1499 372 1540 c 0
 369 1547 367 1555 367 1561 c 0
 367 1589 395 1609 421 1609 c 0
 438 1609 455 1600 464 1580 c 0
 486 1531 513 1451 513 1374 c 0
 513 1274 448 1213 364 1213 c 0
 313 1213 268 1239 238 1278 c 1
 205 1237 160 1214 110 1214 c 0
 35 1214 -34 1266 -34 1360 c 0
 -34 1429 -3 1498 36 1548 c 0
 46 1561 62 1568 77 1568 c 0
EndSplineSet
Colour: ffff00
EndChar

StartChar: uni0670
Encoding: 1648 1648 236
Width: 0
VWidth: 1823
Flags: HMW
AnchorPoint: "Anchor-5" 33 861 mark 0
AnchorPoint: "Anchor-5" 33 1413 basemark 0
AnchorPoint: "Anchor-3" 33 861 mark 0
AnchorPoint: "Anchor-2" 33 861 mark 0
LayerCount: 2
Fore
SplineSet
-36 1624 m 0
 -36 1655 -10 1671 15 1671 c 0
 38 1671 62 1657 64 1627 c 0
 70 1550 76 1480 76 1409 c 0
 76 1335 69 1259 44 1183 c 0
 36 1160 19 1150 -0 1150 c 0
 -26 1150 -54 1170 -54 1199 c 0
 -54 1204 -53 1209 -51 1215 c 0
 -30 1277 -24 1341 -24 1409 c 0
 -24 1475 -36 1546 -36 1624 c 0
EndSplineSet
Colour: ffff00
EndChar

StartChar: uni064C
Encoding: 1612 1612 237
Width: 0
VWidth: 2274
Flags: HMW
AnchorPoint: "Anchor-5" 180 858 mark 0
AnchorPoint: "Anchor-5" 187 1497 basemark 0
AnchorPoint: "Anchor-3" 180 858 mark 0
AnchorPoint: "Anchor-2" 180 858 mark 0
LayerCount: 2
Fore
SplineSet
13 1414 m 0
 13 1388 -8 1363 -36 1363 c 0
 -51 1363 -66 1370 -76 1382 c 0
 -119 1435 -137 1497 -137 1559 c 0
 -137 1739 15 1926 193 1941 c 1
 198 1941 l 2
 229 1941 245 1915 245 1890 c 0
 245 1867 231 1843 201 1841 c 0
 85 1832 -37 1691 -37 1559 c 0
 -37 1517 -26 1479 2 1444 c 0
 9 1435 13 1425 13 1414 c 0
EndSplineSet
Refer: 234 1615 N 1 0 0 1 0 0 2
Colour: ffff00
EndChar

StartChar: uni0652
Encoding: 1618 1618 238
Width: 0
VWidth: 2274
Flags: HMW
AnchorPoint: "Anchor-5" 183 944 mark 0
AnchorPoint: "Anchor-5" 167 1441 basemark 0
AnchorPoint: "Anchor-3" 183 944 mark 0
AnchorPoint: "Anchor-2" 183 944 mark 0
LayerCount: 2
Fore
SplineSet
176 1639 m 0
 289 1639 363 1546 363 1452 c 0
 363 1336 280 1247 175 1247 c 0
 65 1247 -13 1339 -13 1434 c 0
 -13 1548 73 1639 176 1639 c 0
176 1539 m 0
 135 1539 87 1498 87 1434 c 0
 87 1391 125 1347 175 1347 c 0
 218 1347 263 1384 263 1452 c 0
 263 1496 229 1539 176 1539 c 0
EndSplineSet
Colour: ffff00
EndChar

StartChar: uni0653
Encoding: 1619 1619 239
Width: 0
VWidth: 1823
Flags: HMW
AnchorPoint: "Anchor-5" 308 858 mark 0
AnchorPoint: "Anchor-5" 316 1325 basemark 0
AnchorPoint: "Anchor-3" 308 858 mark 0
AnchorPoint: "Anchor-2" 308 858 mark 0
LayerCount: 2
Fore
SplineSet
526 1438 m 0
 535 1457 552 1465 568 1465 c 0
 594 1465 621 1444 621 1416 c 0
 621 1409 620 1402 616 1394 c 0
 581 1322 522 1238 419 1238 c 0
 374 1238 327 1255 278 1288 c 0
 244 1311 218 1319 194 1319 c 0
 150 1319 104 1289 72 1233 c 0
 62 1216 47 1209 32 1209 c 0
 6 1209 -21 1230 -21 1258 c 0
 -21 1266 -19 1274 -14 1283 c 0
 30 1359 102 1419 194 1419 c 0
 242 1419 290 1401 334 1370 c 0
 371 1345 400 1338 419 1338 c 0
 458 1338 495 1372 526 1438 c 0
EndSplineSet
Colour: ffff00
EndChar

StartChar: uni0654
Encoding: 1620 1620 240
Width: 0
VWidth: 2280
Flags: HMW
AnchorPoint: "Anchor-5" 236 858 mark 0
AnchorPoint: "Anchor-5" 236 1503 basemark 0
AnchorPoint: "Anchor-3" 236 858 mark 0
AnchorPoint: "Anchor-2" 236 858 mark 0
LayerCount: 2
Fore
SplineSet
402 1587 m 0
 402 1561 381 1537 352 1537 c 0
 337 1537 321 1544 312 1557 c 0
 285 1593 257 1604 228 1604 c 0
 168 1604 100 1544 100 1463 c 0
 100 1397 135 1373 221 1373 c 0
 274 1373 338 1385 403 1408 c 0
 409 1410 415 1411 420 1411 c 0
 448 1411 468 1384 468 1358 c 0
 468 1340 458 1322 435 1314 c 2
 30 1173 l 2
 24 1171 18 1170 13 1170 c 0
 -16 1170 -35 1196 -35 1222 c 0
 -35 1241 -25 1259 -2 1267 c 2
 92 1300 l 1
 36 1329 0 1387 0 1463 c 0
 0 1598 108 1704 228 1704 c 0
 289 1704 349 1675 392 1617 c 0
 399 1608 402 1598 402 1587 c 0
EndSplineSet
Colour: ffff00
EndChar

StartChar: uni0615
Encoding: 1557 1557 244
Width: 0
VWidth: 1839
Flags: HMW
AnchorPoint: "Anchor-5" 256 768 mark 0
AnchorPoint: "Anchor-5" 247 1347 basemark 0
AnchorPoint: "Anchor-3" 256 768 mark 0
AnchorPoint: "Anchor-2" 256 768 mark 0
LayerCount: 2
Fore
SplineSet
102 1711 m 0
 101 1714 101 1718 101 1721 c 0
 101 1751 127 1767 152 1767 c 0
 174 1767 195 1755 200 1727 c 0
 215 1634 224 1539 224 1441 c 0
 224 1427 223 1410 223 1398 c 1
 267 1441 324 1472 393 1472 c 0
 483 1472 565 1406 565 1309 c 0
 565 1138 369 1107 258 1107 c 0
 158 1107 78 1121 -5 1143 c 0
 -30 1150 -40 1169 -40 1189 c 0
 -40 1215 -22 1241 7 1241 c 0
 12 1241 16 1240 21 1239 c 0
 50 1231 80 1225 109 1220 c 1
 119 1296 124 1370 124 1441 c 0
 124 1533 117 1624 102 1711 c 0
220 1208 m 1
 233 1207 245 1207 258 1207 c 0
 377 1207 465 1244 465 1309 c 0
 465 1344 437 1372 393 1372 c 0
 319 1372 259 1304 220 1208 c 1
EndSplineSet
Colour: ffff00
EndChar

StartChar: uniE007
Encoding: 57351 57351 251
Width: 1067
VWidth: 1839
Flags: HMW
LayerCount: 2
Fore
SplineSet
167 1263 m 0
 129 1263 92 1293 92 1337 c 0
 92 1362 105 1388 128 1402 c 2
 722 1769 l 2
 734 1776 747 1780 760 1780 c 0
 798 1780 836 1749 836 1705 c 0
 836 1680 823 1655 800 1641 c 2
 206 1274 l 2
 194 1266 180 1263 167 1263 c 0
EndSplineSet
Colour: ffff
EndChar

StartChar: uni0643
Encoding: 1603 1603 261
Width: 1550
VWidth: 1478
Flags: HMW
AnchorPoint: "Anchor-3" 791 873 basechar 0
AnchorPoint: "Anchor-1" 703 0 basechar 0
LayerCount: 2
Fore
SplineSet
1278 1315 m 0
 1278 1355 1309 1391 1352 1391 c 0
 1389 1391 1422 1364 1427 1326 c 0
 1460 1080 1475 737 1475 471 c 0
 1475 83 1185 -30 845 -30 c 0
 510 -30 75 58 75 473 c 0
 75 562 101 649 152 722 c 0
 166 742 189 754 213 754 c 0
 256 754 287 717 287 679 c 0
 287 664 283 649 274 636 c 0
 241 589 225 534 225 473 c 0
 225 208 502 120 845 120 c 0
 1163 120 1325 197 1325 471 c 0
 1325 731 1310 1072 1279 1306 c 0
 1279 1309 1278 1312 1278 1315 c 0
EndSplineSet
Refer: 240 1620 N 1 0 0 1 565 -617 2
Substitution2: "'init' Initial Forms in Arabic lookup 6 subtable" uniFEDB
Substitution2: "'medi' Medial Forms in Arabic lookup 5 subtable" uniFEDC
Substitution2: "'fina' Terminal Forms in Arabic lookup 4 subtable" uniFEDA
Colour: ffff
EndChar

StartChar: uni065A
Encoding: 1626 1626 265
Width: 0
VWidth: -365
Flags: HMW
AnchorPoint: "Anchor-5" 240 826 mark 0
AnchorPoint: "Anchor-5" 240 1381 basemark 0
AnchorPoint: "Anchor-3" 240 826 mark 0
AnchorPoint: "Anchor-2" 240 826 mark 0
LayerCount: 2
Fore
SplineSet
460 1574 m 0
 487 1574 510 1551 510 1524 c 0
 510 1511 505 1498 495 1488 c 0
 378 1376 293 1119 293 1004 c 1
 193 1004 l 1
 193 1119 107 1376 -9 1488 c 0
 -19 1498 -24 1511 -24 1524 c 0
 -24 1551 -1 1574 26 1574 c 0
 39 1574 51 1569 61 1560 c 0
 143 1481 203 1363 243 1249 c 1
 282 1361 343 1481 425 1560 c 0
 435 1569 447 1574 460 1574 c 0
EndSplineSet
Colour: ffff00
EndChar

StartChar: uni0621
Encoding: 1569 1569 266
Width: 857
VWidth: 2280
Flags: HMW
AnchorPoint: "Anchor-3" 428 736 basechar 0
AnchorPoint: "Anchor-1" 428 175 basechar 0
LayerCount: 2
Fore
SplineSet
680 679 m 0
 680 641 648 604 605 604 c 0
 581 604 557 616 543 637 c 0
 515 679 487 701 423 701 c 0
 312 701 217 577 217 451 c 0
 217 360 260 283 404 283 c 0
 512 283 636 305 743 305 c 0
 784 305 818 270 818 229 c 0
 818 191 787 162 757 156 c 0
 549 116 348 50 163 -77 c 0
 150 -86 135 -90 121 -90 c 0
 83 -90 46 -58 46 -15 c 0
 46 9 58 33 79 47 c 0
 140 89 201 123 266 155 c 1
 129 204 67 331 67 451 c 0
 67 633 200 851 423 851 c 0
 539 851 619 793 667 721 c 0
 676 708 680 693 680 679 c 0
EndSplineSet
Colour: ffff
EndChar

StartChar: uni0640
Encoding: 1600 1600 267
Width: 668
VWidth: 1437
Flags: HMW
AnchorPoint: "Anchor-1" 334 -169 basechar 0
AnchorPoint: "Anchor-3" 334 520 basechar 0
LayerCount: 2
Fore
SplineSet
-75 45 m 0
 -75 86 -41 120 0 120 c 2
 668 120 l 2
 709 120 743 86 743 45 c 0
 743 4 709 -30 668 -30 c 2
 0 -30 l 2
 -41 -30 -75 4 -75 45 c 0
EndSplineSet
Colour: ffff
EndChar

StartChar: uni0660
Encoding: 1632 1632 275
Width: 737
VWidth: 2694
Flags: HMW
LayerCount: 2
Fore
SplineSet
98 475 m 0
 98 631 239 742 392 742 c 0
 537 742 640 624 640 484 c 0
 640 338 533 198 380 198 c 0
 226 198 98 325 98 475 c 0
222 475 m 0
 222 397 294 322 380 322 c 0
 447 322 514 392 514 484 c 0
 514 564 463 616 392 616 c 0
 293 616 222 547 222 475 c 0
EndSplineSet
PairPos2: "'kern' Horizontal Kerning in Arabic lookup 3 per glyph data 0" uni0667 dx=-89 dy=0 dh=-89 dv=0 dx=0 dy=0 dh=0 dv=0
PairPos2: "'kern' Horizontal Kerning in Arabic lookup 3 per glyph data 0" uni0666 dx=-89 dy=0 dh=-89 dv=0 dx=0 dy=0 dh=0 dv=0
PairPos2: "'kern' Horizontal Kerning in Arabic lookup 3 per glyph data 0" uni0662 dx=-111 dy=0 dh=-111 dv=0 dx=0 dy=0 dh=0 dv=0
Colour: ff
EndChar

StartChar: uni0661
Encoding: 1633 1633 276
Width: 540
VWidth: 1823
Flags: HMW
LayerCount: 2
Fore
SplineSet
85 1361 m 0
 85 1399 114 1436 160 1436 c 0
 191 1436 221 1416 231 1385 c 0
 379 954 455 492 455 0 c 0
 455 -41 421 -75 380 -75 c 0
 339 -75 305 -41 305 -0 c 0
 305 476 231 922 89 1337 c 0
 86 1345 85 1353 85 1361 c 0
EndSplineSet
Colour: ffff
EndChar

StartChar: uni0662
Encoding: 1634 1634 277
Width: 1007
VWidth: 1823
Flags: HMW
LayerCount: 2
Fore
SplineSet
768 1315 m 0
 768 1355 799 1391 842 1391 c 0
 879 1391 912 1364 917 1326 c 0
 922 1289 922 1255 922 1225 c 0
 922 1031 867 712 584 712 c 0
 532 712 484 728 442 752 c 1
 498 542 538 318 538 98 c 0
 538 66 538 31 536 -4 c 0
 534 -44 500 -75 461 -75 c 0
 419 -75 386 -40 386 0 c 0
 386 30 388 65 388 98 c 0
 388 457 270 852 151 1145 c 0
 127 1198 107 1248 91 1288 c 0
 87 1297 86 1307 86 1316 c 0
 86 1353 114 1390 159 1390 c 0
 189 1390 217 1372 228 1347 c 0
 279 1233 327 1112 394 1012 c 0
 460 914 528 862 584 862 c 0
 709 862 772 1021 772 1225 c 0
 772 1259 768 1288 768 1315 c 0
EndSplineSet
Colour: ffff
EndChar

StartChar: uni0663
Encoding: 1635 1635 278
Width: 1280
VWidth: 2315
Flags: HMW
LayerCount: 2
Fore
SplineSet
1016 1315 m 0
 1016 1353 1044 1391 1090 1391 c 0
 1124 1391 1156 1369 1164 1335 c 0
 1192 1226 1195 1127 1195 1087 c 0
 1195 946 1158 699 934 693 c 0
 833 693 770 763 735 833 c 1
 691 753 613 693 504 693 c 0
 487 693 470 694 454 697 c 1
 505 506 538 309 538 110 c 0
 538 76 537 31 536 -2 c 0
 535 -42 501 -75 461 -75 c 0
 419 -75 386 -41 386 0 c 0
 386 34 388 77 388 110 c 0
 388 522 227 945 91 1260 c 0
 87 1269 85 1279 85 1289 c 0
 85 1327 115 1365 159 1365 c 0
 188 1365 217 1348 229 1320 c 0
 278 1210 300 1151 337 1054 c 0
 366 980 392 924 416 892 c 0
 445 853 463 843 504 843 c 0
 609 843 651 978 651 1183 c 0
 651 1222 646 1262 639 1303 c 0
 638 1307 638 1311 638 1315 c 0
 638 1351 666 1391 712 1391 c 0
 794 1391 795 1291 804 1210 c 0
 827 1002 872 844 932 843 c 0
 1000 846 1045 936 1045 1087 c 0
 1045 1119 1042 1206 1018 1297 c 0
 1016 1303 1016 1309 1016 1315 c 0
EndSplineSet
Colour: ffff
EndChar

StartChar: uni0664
Encoding: 1636 1636 279
Width: 1077
VWidth: 2315
Flags: HMW
LayerCount: 2
Fore
SplineSet
917 185 m 0
 955 185 992 156 992 110 c 0
 992 81 975 53 947 41 c 0
 838 -6 720 -30 602 -30 c 0
 415 -30 85 26 85 305 c 0
 85 457 202 547 270 600 c 0
 316 635 402 715 417 750 c 1
 402 774 328 827 284 853 c 0
 222 889 109 969 109 1105 c 0
 109 1381 466 1457 650 1457 c 0
 691 1457 725 1423 725 1382 c 0
 725 1341 691 1307 650 1307 c 0
 460 1307 259 1217 259 1105 c 0
 259 1063 306 1015 360 983 c 0
 406 956 568 883 568 752 c 0
 568 623 412 519 360 480 c 0
 289 426 235 371 235 305 c 0
 235 188 403 120 602 120 c 0
 700 120 796 140 887 179 c 0
 897 183 907 185 917 185 c 0
EndSplineSet
Colour: ffff
EndChar

StartChar: uni0665
Encoding: 1637 1637 280
Width: 1150
VWidth: 2370
Flags: HMW
LayerCount: 2
Fore
SplineSet
586 981 m 1
 423 829 235 591 235 398 c 0
 235 233 360 120 583 120 c 0
 793 120 915 219 915 382 c 0
 915 566 769 792 586 981 c 1
237 1317 m 0
 237 1360 275 1391 313 1391 c 0
 328 1391 342 1386 355 1377 c 0
 428 1325 511 1259 594 1182 c 1
 603 1186 612 1187 621 1187 c 0
 661 1187 698 1155 698 1113 c 0
 698 1104 696 1095 693 1086 c 1
 884 889 1065 637 1065 382 c 0
 1065 113 841 -30 583 -30 c 0
 306 -30 85 131 85 398 c 0
 85 670 310 927 478 1085 c 1
 405 1152 332 1210 269 1255 c 0
 249 1270 237 1293 237 1317 c 0
EndSplineSet
PairPos2: "'kern' Horizontal Kerning in Arabic lookup 3 per glyph data 0" uni0667 dx=-89 dy=0 dh=-89 dv=0 dx=0 dy=0 dh=0 dv=0
PairPos2: "'kern' Horizontal Kerning in Arabic lookup 3 per glyph data 0" uni0666 dx=-45 dy=0 dh=-45 dv=0 dx=0 dy=0 dh=0 dv=0
Colour: ffff
EndChar

StartChar: uni0666
Encoding: 1638 1638 281
Width: 1116
VWidth: 2315
Flags: HMW
LayerCount: 2
Fore
SplineSet
160 1221 m 0
 122 1221 85 1252 85 1296 c 0
 85 1332 112 1364 148 1370 c 0
 237 1385 324 1391 412 1391 c 0
 668 1391 877 1299 877 996 c 0
 877 557 899 301 1024 32 c 0
 1029 22 1031 12 1031 1 c 0
 1031 -37 1002 -75 957 -75 c 0
 929 -75 900 -59 888 -32 c 0
 749 267 727 555 727 996 c 0
 727 1195 638 1241 412 1241 c 0
 332 1241 251 1235 172 1222 c 0
 168 1221 164 1221 160 1221 c 0
EndSplineSet
PairPos2: "'kern' Horizontal Kerning in Arabic lookup 3 per glyph data 0" uni0660 dx=-89 dy=0 dh=-89 dv=0 dx=0 dy=0 dh=0 dv=0
PairPos2: "'kern' Horizontal Kerning in Arabic lookup 3 per glyph data 0" uni066B dx=-134 dy=0 dh=-134 dv=0 dx=0 dy=0 dh=0 dv=0
PairPos2: "'kern' Horizontal Kerning in Arabic lookup 3 per glyph data 0" uni0668 dx=-89 dy=0 dh=-89 dv=0 dx=0 dy=0 dh=0 dv=0
Colour: ffff
EndChar

StartChar: uni0667
Encoding: 1639 1639 282
Width: 1188
VWidth: 2370
Flags: HMW
LayerCount: 2
Fore
SplineSet
85 1316 m 0
 85 1354 116 1391 160 1391 c 0
 186 1391 212 1377 225 1353 c 0
 379 1080 520 784 608 446 c 1
 685 794 806 1107 963 1384 c 0
 976 1408 1002 1422 1028 1422 c 0
 1072 1422 1103 1385 1103 1347 c 0
 1103 1334 1100 1322 1093 1310 c 0
 883 939 739 498 687 -8 c 0
 684 -43 653 -75 612 -75 c 0
 575 -75 541 -46 537 -8 c 0
 485 494 307 904 95 1279 c 0
 88 1291 85 1303 85 1316 c 0
EndSplineSet
PairPos2: "'kern' Horizontal Kerning in Arabic lookup 3 per glyph data 0" uni0660 dx=-89 dy=0 dh=-89 dv=0 dx=0 dy=0 dh=0 dv=0
PairPos2: "'kern' Horizontal Kerning in Arabic lookup 3 per glyph data 0" uni0665 dx=-89 dy=0 dh=-89 dv=0 dx=0 dy=0 dh=0 dv=0
PairPos2: "'kern' Horizontal Kerning in Arabic lookup 3 per glyph data 0" uni0668 dx=-134 dy=0 dh=-134 dv=0 dx=0 dy=0 dh=0 dv=0
PairPos2: "'kern' Horizontal Kerning in Arabic lookup 3 per glyph data 0" uni066B dx=-1002 dy=0 dh=-111 dv=0 dx=0 dy=0 dh=0 dv=0
Colour: ffff
EndChar

StartChar: uni0668
Encoding: 1640 1640 283
Width: 1198
VWidth: 1823
Flags: HMW
LayerCount: 2
Fore
SplineSet
1113 11 m 0
 1113 -27 1082 -64 1038 -64 c 0
 1012 -64 986 -50 973 -26 c 0
 817 250 679 567 594 917 c 1
 512 571 381 264 225 -12 c 0
 212 -36 186 -50 160 -50 c 0
 116 -50 85 -13 85 25 c 0
 85 38 88 50 95 62 c 0
 306 435 466 865 518 1369 c 0
 521 1404 552 1436 593 1436 c 0
 630 1436 664 1407 668 1369 c 0
 720 866 892 421 1103 48 c 0
 1110 36 1113 24 1113 11 c 0
EndSplineSet
PairPos2: "'kern' Horizontal Kerning in Arabic lookup 3 per glyph data 0" uni0663 dx=-89 dy=0 dh=-89 dv=0 dx=0 dy=0 dh=0 dv=0
PairPos2: "'kern' Horizontal Kerning in Arabic lookup 3 per glyph data 0" uni0662 dx=-89 dy=0 dh=-89 dv=0 dx=0 dy=0 dh=0 dv=0
PairPos2: "'kern' Horizontal Kerning in Arabic lookup 3 per glyph data 0" uni0667 dx=-134 dy=0 dh=-134 dv=0 dx=0 dy=0 dh=0 dv=0
Colour: ffff
EndChar

StartChar: uni0669
Encoding: 1641 1641 284
Width: 1045
VWidth: 2315
Flags: HMW
LayerCount: 2
Fore
SplineSet
651 801 m 1
 641 1056 612 1241 450 1241 c 0
 337 1241 235 1107 235 956 c 0
 235 837 325 785 495 785 c 0
 532 785 594 792 651 801 c 1
960 1 m 0
 960 -36 931 -75 886 -75 c 0
 856 -75 827 -56 815 -27 c 0
 743 161 685 428 662 651 c 1
 603 642 543 635 495 635 c 0
 305 635 85 711 85 956 c 0
 85 1153 217 1391 450 1391 c 0
 772 1391 792 1032 801 823 c 1
 834 812 852 782 852 751 c 0
 852 724 838 697 809 683 c 1
 830 470 888 200 955 27 c 0
 958 18 960 10 960 1 c 0
EndSplineSet
PairPos2: "'kern' Horizontal Kerning in Arabic lookup 3 per glyph data 0" uni066B dx=-67 dy=0 dh=-67 dv=0 dx=0 dy=0 dh=0 dv=0
PairPos2: "'kern' Horizontal Kerning in Arabic lookup 3 per glyph data 0" uni0668 dx=-134 dy=0 dh=-134 dv=0 dx=0 dy=0 dh=0 dv=0
PairPos2: "'kern' Horizontal Kerning in Arabic lookup 3 per glyph data 0" uni0665 dx=-45 dy=0 dh=-45 dv=0 dx=0 dy=0 dh=0 dv=0
Colour: ffff
EndChar

StartChar: uni06F4
Encoding: 1780 1780 290
Width: 1026
VWidth: 2370
Flags: HMW
LayerCount: 2
Fore
SplineSet
85 1293 m 0
 85 1331 115 1369 160 1369 c 0
 189 1369 217 1352 229 1324 c 0
 259.140251642 1254.81442237 285.526640601 1196.89043278 310.409157109 1148.29946819 c 1
 339.429494838 1343.4758843 508.100599516 1479 709 1479 c 0
 781 1479 934 1458 934 1368 c 0
 934 1324 897 1295 859 1295 c 0
 847 1295 836 1297 825 1303 c 0
 791 1321 753 1329 709 1329 c 0
 562 1329 456 1227 456 1088 c 0
 456 994 508 923 572 888 c 0
 576.738102388 885.346662663 581.081091565 882.262292732 585.008544424 878.821772849 c 0
 609.249391673 868.849161605 636.057762867 859.036505015 666 849 c 0
 730 827 798 816 866 816 c 0
 907 816 941 782 941 741 c 0
 941 700 907 666 866 666 c 0
 683 666 497 739 389 815 c 1
 434 603 458 373 458 126 c 0
 458 97 457 28 456 -2 c 0
 455 -42 421 -75 381 -75 c 0
 339 -75 306 -41 306 0 c 0
 306 27 308 98 308 126 c 0
 308 569 227 949 91 1264 c 0
 87 1273 85 1283 85 1293 c 0
EndSplineSet
PairPos2: "'kern' Horizontal Kerning in Arabic lookup 3 per glyph data 1" uni06F0 dx=-22 dy=0 dh=-22 dv=0 dx=0 dy=0 dh=0 dv=0
PairPos2: "'kern' Horizontal Kerning in Arabic lookup 3 per glyph data 1" uni06F8 dx=-111 dy=0 dh=-111 dv=0 dx=0 dy=0 dh=0 dv=0
Colour: ffff
EndChar

StartChar: uni06F5
Encoding: 1781 1781 291
Width: 1155
VWidth: 2370
Flags: HMW
LayerCount: 2
Fore
SplineSet
605 964 m 1
 422 801 235 555 235 317 c 0
 235 132 321 78 378 78 c 0
 417 78 467 100 509 166 c 0
 523 187 548 199 573 199 c 0
 594 199 615 191 630 172 c 0
 683 106 744 76 772 76 c 0
 830 76 920 154 920 342 c 0
 920 529 777 761 605 964 c 1
278 1339 m 0
 278 1380 312 1413 353 1413 c 0
 372 1413 390 1406 404 1392 c 0
 467 1331 544 1255 623 1170 c 1
 635 1176 647 1180 660 1180 c 0
 699 1180 735 1148 735 1105 c 0
 735 1089 730 1073 720 1060 c 1
 897 851 1070 596 1070 342 c 0
 1070 122 958 -74 772 -74 c 0
 698 -74 631 -36 576 12 c 1
 519 -42 449 -72 378 -72 c 0
 209 -72 85 88 85 317 c 0
 85 629 311 903 506 1076 c 1
 433 1155 360 1226 300 1284 c 0
 285 1299 278 1319 278 1339 c 0
EndSplineSet
PairPos2: "'kern' Horizontal Kerning in Arabic lookup 3 per glyph data 1" uni06F2 dx=-22 dy=0 dh=-22 dv=0 dx=0 dy=0 dh=0 dv=0
PairPos2: "'kern' Horizontal Kerning in Arabic lookup 3 per glyph data 1" uni06F3 dx=-22 dy=0 dh=-22 dv=0 dx=0 dy=0 dh=0 dv=0
PairPos2: "'kern' Horizontal Kerning in Arabic lookup 3 per glyph data 1" uni06F7 dx=-89 dy=0 dh=-89 dv=0 dx=0 dy=0 dh=0 dv=0
PairPos2: "'kern' Horizontal Kerning in Arabic lookup 3 per glyph data 1" uni06F9 dx=-67 dy=0 dh=-67 dv=0 dx=0 dy=0 dh=0 dv=0
Colour: ffff
EndChar

StartChar: uni06F6
Encoding: 1782 1782 292
Width: 992
VWidth: 2370
Flags: HMW
LayerCount: 2
Fore
SplineSet
757 1288 m 0
 757 1243 719 1213 682 1213 c 0
 672 1213 662 1215 653 1219 c 0
 615 1235 578 1242 543 1242 c 0
 396 1242 268 1114 268 950 c 0
 268 821 377 743 542 743 c 0
 638 743 720 767 803 802 c 0
 812 806 822 808 832 808 c 0
 868 808 907 780 907 735 c 0
 907 705 887 676 865 666 c 0
 577 523 332 286 231 -23 c 0
 221 -54 191 -75 160 -75 c 0
 115 -75 85 -37 85 0 c 0
 85 8 86 15 89 23 c 0
 165 254 308 447 485 596 c 1
 301 614 118 730 118 950 c 0
 118 1192 308 1392 543 1392 c 0
 598 1392 655 1381 711 1357 c 0
 740 1345 757 1317 757 1288 c 0
EndSplineSet
Colour: ffff
EndChar

StartChar: uni066B
Encoding: 1643 1643 296
Width: 449
VWidth: 1823
Flags: HMW
LayerCount: 2
Fore
SplineSet
354 579 m 0
 400 579 429 542 429 504 c 0
 429 494 427 484 423 474 c 2
 41 -413 l 2
 29 -441 1 -458 -28 -458 c 0
 -74 -458 -103 -421 -103 -383 c 0
 -103 -373 -101 -363 -97 -353 c 2
 285 534 l 2
 297 562 325 579 354 579 c 0
EndSplineSet
PairPos2: "'kern' Horizontal Kerning in Arabic lookup 3 per glyph data 1" uni06F7 dx=-89 dy=0 dh=-89 dv=0 dx=0 dy=0 dh=0 dv=0
PairPos2: "'kern' Horizontal Kerning in Arabic lookup 3 per glyph data 1" uni06F0 dx=-45 dy=0 dh=-45 dv=0 dx=0 dy=0 dh=0 dv=0
PairPos2: "'kern' Horizontal Kerning in Arabic lookup 3 per glyph data 1" uni06F3 dx=-67 dy=0 dh=-67 dv=0 dx=0 dy=0 dh=0 dv=0
PairPos2: "'kern' Horizontal Kerning in Arabic lookup 3 per glyph data 1" uni06F2 dx=-89 dy=0 dh=-89 dv=0 dx=0 dy=0 dh=0 dv=0
PairPos2: "'kern' Horizontal Kerning in Arabic lookup 3 per glyph data 0" uni0663 dx=-134 dy=0 dh=-134 dv=0 dx=0 dy=0 dh=0 dv=0
PairPos2: "'kern' Horizontal Kerning in Arabic lookup 3 per glyph data 0" uni0662 dx=-89 dy=0 dh=-89 dv=0 dx=0 dy=0 dh=0 dv=0
PairPos2: "'kern' Horizontal Kerning in Arabic lookup 3 per glyph data 1" uni066B dx=-45 dy=0 dh=-45 dv=0 dx=0 dy=0 dh=0 dv=0
PairPos2: "'kern' Horizontal Kerning in Arabic lookup 3 per glyph data 0" uni0667 dx=-89 dy=0 dh=-89 dv=0 dx=0 dy=0 dh=0 dv=0
Colour: ffff
EndChar

StartChar: uni060C
Encoding: 1548 1548 298
Width: 633
VWidth: 1839
Flags: HMW
LayerCount: 2
Fore
SplineSet
217 262 m 1
 217 255 217 248 217 241 c 0
 217 134 263 95 333 95 c 0
 373 95 402 131 402 196 c 0
 402 260 362 307 321 307 c 0
 303 307 281 294 278 288 c 0
 269 270 251 260 232 260 c 0
 227 260 222 261 217 262 c 1
324 685 m 0
 351 685 374 662 374 635 c 0
 374 622 369 610 360 600 c 0
 305 543 262 466 238 384 c 1
 266 400 295 407 321 407 c 0
 440 407 502 292 502 196 c 0
 502 107 453 -5 333 -5 c 0
 201 -5 117 96 117 241 c 0
 117 274 120 307 125 340 c 0
 146 465 204 583 288 670 c 0
 298 680 311 685 324 685 c 0
EndSplineSet
Colour: ffff00
EndChar

StartChar: quoteleft
Encoding: 8216 8216 300
Width: 632
VWidth: 1424
Flags: HMW
LayerCount: 2
Fore
SplineSet
238 1130 m 1
 349 1148 404 1203 404 1263 c 0
 404 1336 377 1364 333 1364 c 0
 252 1364 227 1321 227 1229 c 0
 227 1199 231 1165 238 1130 c 1
378 771 m 0
 378 745 356 723 329 723 c 0
 315 723 301 728 291 739 c 0
 230 806 127 1049 127 1229 c 0
 127 1345 180 1464 333 1464 c 0
 451 1464 504 1362 504 1263 c 0
 504 1133 388 1056 262 1033 c 1
 295 925 348 823 365 805 c 0
 374 796 378 783 378 771 c 0
EndSplineSet
Colour: ffff00
EndChar

StartChar: uni061F
Encoding: 1567 1567 311
Width: 900
VWidth: 0
Flags: HMW
LayerCount: 2
Fore
SplineSet
758 865 m 0
 714 865 684 903 684 941 c 0
 684 969 692 997 692 1020 c 0
 692 1161 590 1241 473 1241 c 0
 343 1241 209 1153 209 955 c 0
 209 846 271 782 363 705 c 0
 454 628 562 529 562 366 c 0
 562 325 528 291 487 291 c 0
 446 291 412 325 412 366 c 0
 412 455 358 514 267 591 c 0
 175 668 59 774 59 955 c 0
 59 1239 271 1391 473 1391 c 0
 662 1391 842 1249 842 1020 c 0
 842 988 838 958 833 927 c 0
 827 891 794 865 758 865 c 0
356 89 m 0
 356 153 407 209 475 209 c 0
 541 209 595 155 595 89 c 0
 595 21 539 -30 475 -30 c 0
 409 -30 356 23 356 89 c 0
EndSplineSet
Colour: ffff
EndChar

StartChar: section
Encoding: 167 167 313
Width: 920
VWidth: 2426
Flags: HMW
LayerCount: 2
Fore
SplineSet
75 153 m 0
 75 196 110 228 150 228 c 0
 167 228 183 223 197 212 c 0
 264 159 346 120 457 120 c 0
 614 120 691 149 691 209 c 0
 691 310 553 409 435 421 c 0
 303 434 82 484 82 696 c 0
 82 785 135 847 191 883 c 1
 129 927 84 995 84 1104 c 0
 84 1105 84 1108 84 1110 c 0
 100 1307 307 1391 472 1391 c 0
 621 1391 794 1322 833 1145 c 0
 834 1140 835 1134 835 1129 c 0
 835 1091 805 1054 760 1054 c 0
 726 1054 695 1078 687 1113 c 0
 670 1192 587 1241 472 1241 c 0
 338 1241 242 1174 234 1101 c 1
 236 990 314 973 481 946 c 0
 623 923 840 840 840 655 c 0
 840 551 784 493 712 461 c 1
 786 401 841 317 841 209 c 0
 841 -19 580 -30 457 -30 c 0
 308 -30 190 25 103 94 c 0
 85 108 75 131 75 153 c 0
447 571 m 1
 607 571 690 600 690 655 c 0
 690 697 599 773 463 797 c 1
 316 796 239 754 232 693 c 1
 234 626 309 586 447 571 c 1
EndSplineSet
Colour: ffff
EndChar

StartChar: uni00B2
Encoding: 178 178 314
Width: 625
VWidth: 2426
Flags: HMW
LayerCount: 2
Fore
SplineSet
134 1248 m 0
 107 1248 84 1271 84 1298 c 0
 84 1414 165 1527 297 1527 c 0
 413 1527 492 1435 492 1327 c 0
 492 1190 412 1113 327 1031 c 2
 272 978 l 1
 489 990 l 2
 490 990 491 990 492 990 c 0
 524 990 540 964 540 939 c 0
 540 915 526 891 495 890 c 2
 144 871 l 2
 143 871 143 871 142 871 c 0
 115 871 91 896 91 923 c 0
 91 935 96 947 106 957 c 2
 257 1103 l 2
 346 1189 392 1236 392 1327 c 0
 392 1387 355 1427 297 1427 c 0
 231 1427 184 1372 184 1298 c 0
 184 1271 161 1248 134 1248 c 0
EndSplineSet
Colour: ffff00
EndChar

StartChar: uni00B3
Encoding: 179 179 315
Width: 573
VWidth: 2426
Flags: HMW
LayerCount: 2
Fore
SplineSet
97 965 m 0
 97 993 122 1014 148 1014 c 0
 159 1014 170 1010 179 1003 c 0
 205 982 241 970 277 970 c 0
 351 970 400 1012 401 1075 c 0
 399 1114 368 1139 310 1139 c 0
 281 1139 251 1127 224 1127 c 0
 194 1127 177 1153 177 1179 c 0
 177 1200 188 1220 213 1226 c 0
 278 1242 385 1270 385 1326 c 0
 385 1373 349 1409 310 1409 c 0
 266 1409 234 1377 225 1337 c 0
 219 1311 199 1299 178 1299 c 0
 152 1299 126 1317 126 1347 c 0
 126 1351 126 1355 127 1359 c 0
 144 1437 212 1509 310 1509 c 0
 411 1509 485 1421 485 1326 c 0
 485 1276 460 1235 428 1207 c 1
 470 1180 499 1135 501 1077 c 0
 501 945 391 870 277 870 c 0
 221 870 162 888 116 925 c 0
 104 935 97 950 97 965 c 0
EndSplineSet
Colour: ffff00
EndChar

StartChar: eth
Encoding: 240 240 316
Width: 1089
VWidth: 2426
Flags: HMW
LayerCount: 2
Fore
SplineSet
182 1421 m 0
 182 1466 221 1495 258 1495 c 0
 267 1495 275 1493 284 1490 c 0
 389 1449 481 1400 560 1345 c 1
 659 1406 754 1456 819 1477 c 0
 827 1480 834 1481 842 1481 c 0
 879 1481 917 1451 917 1406 c 0
 917 1375 896 1345 865 1335 c 0
 827 1323 760 1288 686 1243 c 1
 933 1012 1014 721 1014 525 c 0
 1014 160 788 -30 523 -30 c 0
 275 -30 75 164 75 427 c 0
 75 699 281 929 565 929 c 0
 606 929 640 895 640 854 c 0
 640 813 606 779 565 779 c 0
 369 779 225 623 225 427 c 0
 225 244 357 120 523 120 c 0
 708 120 864 230 864 525 c 0
 864 691 792 955 555 1159 c 1
 438 1081 326 997 284 950 c 0
 269 934 249 925 228 925 c 0
 186 925 153 960 153 1000 c 0
 153 1018 160 1036 172 1050 c 0
 223 1106 317 1182 423 1255 c 1
 366 1290 302 1323 230 1350 c 0
 201 1362 182 1391 182 1421 c 0
EndSplineSet
Colour: ffff
EndChar

StartChar: uni06DD
Encoding: 1757 1757 327
Width: 2048
VWidth: 0
LayerCount: 2
Back
SplineSet
236 -240 m 0
 1971 -240 l 1032
933 -410 m 0
 933 -316 1009 -240 1103 -240 c 0
 1197 -240 1273 -316 1273 -410 c 0
 1273 -504 1197 -580 1103 -580 c 0
 1009 -580 933 -504 933 -410 c 0
1103 -580 m 1024
427 -580 m 0
 1779 -580 l 1024
933 -750 m 0
 933 -656 1009 -580 1103 -580 c 0
 1197 -580 1273 -656 1273 -750 c 0
 1273 -844 1197 -920 1103 -920 c 0
 1009 -920 933 -844 933 -750 c 0
156 213 m 0
 156 838 580 1346 1103 1346 c 0
 1626 1346 2050 838 2050 213 c 0
 2050 -412 1626 -920 1103 -920 c 0
 580 -920 156 -412 156 213 c 0
EndSplineSet
EndChar

StartChar: uni06DE
Encoding: 1758 1758 328
Width: 2048
VWidth: 0
LayerCount: 2
Back
SplineSet
888 716 m 4
 888 860 1004 976 1148 976 c 4
 1292 976 1408 860 1408 716 c 4
 1408 572 1292 456 1148 456 c 4
 1004 456 888 572 888 716 c 4
1136 1694 m 5
 2134 696 l 5
 1144 -294 l 5
 146 704 l 5
 1136 1694 l 5
434 1400 m 5
 1846 1400 l 5
 1846 0 l 5
 434 0 l 5
 434 1400 l 5
EndSplineSet
EndChar

StartChar: uniE008
Encoding: 57352 57352 329
Width: 214
VWidth: 1437
Flags: HMW
LayerCount: 2
Fore
SplineSet
-75 45 m 0
 -75 86 -41 120 0 120 c 2
 214 120 l 2
 255 120 289 86 289 45 c 0
 289 4 255 -30 214 -30 c 2
 0 -30 l 2
 -41 -30 -75 4 -75 45 c 0
EndSplineSet
Colour: ffff
EndChar

StartChar: uniE009
Encoding: 57353 57353 330
Width: 107
VWidth: 1437
Flags: HMW
LayerCount: 2
Fore
SplineSet
-75 45 m 0
 -75 86 -41 120 0 120 c 2
 107 120 l 2
 148 120 182 86 182 45 c 0
 182 4 148 -30 107 -30 c 2
 0 -30 l 2
 -41 -30 -75 4 -75 45 c 0
EndSplineSet
Colour: ffff
EndChar

StartChar: underscore
Encoding: 95 95 331
Width: 667
VWidth: 1823
Flags: HMW
LayerCount: 2
Fore
SplineSet
743 45 m 0
 743 4 709 -30 668 -30 c 2
 0 -30 l 2
 -41 -30 -75 4 -75 45 c 0
 -75 86 -41 120 0 120 c 2
 668 120 l 2
 709 120 743 86 743 45 c 0
EndSplineSet
Colour: ffff
EndChar

StartChar: seven
Encoding: 55 55 332
Width: 1080
VWidth: 2426
Flags: HMW
LayerCount: 2
Fore
SplineSet
161 1190 m 2
 121 1190 85 1221 85 1264 c 0
 85 1303 115 1337 154 1340 c 2
 783 1390 l 2
 805 1394 824 1395 843 1395 c 0
 876 1395 930 1394 968 1346 c 0
 987 1323 995 1292 995 1265 c 0
 995 1233 987 1201 972 1170 c 0
 793 813 689 438 616 -12 c 0
 610 -48 578 -75 542 -75 c 0
 498 -75 467 -38 467 -0 c 0
 467 4 467 8 468 12 c 0
 543 470 651 863 838 1238 c 0
 839 1240 840 1242 841 1245 c 1
 825 1245 812 1242 798 1241 c 2
 166 1190 l 1
 161 1190 l 2
EndSplineSet
Colour: ffff
EndChar

StartChar: nine
Encoding: 57 57 333
Width: 1112
VWidth: 2426
Flags: HMW
LayerCount: 2
Fore
SplineSet
645 528 m 0
 683 528 720 498 720 453 c 0
 720 376 625 368 547 368 c 0
 227 368 85 613 85 848 c 0
 85 1102 260 1391 552 1391 c 0
 790 1391 1027 1209 1027 872 c 0
 1027 486 781 -75 381 -75 c 0
 340 -75 306 -41 306 0 c 0
 306 41 340 75 381 75 c 0
 630 75 877 508 877 872 c 0
 877 1129 712 1241 552 1241 c 0
 374 1241 235 1050 235 848 c 0
 235 669 325 518 547 518 c 0
 582 518 618 528 645 528 c 0
EndSplineSet
Colour: ffff
EndChar

StartChar: uniFD3E
Encoding: 64830 64830 334
Width: 866
VWidth: 0
Flags: HMW
LayerCount: 2
Fore
SplineSet
568 1493 m 0
 613 1493 643 1456 643 1418 c 0
 643 1407 640 1396 635 1385 c 0
 559.767242162 1232.46385796 511.212221864 1069.92356435 488.348517202 904.612879786 c 1
 530.238750594 926.123720105 578.035871311 938 629 938 c 0
 722 938 791 865 791 774 c 0
 791 684 709 650 662 636 c 1
 688 609 709 570 709 524 c 0
 709 509 707 494 702 479 c 0
 674 397 593 392 563 392 c 2
 554 392 l 2
 534.98323996 392 516.63518769 394.407347975 499.298214671 398.977492861 c 1
 525.280109019 255.050911588 570.514037464 108.36029407 635 -23 c 0
 640 -34 643 -45 643 -56 c 0
 643 -94 613 -131 568 -131 c 0
 540 -131 514 -115 501 -89 c 0
 427.75442242 59.9326744124 377.607782852 222.650198929 349.650460298 382.551990336 c 1
 316.441156682 364.895556804 278.069972451 355 237 355 c 0
 170 355 115 408 115 476 c 0
 115 544 143 604 185 645 c 1
 130 676 75 734 75 819 c 0
 75 843 81 868 94 888 c 0
 132 948 197 954 234 954 c 0
 274.101323509 954 309.872402291 944.199972459 340.442817575 928.081592458 c 1
 365.912374486 1107.53830407 419.323658144 1284.21553722 501 1451 c 0
 514 1477 540 1493 568 1493 c 0
306 757 m 1
 290 789 273 804 234 804 c 0
 232 804 230 804 228 804 c 1
 233 792 256 772 306 757 c 1
315 557 m 1
 290 542 278 527 271 511 c 1
 290 518 304 532 315 557 c 1
517 556 m 1
 524 548 528 545 540 543 c 1
 534 547 526 552 517 556 c 1
547 765 m 1
 587 771 621 779 638 786 c 1
 637 786 635 788 629 788 c 0
 597 788 570 779 547 765 c 1
EndSplineSet
Colour: ffff
EndChar

StartChar: uniFD3F
Encoding: 64831 64831 335
Width: 861
VWidth: 0
Flags: HMW
LayerCount: 2
Fore
SplineSet
215 1418 m 0
 215 1456 245 1493 290 1493 c 0
 318 1493 344 1477 357 1451 c 0
 441.247333391 1278.96552929 495.422158413 1096.40568066 519.879311011 911.126844857 c 1
 552.087279678 927.974889132 589.274502627 938 630 938 c 0
 703 938 786 883 786 792 c 0
 786 717 739 662 688 634 c 1
 721 597 742 548 742 493 c 0
 742 409 663 356 593 356 c 0
 562.426511271 356 533.732702948 362.981670077 508.170912776 374.996929294 c 1
 480.034944443 215.836090335 429.72070997 59.4969119556 357 -89 c 0
 344 -115 318 -131 290 -131 c 0
 245 -131 215 -94 215 -56 c 0
 215 -45 218 -34 223 -23 c 0
 285.226768133 103.166199608 329.202416187 236.176569246 355.48512317 371.937796203 c 1
 339.224943992 368.044640196 322.265820011 366 305 366 c 0
 292 366 282 368 272 371 c 0
 220 386 155 438 155 526 c 0
 155 571 174 610 200 638 c 1
 150 655 75 693 75 781 c 0
 75 879 158 949 247 949 c 0
 291.578287783 949 332.030851534 938.548165788 367.347946947 920.673730287 c 1
 343.613083823 1080.44673619 295.794970036 1237.40652864 223 1385 c 0
 218 1396 215 1407 215 1418 c 0
366 566 m 1
 308 547 305 528 305 526 c 0
 305 524 307 520 312 516 c 1
 336 518 351 529 366 566 c 1
332 763 m 1
 309 787 285 799 247 799 c 0
 238 799 230 794 227 789 c 1
 243 780 282 770 332 763 c 1
556 748 m 1
 626 761 635 778 636 787 c 1
 634 787 632 788 630 788 c 0
 597 788 575 774 556 748 c 1
532 565 m 1
 547 521 567 507 591 506 c 1
 587 526 574 545 532 565 c 1
EndSplineSet
Colour: ffff
EndChar

StartChar: dollar
Encoding: 36 36 336
Width: 1182
VWidth: 1823
Flags: HMW
LayerCount: 2
Fore
SplineSet
575 1694 m 0
 616 1694 650 1660 650 1619 c 2
 650 -142 l 2
 650 -183 616 -217 575 -217 c 0
 534 -217 500 -183 500 -142 c 2
 500 1619 l 2
 500 1660 534 1694 575 1694 c 0
EndSplineSet
Refer: 31 83 N 1 0 0 1 0 0 2
Colour: ffff
EndChar

StartChar: ampersand
Encoding: 38 38 337
Width: 1194
VWidth: 2426
Flags: HMW
LayerCount: 2
Fore
SplineSet
354 566 m 1
 277 516 235 463 235 364 c 0
 235 196 364 120 549 120 c 0
 615 120 685 132 748 153 c 1
 605 268 461 410 354 566 c 1
409 764 m 1
 432 774 456 784 479 794 c 0
 663 872 788 932 788 1095 c 0
 788 1214 689 1286 569 1286 c 0
 449 1286 332 1214 332 1033 c 0
 332 950 360 858 409 764 c 1
1109 45 m 0
 1109 1 1073 -30 1034 -30 c 0
 1021 -30 1008 -27 996 -20 c 0
 961 0 925 24 888 49 c 1
 786 -2 665 -30 549 -30 c 0
 328 -30 85 82 85 364 c 0
 85 524 172 628 276 695 c 1
 219 804 182 918 182 1033 c 0
 182 1302 381 1436 569 1436 c 0
 745 1436 938 1318 938 1095 c 0
 938 800 673 715 489 635 c 1
 597 483 748 339 893 229 c 1
 922 253 945 279 959 305 c 0
 972 330 999 344 1026 344 c 0
 1070 344 1099 307 1099 269 c 0
 1099 257 1097 246 1091 235 c 0
 1073 200 1048 169 1020 141 c 1
 1057 118 1109 99 1109 45 c 0
EndSplineSet
Colour: ffff
EndChar

StartChar: question
Encoding: 63 63 338
Width: 954
VWidth: 0
Flags: HMW
LayerCount: 2
Fore
SplineSet
243 940 m 0
 243 901 213 864 169 864 c 0
 133 864 100 889 94 925 c 0
 88 955 85 986 85 1017 c 0
 85 1250 273 1391 465 1391 c 0
 664 1391 869 1242 869 954 c 0
 869 773 752 667 660 590 c 0
 569 513 514 454 514 366 c 0
 514 325 480 291 439 291 c 0
 398 291 364 325 364 366 c 0
 364 530 476 628 564 704 c 0
 656 781 719 845 719 954 c 0
 719 1160 590 1241 465 1241 c 0
 343 1241 235 1158 235 1017 c 0
 235 995 243 967 243 940 c 0
570 89 m 0
 570 23 517 -30 451 -30 c 0
 387 -30 331 21 331 89 c 0
 331 155 385 209 451 209 c 0
 519 209 570 153 570 89 c 0
EndSplineSet
Colour: ffff
EndChar

StartChar: at
Encoding: 64 64 339
Width: 2047
VWidth: 2426
Flags: HMW
LayerCount: 2
Fore
SplineSet
1325 775 m 1
 1242 825 1153 849 1069 849 c 0
 853 849 660 696 660 402 c 0
 660 235 768 120 938 120 c 0
 1159 120 1254 290 1280 465 c 2
 1325 775 l 1
1627 -128 m 0
 1666 -128 1701 -161 1701 -202 c 0
 1701 -223 1693 -243 1676 -258 c 0
 1507 -407 1287 -496 1045 -496 c 0
 522 -496 85 -132 85 403 c 0
 85 932 541 1426 1076 1426 c 0
 1554 1426 1962 1052 1962 559 c 0
 1962 344 1853 -28 1564 -28 c 0
 1441 -28 1360 53 1315 156 c 1
 1237 50 1116 -30 938 -30 c 0
 686 -30 510 159 510 402 c 0
 510 774 773 999 1069 999 c 0
 1198 999 1331 958 1450 872 c 0
 1470 857 1481 834 1481 811 c 0
 1481 807 1481 804 1480 800 c 2
 1429 447 l 2
 1426 420 1423 389 1423 362 c 0
 1423 216 1499 122 1564 122 c 0
 1697 122 1812 350 1812 559 c 0
 1812 964 1476 1276 1076 1276 c 0
 633 1276 235 852 235 403 c 0
 235 -40 590 -346 1045 -346 c 0
 1249 -346 1435 -271 1578 -146 c 0
 1592 -134 1610 -128 1627 -128 c 0
EndSplineSet
Colour: ffff
EndChar

StartChar: b
Encoding: 98 98 340
Width: 1123
VWidth: 1823
Flags: HMW
LayerCount: 2
Fore
SplineSet
202 1436 m 0
 244 1436 278 1400 277 1359 c 2
 261 868 l 1
 338 975 455 1046 611 1046 c 0
 913 1046 1038 763 1038 495 c 0
 1038 188 790 -30 475 -30 c 0
 422 -30 367 -24 315 -10 c 0
 281 -2 260 29 260 63 c 0
 260 109 297 138 335 138 c 0
 341 138 347 138 353 136 c 0
 392 126 434 120 475 120 c 0
 720 120 888 278 888 495 c 0
 888 735 789 896 611 896 c 0
 290 896 248 438 235 43 c 0
 234 4 201 -30 160 -30 c 0
 119 -30 84 5 85 47 c 2
 127 1363 l 2
 128 1403 162 1436 202 1436 c 0
EndSplineSet
Colour: ffff
EndChar

StartChar: d
Encoding: 100 100 341
Width: 1177
VWidth: 2426
Flags: HMW
LayerCount: 2
Fore
SplineSet
880 781 m 1
 867 771 851 767 835 767 c 0
 814 767 794 775 780 790 c 0
 708 867 635 894 567 894 c 0
 370 894 235 698 235 465 c 0
 235 234 342 120 534 120 c 0
 763 120 868 342 875 612 c 2
 880 781 l 1
1092 45 m 0
 1092 5 1059 -30 1017 -30 c 0
 995 -30 974 -21 959 -3 c 0
 924 39 903 91 892 152 c 1
 815 46 693 -30 534 -30 c 0
 252 -30 85 174 85 465 c 0
 85 742 252 1044 567 1044 c 0
 676 1044 788 998 883 900 c 1
 887 1054 891 1209 895 1363 c 0
 896 1403 930 1436 970 1436 c 0
 1015 1436 1046 1399 1045 1359 c 2
 1026 510 l 1
 1026 206 1038 138 1075 93 c 0
 1086 79 1092 62 1092 45 c 0
EndSplineSet
Colour: ffff
EndChar

StartChar: h
Encoding: 104 104 342
Width: 1003
VWidth: 2426
Flags: HMW
LayerCount: 2
Fore
SplineSet
837 -75 m 0
 751 -75 746 39 746 119 c 0
 746 255 768 471 768 609 c 0
 768 800 710 895 615 895 c 0
 403 895 262 383 235 -5 c 0
 232 -43 199 -75 159 -75 c 0
 118 -75 85 -40 85 -0 c 2
 85 5 l 1
 175 1376 l 2
 178 1415 211 1446 250 1446 c 0
 293 1446 325 1411 325 1371 c 2
 325 1366 l 1
 289 816 l 1
 361 941 466 1045 615 1045 c 0
 852 1045 918 804 918 609 c 0
 918 470 896 254 896 119 c 0
 896 70 901 39 905 30 c 0
 909 21 911 11 911 1 c 0
 911 -37 883 -75 837 -75 c 0
EndSplineSet
Colour: ffff
EndChar

StartChar: j
Encoding: 106 106 344
Width: 630
VWidth: 2426
Flags: HMW
LayerCount: 2
Fore
SplineSet
336 971 m 0
 336 1012 369 1046 411 1046 c 0
 451 1046 485 1013 486 973 c 0
 489 860 489 692 489 581 c 0
 489 509 490 426 490 340 c 0
 490 -39 466 -489 208 -489 c 0
 190 -489 168 -488 146 -484 c 0
 111 -477 85 -445 85 -410 c 0
 85 -366 122 -335 160 -335 c 0
 176 -335 190 -339 208 -339 c 0
 293 -339 339 84 339 581 c 0
 339 693 336 861 336 971 c 0
EndSplineSet
Refer: 47 46 N 1 0 0 1 186 1286 2
Colour: ffff
EndChar

StartChar: k
Encoding: 107 107 345
Width: 979
VWidth: 2426
Flags: HMW
LayerCount: 2
Fore
SplineSet
219 1436 m 0
 262 1436 297 1400 295 1358 c 2
 264 665 l 1
 422 762 570 890 676 1019 c 0
 691 1037 712 1046 734 1046 c 0
 776 1046 809 1011 809 971 c 0
 809 954 803 937 792 923 c 0
 667 770 496 625 310 517 c 1
 466 351 672 174 857 65 c 0
 881 51 894 25 894 -1 c 0
 894 -45 856 -75 818 -75 c 0
 805 -75 792 -72 781 -65 c 0
 598 42 408 202 251 361 c 1
 235 1 l 2
 233 -39 200 -71 161 -71 c 0
 118 -71 83 -35 85 7 c 2
 145 1364 l 2
 147 1404 180 1436 219 1436 c 0
EndSplineSet
Colour: ffff
EndChar

StartChar: l
Encoding: 108 108 346
Width: 379
VWidth: 2426
Flags: HMW
LayerCount: 2
Fore
SplineSet
198 1425 m 0
 240 1425 274 1391 274 1351 c 0
 274 1010 255 395 255 0 c 0
 255 -41 221 -75 180 -75 c 0
 139 -75 105 -41 105 -0 c 0
 105 395 108 1007 124 1353 c 0
 126 1393 159 1425 198 1425 c 0
EndSplineSet
Colour: ffff
EndChar

StartChar: m
Encoding: 109 109 347
Width: 1482
VWidth: 2426
Flags: HMW
LayerCount: 2
Fore
SplineSet
1227 185 m 0
 1227 320 1242 517 1242 651 c 0
 1242 813 1189 896 1072 896 c 0
 815 896 822 286 796 -7 c 0
 793 -45 760 -75 721 -75 c 0
 680 -75 646 -41 646 -1 c 2
 646 6 l 1
 660 172 672 375 672 549 c 2
 672 571 l 2
 672 784 669 896 500 896 c 0
 396 896 348 837 313 716 c 0
 295 653 283 578 275 502 c 2
 235 2 l 2
 232 -37 198 -67 160 -67 c 0
 116 -67 85 -31 85 8 c 0
 85 10 85 12 85 14 c 2
 118 440 l 2
 129 562 143 685 143 824 c 0
 143 883 140 936 135 979 c 0
 135 982 134 985 134 988 c 0
 134 1027 165 1063 209 1063 c 0
 262 1063 282 1020 287 968 c 1
 341 1017 414 1046 500 1046 c 0
 652 1046 749 972 789 863 c 1
 845 965 939 1046 1072 1046 c 0
 1307 1046 1392 841 1392 651 c 0
 1392 510 1377 294 1377 156 c 0
 1377 106 1383 62 1394 20 c 0
 1396 13 1397 7 1397 0 c 0
 1397 -37 1367 -75 1322 -75 c 0
 1289 -75 1259 -53 1250 -20 c 0
 1232 46 1227 114 1227 185 c 0
EndSplineSet
Colour: ffff
EndChar

StartChar: n
Encoding: 110 110 348
Width: 1003
VWidth: 2426
Flags: HMW
LayerCount: 2
Fore
SplineSet
837 -75 m 0
 751 -75 746 39 746 119 c 0
 746 255 768 472 768 609 c 0
 768 812 730 895 641 895 c 0
 427 895 261 378 235 -5 c 0
 232 -42 199 -75 159 -75 c 0
 118 -75 85 -41 85 -1 c 2
 85 4 l 1
 143 970 l 2
 145 1010 179 1041 218 1041 c 0
 262 1041 295 1004 293 962 c 2
 281 771 l 1
 359 917 475 1045 641 1045 c 0
 884 1045 918 792 918 609 c 0
 918 469 896 253 896 119 c 0
 896 70 901 39 905 30 c 0
 909 21 911 11 911 1 c 0
 911 -37 883 -75 837 -75 c 0
EndSplineSet
Colour: ffff
EndChar

StartChar: p
Encoding: 112 112 349
Width: 1167
VWidth: 2426
Flags: HMW
LayerCount: 2
Fore
SplineSet
174 -508 m 0
 131 -508 96 -472 98 -430 c 2
 130 257 l 2
 138 386 145 501 145 603 c 0
 145 741 127 868 93 938 c 0
 88 949 85 960 85 971 c 0
 85 1009 115 1046 160 1046 c 0
 188 1046 214 1030 227 1004 c 0
 255 948 272 883 282 812 c 1
 383 964 526 1046 678 1046 c 0
 904 1046 1082 847 1082 538 c 0
 1082 264 899 -30 416 -30 c 0
 375 -30 341 4 341 45 c 0
 341 86 375 120 416 120 c 0
 823 120 932 338 932 538 c 0
 932 793 802 896 678 896 c 0
 514 896 300 724 283 288 c 0
 283 276 281 262 280 249 c 2
 248 -436 l 2
 246 -476 213 -508 174 -508 c 0
EndSplineSet
Colour: ffff
EndChar

StartChar: q
Encoding: 113 113 350
Width: 1123
VWidth: 2426
Flags: HMW
LayerCount: 2
Fore
SplineSet
855 864 m 0
 855 824 823 789 780 789 c 0
 758 789 736 799 721 817 c 0
 680 868 619 905 532 905 c 0
 344 905 235 718 235 484 c 0
 235 242 312 119 490 119 c 0
 665 119 767 273 826 489 c 0
 849 572 863 661 872 740 c 1
 876 821 882 902 888 983 c 0
 890 1017 921 1052 964 1052 c 0
 1012 1052 1038 1013 1038 963 c 0
 1038 910 1033 827 1022 727 c 1
 1011 519 1004 304 1004 87 c 0
 1004 -83 1015 -255 1015 -426 c 0
 1015 -466 981 -500 939 -500 c 0
 900 -500 867 -468 865 -428 c 0
 858 -256 854 -84 854 87 c 2
 854 178 l 1
 776 60 656 -31 490 -31 c 0
 194 -31 85 216 85 484 c 0
 85 746 216 1055 532 1055 c 0
 665 1055 772 996 839 911 c 0
 850 897 855 881 855 864 c 0
EndSplineSet
Colour: ffff
EndChar

StartChar: r
Encoding: 114 114 351
Width: 865
VWidth: 2426
Flags: HMW
LayerCount: 2
Fore
SplineSet
705 1046 m 0
 743 1046 780 1015 780 971 c 0
 780 936 754 904 719 897 c 0
 461 847 363 695 307 452 c 0
 277 322 265 144 249 -8 c 0
 245 -43 213 -75 174 -75 c 0
 133 -75 99 -40 99 1 c 2
 99 6 l 1
 113 175 126 345 126 532 c 0
 126 703 113 867 88 950 c 0
 86 957 85 964 85 971 c 0
 85 1008 115 1046 160 1046 c 0
 192 1046 222 1024 232 992 c 0
 250 930 261 853 268 766 c 1
 354 906 491 1006 691 1045 c 0
 696 1046 700 1046 705 1046 c 0
EndSplineSet
Colour: ffff
EndChar

StartChar: u
Encoding: 117 117 352
Width: 1003
VWidth: 2426
Flags: HMW
LayerCount: 2
Fore
SplineSet
208 1046 m 0
 253 1046 283 1009 283 971 c 0
 283 966 282 960 281 955 c 0
 256 842 235 734 235 584 c 0
 235 311 253 120 450 120 c 0
 584 120 666 260 709 503 c 0
 736 657 739 809 748 975 c 0
 750 1011 782 1046 823 1046 c 0
 864 1046 898 1011 898 970 c 0
 898 867 889 749 889 639 c 0
 889 436 899 242 918 56 c 0
 918 54 918 51 918 49 c 0
 918 9 888 -27 844 -27 c 0
 806 -27 772 1 768 40 c 0
 764 82 760 125 757 168 c 1
 695 57 594 -30 450 -30 c 0
 87 -30 85 353 85 584 c 0
 85 748 110 872 135 987 c 0
 143 1022 174 1046 208 1046 c 0
EndSplineSet
Colour: ffff
EndChar

StartChar: asciitilde
Encoding: 126 126 353
Width: 870
VWidth: 2426
Flags: HMW
LayerCount: 2
Fore
SplineSet
115 1077 m 0
 71 1077 40 1114 40 1152 c 0
 40 1156 40 1160 41 1164 c 0
 61 1285 162 1366 279 1366 c 0
 372 1366 441 1324 494 1285 c 0
 536 1254 567 1239 602 1239 c 0
 622 1239 655 1243 692 1344 c 0
 703 1374 731 1392 762 1392 c 0
 808 1392 837 1355 837 1317 c 0
 837 1309 836 1300 833 1292 c 0
 786 1163 704 1089 602 1089 c 0
 517 1089 454 1130 406 1165 c 0
 361 1198 326 1216 279 1216 c 0
 232 1216 197 1189 189 1140 c 0
 183 1104 151 1077 115 1077 c 0
EndSplineSet
Colour: ffff
EndChar

StartChar: cent
Encoding: 162 162 356
Width: 1031
VWidth: 1823
Flags: HMW
LayerCount: 2
Fore
SplineSet
547 896 m 0
 506 896 472 930 472 971 c 2
 472 1316 l 2
 472 1357 506 1391 547 1391 c 0
 588 1391 622 1357 622 1316 c 2
 622 971 l 2
 622 930 588 896 547 896 c 0
547 -440 m 0
 506 -440 472 -406 472 -365 c 2
 472 45 l 2
 472 86 506 120 547 120 c 0
 588 120 622 86 622 45 c 2
 622 -365 l 2
 622 -406 588 -440 547 -440 c 0
EndSplineSet
Refer: 1 99 N 1 0 0 1 0 0 2
Colour: ffff
EndChar

StartChar: sterling
Encoding: 163 163 357
Width: 1360
VWidth: 2426
Flags: HMW
LayerCount: 2
Fore
SplineSet
1248 360 m 0
 1292 360 1323 323 1323 285 c 0
 1323 280 1323 276 1322 271 c 0
 1275 19 991 -30 772 -30 c 0
 618 -30 470 -9 369 23 c 0
 355 28 342 32 328 36 c 1
 283 7 228 -8 169 -8 c 0
 95 -8 19 30 19 110 c 0
 19 202 114 219 163 219 c 0
 203 219 245 212 288 202 c 1
 339 274 360 420 366 588 c 1
 300 597 218 605 218 678 c 0
 218 723 255 753 293 753 c 0
 319 753 342 743 368 739 c 1
 368 970 l 2
 368 1149 373 1391 565 1391 c 0
 689 1391 745 1276 745 1166 c 0
 745 1125 711 1091 670 1091 c 0
 629 1091 595 1125 595 1166 c 0
 595 1238 575 1241 567 1241 c 0
 566 1241 565 1241 565 1241 c 2
 558 1241 518 1187 518 939 c 2
 518 728 l 2
 519 728 521 728 522 728 c 0
 630 728 740 742 829 759 c 0
 834 760 838 760 843 760 c 0
 881 760 918 729 918 685 c 0
 918 650 892 618 857 611 c 0
 760 592 642 578 522 578 c 0
 520 578 519 578 517 578 c 0
 513 424 497 274 437 159 c 1
 518 137 646 120 772 120 c 0
 995 120 1151 179 1174 299 c 0
 1181 334 1213 360 1248 360 c 0
EndSplineSet
Colour: ffff
EndChar

StartChar: currency
Encoding: 164 164 358
Width: 1109
VWidth: 1823
Flags: HMW
LayerCount: 2
Fore
SplineSet
258 243 m 0
 300 243 333 208 333 168 c 0
 333 151 327 133 315 119 c 2
 208 -4 l 2
 193 -21 172 -30 151 -30 c 0
 109 -30 76 5 76 45 c 0
 76 62 82 80 94 94 c 2
 201 217 l 2
 216 234 237 243 258 243 c 0
959 1045 m 0
 1001 1045 1034 1010 1034 970 c 0
 1034 953 1028 935 1016 921 c 2
 905 793 l 2
 890 776 869 767 848 767 c 0
 806 767 773 802 773 842 c 0
 773 859 779 877 791 891 c 2
 902 1019 l 2
 917 1036 938 1045 959 1045 c 0
344 834 m 0
 344 795 311 760 270 760 c 0
 249 760 229 768 214 785 c 2
 95 921 l 2
 83 935 77 953 77 970 c 0
 77 1009 110 1044 151 1044 c 0
 172 1044 192 1036 207 1019 c 2
 326 883 l 2
 338 869 344 851 344 834 c 0
1034 45 m 0
 1034 5 1001 -30 959 -30 c 0
 938 -30 917 -21 902 -4 c 2
 772 146 l 2
 760 160 754 178 754 195 c 0
 754 235 787 270 829 270 c 0
 850 270 871 261 886 244 c 2
 1016 94 l 2
 1028 80 1034 62 1034 45 c 0
EndSplineSet
Refer: 5 111 N 1 0 0 1 0 0 2
Colour: ffff
EndChar

StartChar: brokenbar
Encoding: 166 166 360
Width: 414
VWidth: 2426
Flags: HMW
LayerCount: 2
Fore
SplineSet
226 572 m 0
 268 572 301 538 301 497 c 0
 301 316 291 143 283 -4 c 0
 281 -44 247 -75 208 -75 c 0
 166 -75 133 -40 133 0 c 0
 133 147 147 319 151 499 c 0
 152 539 186 572 226 572 c 0
208 820 m 0
 166 820 132 853 132 894 c 0
 132 1056 136 1216 136 1361 c 0
 136 1402 170 1436 211 1436 c 0
 252 1436 286 1402 286 1361 c 0
 286 1216 285 1058 282 894 c 0
 281 854 248 820 208 820 c 0
EndSplineSet
Colour: ffff
EndChar

StartChar: dieresis
Encoding: 168 168 361
Width: 667
VWidth: 1823
Flags: HMW
LayerCount: 2
Fore
SplineSet
320 1214 m 0
 320 1148 266 1094 200 1094 c 0
 132 1094 81 1150 81 1214 c 0
 81 1280 134 1333 200 1333 c 0
 264 1333 320 1282 320 1214 c 0
587 1214 m 0
 587 1148 533 1094 467 1094 c 0
 399 1094 348 1150 348 1214 c 0
 348 1280 401 1333 467 1333 c 0
 531 1333 587 1282 587 1214 c 0
EndSplineSet
Colour: ffff
EndChar

StartChar: copyright
Encoding: 169 169 362
Width: 1693
VWidth: 1823
Flags: HMW
LayerCount: 2
Fore
SplineSet
85 616 m 0
 85 1111 451 1436 831 1436 c 0
 1284 1436 1608 1120 1608 760 c 0
 1608 271 1257 -30 752 -30 c 0
 428 -30 85 267 85 616 c 0
235 616 m 0
 235 363 508 120 752 120 c 0
 1193 120 1458 359 1458 760 c 0
 1458 1024 1216 1286 831 1286 c 0
 537 1286 235 1033 235 616 c 0
1118 1005 m 0
 1118 964 1083 931 1044 931 c 0
 1027 931 1009 937 995 949 c 0
 959 981 919 997 868 997 c 0
 717 997 592 848 592 687 c 0
 592 551 655 465 809 465 c 0
 895 465 956 488 1017 525 c 0
 1029 532 1043 536 1056 536 c 0
 1094 536 1131 505 1131 461 c 0
 1131 436 1118 411 1095 397 c 0
 1018 350 925 315 809 315 c 0
 569 315 442 487 442 687 c 0
 442 914 615 1147 868 1147 c 0
 957 1147 1033 1113 1093 1061 c 0
 1110 1046 1118 1026 1118 1005 c 0
EndSplineSet
Colour: ffff
EndChar

StartChar: ordfeminine
Encoding: 170 170 363
Width: 778
VWidth: 2426
Flags: HMW
LayerCount: 2
Fore
SplineSet
564 1427 m 1
 576 1462 588 1508 627 1508 c 0
 653 1508 680 1487 680 1459 c 0
 680 1452 679 1445 675 1437 c 0
 651 1389 615 1243 615 1134 c 0
 615 1016 652 946 689 946 c 0
 716 946 739 923 739 896 c 0
 739 869 716 846 689 846 c 0
 610 846 566 898 542 961 c 1
 496 894 427 846 327 846 c 0
 166 846 63 988 63 1156 c 0
 63 1341 185 1509 370 1509 c 0
 448 1509 518 1482 564 1427 c 1
521 1247 m 0
 521 1371 463 1409 370 1409 c 0
 255 1409 163 1303 163 1156 c 0
 163 1024 236 946 327 946 c 0
 457 946 521 1094 521 1247 c 0
EndSplineSet
Colour: ffff00
EndChar

StartChar: logicalnot
Encoding: 172 172 364
Width: 867
VWidth: 1823
Flags: HMW
LayerCount: 2
Fore
SplineSet
14 661 m 0
 14 702 48 736 89 736 c 2
 734 736 l 2
 779 736 809 693 809 661 c 2
 809 388 l 2
 809 347 775 313 734 313 c 0
 693 313 659 347 659 388 c 2
 659 586 l 1
 89 586 l 2
 48 586 14 620 14 661 c 0
EndSplineSet
Colour: ffff
EndChar

StartChar: registered
Encoding: 174 174 366
Width: 1667
VWidth: 1823
Flags: HMW
LayerCount: 2
Fore
SplineSet
563 847 m 0
 520 847 488 883 488 922 c 0
 488 938 493 954 503 967 c 0
 571 1058 680 1110 791 1110 c 0
 951 1110 1133 999 1133 809 c 0
 1133 691 1062 596 956 553 c 1
 1013 505 1075 465 1140 429 c 0
 1165 415 1179 389 1179 362 c 0
 1179 318 1140 288 1103 288 c 0
 1091 288 1079 291 1068 297 c 0
 953 361 833 445 745 553 c 0
 743 556 741 559 739 562 c 1
 733 489 726 417 719 348 c 0
 715 309 681 281 643 281 c 0
 599 281 570 316 570 356 c 0
 570 359 570 361 570 364 c 0
 586 522 600 696 608 862 c 1
 595 852 579 847 563 847 c 0
85 685 m 0
 85 1113 469 1391 825 1391 c 0
 1227 1391 1582 1176 1582 727 c 0
 1582 322 1240 -30 820 -30 c 0
 411 -30 85 206 85 685 c 0
235 685 m 0
 235 294 473 120 820 120 c 0
 1156 120 1432 406 1432 727 c 0
 1432 1072 1179 1241 825 1241 c 0
 537 1241 235 1013 235 685 c 0
735 952 m 1
 750 938 760 919 760 897 c 0
 760 815 751 731 745 647 c 1
 759 664 780 675 803 675 c 0
 930 675 983 737 983 809 c 0
 983 887 897 960 791 960 c 0
 772 960 753 957 735 952 c 1
EndSplineSet
Colour: ffff
EndChar

StartChar: degree
Encoding: 176 176 368
Width: 648
VWidth: 2426
Flags: HMW
LayerCount: 2
Fore
SplineSet
509 1398 m 0
 509 1495 423 1589 323 1589 c 0
 236 1589 139 1493 139 1391 c 0
 139 1301 222 1219 309 1219 c 0
 420 1219 509 1307 509 1398 c 0
609 1398 m 0
 609 1243 468 1119 309 1119 c 0
 164 1119 39 1245 39 1391 c 0
 39 1547 174 1689 323 1689 c 0
 483 1689 609 1547 609 1398 c 0
EndSplineSet
Colour: ffff00
EndChar

StartChar: acute
Encoding: 180 180 369
Width: 518
VWidth: 2426
Flags: HMW
LayerCount: 2
Fore
SplineSet
357 1556 m 0
 400 1556 432 1521 432 1481 c 0
 432 1464 427 1448 416 1434 c 0
 341 1341 277 1257 223 1138 c 0
 210 1111 182 1094 154 1094 c 0
 109 1094 80 1133 80 1170 c 0
 80 1180 83 1190 87 1200 c 0
 149 1337 223 1433 298 1528 c 0
 313 1546 335 1556 357 1556 c 0
EndSplineSet
Colour: ffff
EndChar

StartChar: mu
Encoding: 181 181 370
Width: 1019
VWidth: 1823
Flags: HMW
LayerCount: 2
Fore
SplineSet
237 1090 m 0
 283 1090 311 1049 311 1013 c 0
 311 1007 310 1002 309 996 c 0
 274 861 250 694 240 529 c 1
 240 442 244 360 259 295 c 0
 285 180 329 120 471 120 c 0
 605 120 684 231 728 433 c 0
 746 515 756 608 762 699 c 1
 762 804 764 923 770 1020 c 0
 772 1052 801 1090 844 1090 c 0
 885 1090 920 1056 920 1015 c 0
 920 896 912 727 912 587 c 0
 912 402 916 227 934 56 c 0
 934 54 934 51 934 49 c 0
 934 9 904 -27 860 -27 c 0
 822 -27 788 1 784 40 c 0
 781 74 778 109 775 143 c 1
 710 43 608 -30 471 -30 c 0
 380 -30 304 -7 245 37 c 1
 254 -131 269 -296 283 -440 c 0
 283 -442 283 -445 283 -447 c 0
 283 -487 251 -522 208 -522 c 0
 170 -522 137 -493 133 -454 c 0
 109 -212 85 83 85 367 c 0
 85 421 87 477 90 533 c 2
 90 535 l 2
 90 659 112 791 133 898 c 0
 142 949 153 996 164 1036 c 0
 173 1068 205 1090 237 1090 c 0
EndSplineSet
Colour: ffff
EndChar

StartChar: paragraph
Encoding: 182 182 371
Width: 1319
VWidth: 2426
Flags: HMW
LayerCount: 2
Fore
SplineSet
1234 1117 m 0
 1234 1077 1201 1042 1159 1042 c 0
 1138 1042 1117 1051 1102 1068 c 0
 1012 1172 886 1241 715 1241 c 0
 450 1241 235 1060 235 811 c 0
 235 608 405 448 615 399 c 1
 615 1090 l 2
 615 1131 649 1165 690 1165 c 0
 731 1165 765 1131 765 1090 c 2
 765 383 l 1
 803 384 841 389 878 397 c 1
 878 1030 l 2
 878 1071 912 1105 953 1105 c 0
 994 1105 1028 1071 1028 1030 c 2
 1028 407 l 1
 1045 393 1054 371 1054 349 c 0
 1054 328 1046 307 1028 292 c 1
 1028 -442 l 2
 1028 -483 994 -517 953 -517 c 0
 912 -517 878 -483 878 -442 c 2
 878 244 l 1
 841 237 803 234 765 233 c 1
 765 -382 l 2
 765 -423 731 -457 690 -457 c 0
 649 -457 615 -423 615 -382 c 2
 615 246 l 1
 339 298 85 504 85 811 c 0
 85 1158 384 1391 715 1391 c 0
 930 1391 1100 1298 1216 1166 c 0
 1228 1152 1234 1134 1234 1117 c 0
EndSplineSet
Colour: ffff
EndChar

StartChar: uni00B9
Encoding: 185 185 373
Width: 438
VWidth: 2426
Flags: HMW
LayerCount: 2
Fore
SplineSet
350 830 m 2
 348 799 325 785 301 785 c 0
 275 785 248 803 250 836 c 2
 283 1351 l 1
 242 1324 200 1302 153 1283 c 0
 146 1280 140 1279 134 1279 c 0
 106 1279 85 1305 85 1331 c 0
 85 1349 95 1366 116 1375 c 0
 188 1403 252 1446 307 1496 c 0
 317 1505 328 1508 339 1508 c 0
 366 1508 392 1486 390 1456 c 2
 350 830 l 2
EndSplineSet
Colour: ffff00
EndChar

StartChar: onequarter
Encoding: 188 188 375
Width: 1893
VWidth: 1839
Flags: HMW
LayerCount: 2
Fore
SplineSet
459 -30 m 0
 418 -30 384 5 384 45 c 0
 384 63 391 82 404 96 c 0
 759 473 1204 1059 1421 1450 c 0
 1435 1475 1461 1489 1488 1489 c 0
 1532 1489 1561 1451 1561 1414 c 0
 1561 1402 1558 1389 1552 1378 c 0
 1325 969 879 381 514 -6 c 0
 499 -22 479 -30 459 -30 c 0
1540 450 m 0
 1584 450 1617 414 1617 375 c 0
 1617 372 1616 369 1616 366 c 2
 1571 -24 l 1
 1629 -14 1687 -1 1743 12 c 0
 1749 13 1755 14 1761 14 c 0
 1799 14 1835 -16 1835 -61 c 0
 1835 -95 1812 -125 1778 -134 c 0
 1706 -151 1631 -166 1554 -179 c 1
 1532 -373 l 2
 1527 -411 1495 -441 1458 -441 c 0
 1414 -441 1381 -405 1381 -366 c 0
 1381 -363 1382 -360 1382 -357 c 2
 1400 -200 l 1
 1323 -208 1246 -213 1169 -213 c 0
 1134 -213 1099 -212 1059 -206 c 0
 1031 -202 972 -193 941 -135 c 0
 932 -118 927 -98 927 -78 c 0
 927 -34 946 -4 959 14 c 0
 1129 262 1252 505 1368 792 c 0
 1380 821 1409 839 1439 839 c 0
 1484 839 1513 801 1513 763 c 0
 1513 754 1511 745 1508 736 c 0
 1391 446 1264 196 1090 -59 c 1
 1117 -62 1140 -63 1169 -63 c 0
 1251 -63 1335 -57 1418 -47 c 1
 1466 382 l 2
 1471 420 1503 450 1540 450 c 0
360 445 m 0
 317 445 285 480 285 520 c 0
 285 522 285 523 285 525 c 2
 346 1445 l 1
 290 1400 233 1359 172 1324 c 0
 161 1317 148 1314 135 1314 c 0
 97 1314 59 1344 59 1388 c 0
 59 1414 72 1440 96 1454 c 0
 182 1504 270 1573 344 1642 c 0
 355 1652 376 1662 395 1662 c 2
 430 1662 l 2
 471 1662 508 1625 505 1582 c 2
 435 515 l 2
 432 476 399 445 360 445 c 0
EndSplineSet
Colour: ffff
EndChar

StartChar: onehalf
Encoding: 189 189 376
Width: 1915
VWidth: 2426
Flags: HMW
LayerCount: 2
Fore
SplineSet
360 445 m 0
 317 445 285 480 285 520 c 2
 285 525 l 1
 346 1445 l 1
 290 1400 233 1359 172 1324 c 0
 161 1317 148 1314 135 1314 c 0
 97 1314 59 1344 59 1388 c 0
 59 1414 72 1440 96 1454 c 0
 182 1504 270 1573 344 1642 c 0
 355 1652 376 1662 395 1662 c 2
 430 1662 l 2
 471 1662 508 1625 505 1582 c 2
 435 515 l 2
 432 476 399 445 360 445 c 0
459 -30 m 0
 417 -30 384 4 384 45 c 0
 384 64 390 83 404 97 c 0
 760 474 1203 1058 1420 1450 c 0
 1434 1475 1460 1489 1487 1489 c 0
 1531 1489 1561 1450 1561 1413 c 0
 1561 1401 1558 1389 1552 1378 c 0
 1325 968 880 380 514 -7 c 0
 500 -23 479 -30 459 -30 c 0
1194 -410 m 2
 1152 -410 1119 -376 1119 -335 c 0
 1119 -315 1127 -295 1143 -280 c 2
 1430 -19 l 2
 1431 -18 1433 -15 1435 -14 c 0
 1623 128 1729 246 1729 424 c 0
 1729 549 1659 630 1541 630 c 0
 1407 630 1312 517 1312 370 c 0
 1312 329 1278 295 1237 295 c 0
 1196 295 1162 329 1162 370 c 0
 1162 579 1307 780 1541 780 c 0
 1751 780 1879 615 1879 424 c 0
 1879 173 1720 13 1528 -132 c 1
 1403 -246 l 1
 1452 -244 1499 -243 1548 -243 c 0
 1646 -243 1748 -247 1848 -252 c 0
 1888 -254 1919 -288 1919 -327 c 0
 1919 -369 1884 -402 1844 -402 c 2
 1840 -402 l 1
 1741 -397 1642 -393 1548 -393 c 0
 1430 -393 1316 -398 1201 -410 c 1
 1194 -410 l 2
EndSplineSet
Colour: ffff
EndChar

StartChar: threequarters
Encoding: 190 190 377
Width: 2014
VWidth: 2426
Flags: HMW
LayerCount: 2
Fore
SplineSet
1662 450 m 0
 1706 450 1738 413 1738 374 c 0
 1738 371 1737 368 1737 365 c 2
 1692 -24 l 1
 1750 -14 1808 -1 1864 12 c 0
 1870 13 1876 14 1882 14 c 0
 1920 14 1956 -16 1956 -61 c 0
 1956 -95 1933 -125 1899 -134 c 0
 1826 -151 1751 -167 1674 -180 c 1
 1652 -374 l 2
 1647 -412 1614 -441 1577 -441 c 0
 1533 -441 1501 -404 1501 -365 c 0
 1501 -362 1502 -359 1502 -356 c 2
 1520 -200 l 1
 1443 -208 1366 -213 1289 -213 c 0
 1254 -213 1220 -212 1180 -206 c 0
 1152 -202 1093 -194 1061 -135 c 0
 1052 -118 1047 -98 1047 -78 c 0
 1047 -31 1068 -2 1077 12 c 0
 1250 264 1371 504 1488 792 c 0
 1500 821 1529 839 1559 839 c 0
 1604 839 1633 801 1633 763 c 0
 1633 754 1631 745 1628 736 c 0
 1511 446 1384 196 1210 -59 c 1
 1236 -62 1260 -63 1289 -63 c 0
 1371 -63 1455 -57 1538 -47 c 1
 1587 383 l 2
 1592 421 1625 450 1662 450 c 0
579 -30 m 0
 537 -30 504 4 504 45 c 0
 504 64 510 83 524 97 c 0
 880 474 1323 1058 1540 1450 c 0
 1554 1475 1580 1489 1607 1489 c 0
 1651 1489 1681 1450 1681 1413 c 0
 1681 1401 1678 1389 1672 1378 c 0
 1445 968 1000 380 634 -7 c 0
 620 -23 599 -30 579 -30 c 0
59 622 m 0
 59 664 94 697 134 697 c 0
 151 697 168 691 182 680 c 0
 234 637 306 613 376 613 c 0
 522 613 623 696 624 826 c 1
 620 912 552 965 438 965 c 0
 390 965 338 950 297 941 c 0
 292 940 286 939 281 939 c 0
 241 939 206 970 206 1016 c 0
 206 1076 270 1090 326 1102 c 0
 365 1112 403 1125 438 1139 c 0
 541 1181 594 1231 594 1307 c 0
 594 1447 524 1484 453 1484 c 0
 371 1484 281 1425 261 1335 c 0
 253 1300 222 1276 188 1276 c 0
 143 1276 113 1313 113 1351 c 0
 113 1356 114 1362 115 1367 c 0
 153 1535 309 1634 453 1634 c 0
 604 1634 744 1521 744 1307 c 0
 744 1204 691 1124 623 1071 c 1
 709 1025 770 940 774 828 c 1
 774 595 581 463 376 463 c 0
 274 463 168 497 86 564 c 0
 68 579 59 600 59 622 c 0
EndSplineSet
Colour: ffff
EndChar

StartChar: Eth
Encoding: 208 208 394
Width: 1341
VWidth: 1823
Flags: HMW
LayerCount: 2
Fore
SplineSet
90 654 m 2
 50 654 14 685 14 728 c 0
 14 767 44 801 83 804 c 0
 187 812 282 815 371 815 c 0
 472 815 565 811 649 804 c 0
 688 801 718 767 718 728 c 0
 718 685 682 654 642 654 c 2
 637 654 l 1
 557 661 469 665 372 665 c 0
 287 665 195 662 95 654 c 1
 90 654 l 2
EndSplineSet
Refer: 16 68 N 1 0 0 1 150 0 2
Colour: ffff
EndChar

StartChar: multiply
Encoding: 215 215 401
Width: 756
VWidth: 1823
Flags: HMW
LayerCount: 2
Fore
SplineSet
118 325 m 0
 75 325 43 360 43 400 c 0
 43 417 48 433 59 447 c 0
 126 532 195 610 266 686 c 1
 192 749 114 808 46 851 c 0
 24 865 11 889 11 914 c 0
 11 957 48 989 86 989 c 0
 100 989 113 985 126 977 c 0
 205 928 290 863 370 794 c 1
 431 854 493 914 558 973 c 0
 572 986 591 993 609 993 c 0
 649 993 684 959 684 918 c 0
 684 898 676 878 660 863 c 0
 598 806 539 750 482 693 c 1
 570 609 667 499 705 424 c 0
 710 413 713 401 713 390 c 0
 713 352 683 315 638 315 c 0
 610 315 584 330 571 356 c 0
 551 396 492 472 413 551 c 0
 402 562 390 574 378 586 c 1
 309 513 242 436 177 353 c 0
 163 335 140 325 118 325 c 0
EndSplineSet
Colour: ffff
EndChar

StartChar: germandbls
Encoding: 223 223 408
Width: 1032
VWidth: 2426
Flags: HMW
LayerCount: 2
Fore
SplineSet
134 -71 m 0
 91 -71 59 -36 59 4 c 2
 59 9 l 1
 84 381 108 723 146 1021 c 0
 181 1294 323 1391 495 1391 c 0
 712 1391 841 1229 841 1060 c 0
 841 913 799 838 705 763 c 0
 654 722 620 667 620 619 c 0
 620 580 639 557 706 523 c 0
 812 469 973 374 973 182 c 0
 973 -4 751 -61 606 -61 c 0
 533 -61 456 -49 390 -12 c 0
 366 1 352 27 352 53 c 0
 352 97 389 128 427 128 c 0
 440 128 452 125 464 118 c 0
 498 99 549 89 606 89 c 0
 749 89 823 154 823 182 c 0
 823 275 744 336 638 389 c 0
 561 429 470 495 470 619 c 0
 470 733 540 824 611 881 c 0
 687 942 691 937 691 1060 c 0
 691 1153 628 1241 495 1241 c 0
 393 1241 323 1222 294 1001 c 0
 256 710 234 371 209 -1 c 0
 206 -40 173 -71 134 -71 c 0
EndSplineSet
Colour: ffff
EndChar

StartChar: ae
Encoding: 230 230 415
Width: 1832
VWidth: 2426
Flags: HMW
LayerCount: 2
Fore
SplineSet
882 877 m 0
 882 836 848 801 808 801 c 0
 790 801 771 807 757 820 c 0
 710 862 642 888 578 888 c 0
 376 888 209 652 209 419 c 0
 209 242 323 120 503 120 c 0
 734 120 827 293 866 488 c 0
 890 614 921 834 938 965 c 0
 943 1003 976 1030 1013 1030 c 0
 1057 1030 1087 994 1087 954 c 0
 1087 951 1086 948 1086 945 c 0
 1085 936 1084 927 1083 918 c 1
 1176 1001 1294 1054 1431 1054 c 0
 1576 1054 1742 963 1742 784 c 0
 1742 477 1315 385 1127 385 c 0
 1091 385 1054 387 1018 390 c 1
 1036 230 1163 120 1346 120 c 0
 1456 120 1567 163 1649 237 c 0
 1663 250 1680 256 1698 256 c 0
 1738 256 1774 224 1774 182 c 0
 1774 161 1765 140 1749 125 c 0
 1639 25 1494 -30 1346 -30 c 0
 1161 -30 1002 59 921 206 c 1
 843 76 707 -30 503 -30 c 0
 241 -30 59 166 59 419 c 0
 59 702 256 1038 578 1038 c 0
 680 1038 782 998 857 932 c 0
 874 918 882 898 882 877 c 0
1030 540 m 1
 1063 537 1096 535 1127 535 c 0
 1321 535 1592 645 1592 784 c 0
 1592 849 1528 904 1431 904 c 0
 1236 904 1078 745 1030 540 c 1
EndSplineSet
Colour: ffff
EndChar

StartChar: oslash
Encoding: 248 248 432
Width: 1083
VWidth: 1823
Flags: HMW
LayerCount: 2
Fore
SplineSet
133 -30 m 0
 89 -30 59 7 59 46 c 0
 59 60 63 74 71 86 c 0
 312 460 586 755 870 1025 c 0
 885 1039 904 1046 923 1046 c 0
 963 1046 997 1011 997 970 c 0
 997 950 989 931 974 917 c 0
 694 651 430 364 197 4 c 0
 183 -18 158 -30 133 -30 c 0
EndSplineSet
Refer: 5 111 N 1 0 0 1 0 0 2
Colour: ffff
EndChar

StartChar: thorn
Encoding: 254 254 438
Width: 1069
VWidth: 1823
Flags: HMW
LayerCount: 2
Fore
SplineSet
149 1436 m 0
 191 1436 226 1401 225 1360 c 2
 191 -366 l 2
 190 -406 157 -440 117 -440 c 0
 75 -440 40 -405 41 -364 c 2
 75 1362 l 2
 76 1402 109 1436 149 1436 c 0
EndSplineSet
Refer: 5 111 N 1 0 0 1 0 0 2
Colour: ffff
EndChar

StartChar: OE
Encoding: 338 338 440
Width: 2275
VWidth: 2426
Flags: HMW
LayerCount: 2
Fore
SplineSet
1218 106 m 0
 1218 151 1255 181 1293 181 c 0
 1298 181 1304 180 1309 179 c 0
 1477 141 1653 123 1823 123 c 0
 1929 123 2033 131 2130 145 c 0
 2134 146 2137 146 2141 146 c 0
 2179 146 2216 115 2216 71 c 0
 2216 34 2188 2 2152 -3 c 0
 2047 -19 1937 -27 1823 -27 c 0
 1643 -27 1457 -7 1277 33 c 0
 1242 41 1218 72 1218 106 c 0
1061 1151 m 0
 1061 1113 1029 1077 987 1077 c 0
 964 1077 941 1087 927 1107 c 0
 869 1186 784 1241 673 1241 c 0
 413 1241 209 967 209 643 c 0
 209 321 415 120 670 120 c 0
 988 120 1125 340 1170 710 c 0
 1168 717 1167 724 1167 732 c 0
 1167 746 1171 759 1177 770 c 1
 1185 861 1189 959 1189 1065 c 0
 1189 1151 1182 1242 1182 1329 c 0
 1182 1374 1223 1404 1259 1404 c 0
 1262 1404 1264 1403 1267 1403 c 0
 1499 1372 1693 1347 1863 1347 c 0
 1950 1347 2029 1354 2105 1371 c 0
 2111 1372 2116 1373 2121 1373 c 0
 2159 1373 2197 1344 2197 1299 c 0
 2197 1265 2173 1233 2139 1225 c 0
 2049 1204 1958 1197 1863 1197 c 0
 1702 1197 1531 1217 1336 1243 c 1
 1338 1186 1339 1124 1339 1065 c 0
 1339 974 1336 884 1329 797 c 1
 1428 787 1552 779 1675 779 c 0
 1778 779 1878 784 1966 795 c 0
 1969 795 1972 796 1975 796 c 0
 2014 796 2051 766 2051 722 c 0
 2051 685 2023 652 1986 647 c 0
 1889 634 1782 629 1675 629 c 0
 1546 629 1417 637 1312 648 c 1
 1254 264 1086 -30 670 -30 c 0
 325 -30 59 251 59 643 c 0
 59 1015 297 1391 673 1391 c 0
 840 1391 967 1304 1047 1195 c 0
 1057 1182 1061 1166 1061 1151 c 0
EndSplineSet
Colour: ffff
EndChar

StartChar: dotlessi
Encoding: 305 305 442
Width: 390
VWidth: 2426
Flags: HMW
LayerCount: 2
Fore
SplineSet
211 1046 m 0
 253 1046 286 1011 286 971 c 0
 286 738 271 210 271 0 c 0
 271 -41 237 -75 196 -75 c 0
 155 -75 121 -41 121 -0 c 0
 121 211 125 737 136 975 c 0
 138 1015 172 1046 211 1046 c 0
EndSplineSet
Colour: ffff
EndChar

StartChar: uniE00A
Encoding: 57354 57354 443
Width: 600
VWidth: 1823
Flags: HMW
AnchorPoint: "Anchor-1" 342 0 basechar 0
AnchorPoint: "Anchor-3" 508 1856 basechar 0
LayerCount: 2
Fore
SplineSet
922 2006 m 0
 966 2006 997 1969 997 1931 c 0
 997 1918 994 1906 987 1894 c 0
 928 1789 846 1710 727 1710 c 0
 656 1710 585 1736 509 1780 c 0
 438 1821 385 1834 346 1834 c 0
 280 1834 177 1753 158 1668 c 0
 150 1634 119 1610 85 1610 c 0
 40 1610 10 1648 10 1686 c 0
 10 1691 11 1697 12 1702 c 0
 46 1855 196 1984 346 1984 c 0
 419 1984 498 1959 583 1910 c 0
 647 1874 696 1860 727 1860 c 0
 770 1860 808 1881 857 1968 c 0
 870 1992 896 2006 922 2006 c 0
EndSplineSet
Refer: 80 1575 N 1 0 0 1 200 0 2
Colour: ffff
EndChar

StartChar: uniE00C
Encoding: 57356 57356 445
Width: 1069
VWidth: 1823
Flags: HMW
LayerCount: 2
Fore
SplineSet
541 1046 m 0
 864 1046 1011 778 1011 508 c 0
 1011 238 864 -30 541 -30 c 0
 218 -30 72 238 72 508 c 0
 72 778 218 1046 541 1046 c 0
541 896 m 0
 326 896 222 734 222 508 c 0
 222 282 326 120 541 120 c 0
 756 120 861 282 861 508 c 0
 861 734 756 896 541 896 c 0
EndSplineSet
Colour: ffff
EndChar

StartChar: uniE00D
Encoding: 57357 57357 446
Width: 950
VWidth: 1823
Flags: HMW
LayerCount: 2
Fore
SplineSet
147 -75 m 0
 106 -75 72 -41 72 0 c 2
 72 584 l 2
 72 819 200 1046 482 1046 c 0
 764 1046 892 819 892 584 c 2
 892 0 l 2
 892 -41 858 -75 817 -75 c 0
 776 -75 742 -41 742 0 c 2
 742 584 l 2
 742 773 660 896 482 896 c 0
 304 896 222 773 222 584 c 2
 222 0 l 2
 222 -41 188 -75 147 -75 c 0
EndSplineSet
Colour: ffff
EndChar

StartChar: uniE00E
Encoding: 57358 57358 447
Width: 850
VWidth: 1823
Flags: HMW
LayerCount: 2
Fore
SplineSet
147 -75 m 0
 106 -75 72 -41 72 0 c 2
 72 598 l 2
 72 827 180 1046 432 1046 c 0
 684 1046 792 827 792 598 c 2
 792 0 l 2
 792 -41 758 -75 717 -75 c 0
 676 -75 642 -41 642 0 c 2
 642 598 l 2
 642 793 568 896 432 896 c 0
 296 896 222 793 222 598 c 2
 222 0 l 2
 222 -41 188 -75 147 -75 c 0
EndSplineSet
Colour: ffff
EndChar

StartChar: uniE00F
Encoding: 57359 57359 448
Width: 1089
VWidth: 1437
Flags: HW
AnchorPoint: "Anchor-3" 608 1160 basechar 0
AnchorPoint: "Anchor-1" 469 -164 basechar 0
LayerCount: 2
Fore
SplineSet
811 886 m 0
 856 886 885 849 885 811 c 0
 885 807 885 803 884 799 c 2
 843 539 l 2
 837 503 828 458 828 420 c 0
 828 249 917 120 1089 120 c 0
 1130 120 1164 86 1164 45 c 0
 1164 4 1130 -30 1089 -30 c 0
 911 -30 786 71 725 200 c 1
 605 -1 401 -135 134 -135 c 0
 93 -135 59 -101 59 -60 c 0
 59 -19 93 15 134 15 c 0
 439 15 627 226 687 519 c 0
 687 521 688 524 688 525 c 2
 736 823 l 2
 742 860 775 886 811 886 c 0
EndSplineSet
Colour: ffff
EndChar

StartChar: uniE010
Encoding: 57360 57360 451
Width: 435
VWidth: 2296
Flags: HW
AnchorPoint: "Anchor-1" 83 -394 basechar 0
AnchorPoint: "Anchor-3" 205 1361 basechar 0
LayerCount: 2
Fore
SplineSet
343 616 m 0
 300 616 268 653 268 691 c 0
 268 705 272 720 281 733 c 0
 290 747 296 762 296 795 c 0
 296 854 254 896 176 896 c 0
 114 896 65 846 65 799 c 0
 65 738 94 709 152 656 c 0
 168 642 176 621 176 601 c 0
 176 560 141 527 101 527 c 0
 83 527 65 533 51 546 c 0
 -5 597 -85 670 -85 799 c 0
 -85 942 42 1046 176 1046 c 0
 316 1046 446 950 446 795 c 0
 446 723 420 616 343 616 c 0
-250 -532 m 0
 -289 -532 -325 -499 -325 -456 c 0
 -325 -420 -297 -388 -260 -383 c 0
 47 -340 210 -181 210 181 c 0
 210 237 205 295 195 351 c 0
 194 355 194 359 194 363 c 0
 194 401 224 439 268 439 c 0
 304 439 337 413 343 377 c 0
 354 312 360 246 360 181 c 0
 360 -247 131 -480 -240 -531 c 0
 -244 -532 -247 -532 -250 -532 c 0
EndSplineSet
Colour: ffff
EndChar

StartChar: uniE011
Encoding: 57361 57361 452
Width: 593
VWidth: 2234
Flags: HW
AnchorPoint: "Anchor-1" 99 -394 basechar 0
AnchorPoint: "Anchor-3" 209 1361 basechar 0
LayerCount: 2
Fore
SplineSet
301 616 m 0
 258 616 226 653 226 691 c 0
 226 705 230 720 239 733 c 0
 248 747 254 762 254 795 c 0
 254 854 212 896 134 896 c 0
 72 896 23 846 23 799 c 0
 23 738 52 709 110 656 c 0
 126 642 134 621 134 601 c 0
 134 560 99 527 59 527 c 0
 41 527 23 533 9 546 c 0
 -47 597 -127 670 -127 799 c 0
 -127 942 0 1046 134 1046 c 0
 274 1046 404 950 404 795 c 0
 404 723 378 616 301 616 c 0
102 383 m 0
 102 419 130 458 176 458 c 0
 208 458 238 439 248 407 c 0
 305 231 349 120 593 120 c 0
 634 120 668 86 668 45 c 0
 668 4 634 -30 593 -30 c 0
 463 -30 363 1 289 56 c 1
 265 -244 95 -449 -232 -530 c 0
 -238 -531 -244 -532 -250 -532 c 0
 -288 -532 -325 -502 -325 -457 c 0
 -325 -423 -302 -393 -268 -384 c 0
 30 -310 142 -148 142 137 c 0
 142 231 136 256 105 363 c 0
 103 369 102 376 102 383 c 0
EndSplineSet
Colour: ffff
EndChar
